<svg xmlns="http://www.w3.org/2000/svg" width="300" height="300" x="0" y="0" fill="#F0B" enable-background="new 0 0 64 64" version="1.1" viewBox="0 0 64 64" xml:space="preserve"><g display="none"><g display="inline"><g><path fill="#F0B" d="M21,12.122C21,17.16,16.971,31,12,31S3,17.16,3,12.122S7.029,3,12,3S21,7.084,21,12.122z"/><path d="M12,32C6.038,32,2,17.078,2,12.122C2,6.541,6.486,2,12,2s10,4.541,10,10.122C22,17.078,17.962,32,12,32z M12,4 c-4.411,0-8,3.644-8,8.122C4,17.451,8.185,30,12,30s8-12.549,8-17.878C20,7.644,16.411,4,12,4z"/></g><g><circle cx="12" cy="13" r="4" fill="#F0B"/><path d="M12,18c-2.757,0-5-2.243-5-5s2.243-5,5-5s5,2.243,5,5S14.757,18,12,18z M12,10c-1.654,0-3,1.346-3,3s1.346,3,3,3 s3-1.346,3-3S13.654,10,12,10z"/></g><g><path fill="#F0B" d="M61,34.122C61,39.16,56.971,53,52,53s-9-13.84-9-18.878S47.029,25,52,25S61,29.084,61,34.122z"/><path d="M52,54c-5.962,0-10-14.922-10-19.878C42,28.541,46.486,24,52,24s10,4.541,10,10.122C62,39.078,57.962,54,52,54z M52,26 c-4.411,0-8,3.644-8,8.122C44,39.451,48.185,52,52,52s8-12.549,8-17.878C60,29.644,56.411,26,52,26z"/></g><g><circle cx="52" cy="35" r="4" fill="#F0B"/><path d="M52,40c-2.757,0-5-2.243-5-5s2.243-5,5-5s5,2.243,5,5S54.757,40,52,40z M52,32c-1.654,0-3,1.346-3,3s1.346,3,3,3 s3-1.346,3-3S53.654,32,52,32z"/></g><polygon points="53 62 41 62 41 60 51 60 51 57 53 57"/><rect width="2" height="2" x="37" y="60"/><polygon points="35 62 18 62 18 50 32 50 32 43 23 43 23 41 34 41 34 52 20 52 20 60 35 60"/><rect width="2" height="2" x="19" y="41"/><polygon points="17 43 11 43 11 35 13 35 13 41 17 41"/><path d="M30,35c-2.206,0-4-1.794-4-4s1.794-4,4-4s4,1.794,4,4S32.206,35,30,35z M30,29c-1.103,0-2,0.897-2,2s0.897,2,2,2 s2-0.897,2-2S31.103,29,30,29z"/><path d="M30,29c-0.552,0-1-0.448-1-1v-3c0-0.552,0.448-1,1-1s1,0.448,1,1v3C31,28.552,30.552,29,30,29z"/><path d="M30,38c-0.552,0-1-0.448-1-1v-3c0-0.552,0.448-1,1-1s1,0.448,1,1v3C31,37.552,30.552,38,30,38z"/><path d="M27,32h-3c-0.552,0-1-0.448-1-1s0.448-1,1-1h3c0.552,0,1,0.448,1,1S27.552,32,27,32z"/><path d="M36,32h-3c-0.552,0-1-0.448-1-1s0.448-1,1-1h3c0.552,0,1,0.448,1,1S36.552,32,36,32z"/></g></g><g display="none"><g display="inline"><path fill="#F0B" d="M21,12.122C21,17.16,16.971,31,12,31S3,17.16,3,12.122S7.029,3,12,3S21,7.084,21,12.122z"/><circle cx="12" cy="13" r="4" fill="#F0B"/><path fill="#F0B" d="M12,18c-2.757,0-5-2.243-5-5s2.243-5,5-5s5,2.243,5,5S14.757,18,12,18z M12,10c-1.654,0-3,1.346-3,3 s1.346,3,3,3s3-1.346,3-3S13.654,10,12,10z"/><path fill="#F0B" d="M61,34.122C61,39.16,56.971,53,52,53s-9-13.84-9-18.878S47.029,25,52,25S61,29.084,61,34.122z"/><circle cx="52" cy="35" r="4" fill="#F0B"/><path fill="#F0B" d="M52,40c-2.757,0-5-2.243-5-5s2.243-5,5-5s5,2.243,5,5S54.757,40,52,40z M52,32c-1.654,0-3,1.346-3,3 s1.346,3,3,3s3-1.346,3-3S53.654,32,52,32z"/><polygon fill="#F0B" points="53 62 41 62 41 60 51 60 51 57 53 57"/><rect width="2" height="2" x="37" y="60" fill="#F0B"/><polygon fill="#F0B" points="35 62 18 62 18 50 32 50 32 43 23 43 23 41 34 41 34 52 20 52 20 60 35 60"/><rect width="2" height="2" x="19" y="41" fill="#F0B"/><polygon fill="#F0B" points="17 43 11 43 11 35 13 35 13 41 17 41"/><path fill="#F0B" d="M30,35c-2.206,0-4-1.794-4-4s1.794-4,4-4s4,1.794,4,4S32.206,35,30,35z M30,29c-1.103,0-2,0.897-2,2 s0.897,2,2,2s2-0.897,2-2S31.103,29,30,29z"/><path fill="#F0B" d="M30,29c-0.552,0-1-0.448-1-1v-3c0-0.552,0.448-1,1-1s1,0.448,1,1v3C31,28.552,30.552,29,30,29z"/><path fill="#F0B" d="M30,38c-0.552,0-1-0.448-1-1v-3c0-0.552,0.448-1,1-1s1,0.448,1,1v3C31,37.552,30.552,38,30,38z"/><path fill="#F0B" d="M27,32h-3c-0.552,0-1-0.448-1-1s0.448-1,1-1h3c0.552,0,1,0.448,1,1S27.552,32,27,32z"/><path fill="#F0B" d="M36,32h-3c-0.552,0-1-0.448-1-1s0.448-1,1-1h3c0.552,0,1,0.448,1,1S36.552,32,36,32z"/></g></g><g><g><g><path d="M12,32C6.038,32,2,17.078,2,12.122C2,6.541,6.486,2,12,2s10,4.541,10,10.122C22,17.078,17.962,32,12,32z M12,4 c-4.411,0-8,3.644-8,8.122C4,17.451,8.185,30,12,30s8-12.549,8-17.878C20,7.644,16.411,4,12,4z"/><path d="M12,18c-2.757,0-5-2.243-5-5s2.243-5,5-5s5,2.243,5,5S14.757,18,12,18z M12,10c-1.654,0-3,1.346-3,3s1.346,3,3,3 s3-1.346,3-3S13.654,10,12,10z"/></g><g><path d="M52,54c-5.962,0-10-14.922-10-19.878C42,28.541,46.486,24,52,24s10,4.541,10,10.122C62,39.078,57.962,54,52,54z M52,26 c-4.411,0-8,3.644-8,8.122C44,39.451,48.185,52,52,52s8-12.549,8-17.878C60,29.644,56.411,26,52,26z"/><path d="M52,40c-2.757,0-5-2.243-5-5s2.243-5,5-5s5,2.243,5,5S54.757,40,52,40z M52,32c-1.654,0-3,1.346-3,3s1.346,3,3,3 s3-1.346,3-3S53.654,32,52,32z"/></g><polygon points="53 62 41 62 41 60 51 60 51 57 53 57"/><rect width="2" height="2" x="37" y="60"/><polygon points="35 62 18 62 18 50 32 50 32 43 23 43 23 41 34 41 34 52 20 52 20 60 35 60"/><rect width="2" height="2" x="19" y="41"/><polygon points="17 43 11 43 11 35 13 35 13 41 17 41"/><path d="M30,35c-2.206,0-4-1.794-4-4s1.794-4,4-4s4,1.794,4,4S32.206,35,30,35z M30,29c-1.103,0-2,0.897-2,2s0.897,2,2,2 s2-0.897,2-2S31.103,29,30,29z"/><path d="M30,29c-0.552,0-1-0.448-1-1v-3c0-0.552,0.448-1,1-1s1,0.448,1,1v3C31,28.552,30.552,29,30,29z"/><path d="M30,38c-0.552,0-1-0.448-1-1v-3c0-0.552,0.448-1,1-1s1,0.448,1,1v3C31,37.552,30.552,38,30,38z"/><path d="M27,32h-3c-0.552,0-1-0.448-1-1s0.448-1,1-1h3c0.552,0,1,0.448,1,1S27.552,32,27,32z"/><path d="M36,32h-3c-0.552,0-1-0.448-1-1s0.448-1,1-1h3c0.552,0,1,0.448,1,1S36.552,32,36,32z"/></g></g><g display="none"><g display="inline"><g><path fill="none" stroke="#F0B" stroke-miterlimit="10" stroke-width="2" d="M21,12.122C21,17.16,16.971,31,12,31 S3,17.16,3,12.122S7.029,3,12,3S21,7.084,21,12.122z"/><circle cx="12" cy="13" r="4" fill="none" stroke="#F0B" stroke-miterlimit="10" stroke-width="2"/></g><g><path fill="none" stroke="#F0B" stroke-miterlimit="10" stroke-width="2" d="M61,34.122C61,39.16,56.971,53,52,53 s-9-13.84-9-18.878S47.029,25,52,25S61,29.084,61,34.122z"/><circle cx="52" cy="35" r="4" fill="none" stroke="#F0B" stroke-miterlimit="10" stroke-width="2"/></g><polyline fill="none" stroke="#F0B" stroke-miterlimit="10" stroke-width="2" points="41 61 52 61 52 57"/><line x1="37" x2="39" y1="61" y2="61" fill="none" stroke="#F0B" stroke-miterlimit="10" stroke-width="2"/><polyline fill="none" stroke="#F0B" stroke-miterlimit="10" stroke-width="2" points="23 42 33 42 33 51 19 51 19 61 35 61"/><line x1="19" x2="21" y1="42" y2="42" fill="none" stroke="#F0B" stroke-miterlimit="10" stroke-width="2"/><polyline fill="none" stroke="#F0B" stroke-miterlimit="10" stroke-width="2" points="12 35 12 42 17 42"/><circle cx="30" cy="31" r="3" fill="none" stroke="#F0B" stroke-miterlimit="10" stroke-width="2"/><line x1="30" x2="30" y1="25" y2="28" fill="none" stroke="#F0B" stroke-linecap="round" stroke-miterlimit="10" stroke-width="2"/><line x1="30" x2="30" y1="34" y2="37" fill="none" stroke="#F0B" stroke-linecap="round" stroke-miterlimit="10" stroke-width="2"/><line x1="24" x2="27" y1="31" y2="31" fill="none" stroke="#F0B" stroke-linecap="round" stroke-miterlimit="10" stroke-width="2"/><line x1="33" x2="36" y1="31" y2="31" fill="none" stroke="#F0B" stroke-linecap="round" stroke-miterlimit="10" stroke-width="2"/></g></g></svg>