<svg id="_x31__x2C_5" enable-background="new 0 0 24 24" height="512" viewBox="0 0 24 24" width="512"
     fill="#eee"
     xmlns="http://www.w3.org/2000/svg">
    <g>
        <path d="m12.25 17h-.5c-.965 0-1.75-.785-1.75-1.75v-3.5c0-.965.785-1.75 1.75-1.75h.5c.965 0 1.75.785 1.75 1.75v3.5c0 .965-.785 1.75-1.75 1.75zm-.5-5.5c-.138 0-.25.112-.25.25v3.5c0 .138.112.25.25.25h.5c.138 0 .25-.112.25-.25v-3.5c0-.138-.112-.25-.25-.25z"/>
    </g>
    <g>
        <path d="m19.25 17h-2.5c-.414 0-.75-.336-.75-.75v-1.25c0-1.24 1.009-2.25 2.25-2.25.138 0 .25-.112.25-.25v-.75c0-.138-.112-.25-.25-.25h-1.5c-.414 0-.75-.336-.75-.75s.336-.75.75-.75h1.5c.965 0 1.75.785 1.75 1.75v.75c0 .965-.785 1.75-1.75 1.75-.414 0-.75.337-.75.75v.5h1.75c.414 0 .75.336.75.75s-.336.75-.75.75z"/>
    </g>
    <g>
        <path d="m5.75 17h-1c-.414 0-.75-.336-.75-.75s.336-.75.75-.75h1c.414 0 .75-.337.75-.75s-.336-.75-.75-.75h-1c-.414 0-.75-.336-.75-.75v-2.5c0-.414.336-.75.75-.75h2.5c.414 0 .75.336.75.75s-.336.75-.75.75h-1.75v1h.25c1.241 0 2.25 1.01 2.25 2.25s-1.009 2.25-2.25 2.25z"/>
    </g>
    <g>
        <path d="m21.25 23h-18.5c-1.517 0-2.75-1.233-2.75-2.75v-16.5c0-1.517 1.233-2.75 2.75-2.75h18.5c1.517 0 2.75 1.233 2.75 2.75v16.5c0 1.517-1.233 2.75-2.75 2.75zm-18.5-20.5c-.689 0-1.25.561-1.25 1.25v16.5c0 .689.561 1.25 1.25 1.25h18.5c.689 0 1.25-.561 1.25-1.25v-16.5c0-.689-.561-1.25-1.25-1.25z"/>
    </g>
    <g>
        <path d="m23.25 6h-22.5c-.414 0-.75-.336-.75-.75s.336-.75.75-.75h22.5c.414 0 .75.336.75.75s-.336.75-.75.75z"/>
    </g>
</svg>
