<svg height='300px' width='300px' fill="#4D4D4D" xmlns="http://www.w3.org/2000/svg" xml:space="preserve" version="1.1"
     style="shape-rendering:geometricPrecision;text-rendering:geometricPrecision;image-rendering:optimizeQuality;"
     viewBox="0 0 333.33 333.33" x="0px" y="0px" fill-rule="evenodd" clip-rule="evenodd"><defs><style type="text/css">

    .fil0 {fill:#004169}

  </style></defs>
    <g><path class="fil0" d="M246.93 161.57c21.59,0 43.19,0 64.78,0l10.39 0 0 129.82 -310.86 0 0 -129.82c25.1,0 49.74,0 74.84,0l0.33 -119.64c121.47,0 39.05,0 160.52,0l0 119.64zm-225.3 10.39l54.08 0 0 54.13 15.8 -9.61 15.79 9.61 0 -54.13 54.08 0 0 109.04 -139.75 0 0 -109.04zm150.34 0c94.44,0 45.31,0 139.75,0l0 109.04 -139.75 0 0 -109.04zm20.51 53.67l14.26 -14.26 23.98 23.96 46.22 -46.22 14.26 14.28 -60.48 60.48 -38.24 -38.24zm-95.68 -173.3l54.08 0 0 54.13 15.8 -9.61 15.79 9.61 0 -54.13 54.08 0 0 109.04 -139.75 0 0 -109.04z"></path></g></svg>
