<svg height='300px' width='300px' fill="#000000" xmlns="http://www.w3.org/2000/svg" version="1.1" x="0px" y="0px"
     viewBox="0 0 32 32" enable-background="new 0 0 32 32" xml:space="preserve"><g><rect fill="none" width="32" height="32"></rect></g>
    <g><path d="M21.16,3.77l-1.85,0.76v0.01l-9.5,3.93c-0.95,0.39-1.39,1.5-1.08,2.61c0.03,0.11,0.07,0.21,0.11,0.32l0.63,1.54l0.77,1.85   l0.64,1.54c0.04,0.1,0.09,0.2,0.15,0.29c0.22,0.4,0.54,0.73,0.91,0.95c0.32,0.18,0.67,0.27,1.01,0.27c0.24,0,0.47-0.04,0.69-0.13   L15,17.15l2-0.83l6.14-2.54v-0.01l1.85-0.76L21.16,3.77z"></path>
        <path d="M8.99,17.79l-0.11-0.28L6.7,12.24c-0.04-0.09-0.08-0.18-0.14-0.26c-0.5-0.84-1.55-1.2-2.48-0.82l-1.85,0.77   c-1.01,0.42-1.5,1.59-1.08,2.61l2.3,5.54c0.32,0.77,1.06,1.24,1.85,1.24c0.25,0,0.51-0.05,0.76-0.15l1.85-0.77   c0.49-0.2,0.88-0.59,1.08-1.08C9.2,18.82,9.2,18.28,8.99,17.79z"></path>
        <g><path d="M11.36,12.26l-0.69-1.67l-0.11-0.26l-1.83,0.75l-2.17,0.9l-1.62,0.67l2.3,5.54l1.64-0.68l2.15-0.89l1.82-0.75L11.36,12.26    z M8.32,15.58l-0.77-1.85l1.92-0.79l0.77,1.85L8.32,15.58z"></path></g>
        <path d="M28.3,10.55l-3.06-7.39l-0.89-2.14c-0.23-0.02-0.47-0.01-0.7,0c-0.01,0-0.01,0-0.02,0c-0.46,0.02-0.91,0.09-1.36,0.21   c-0.32,0.07-0.64,0.18-0.95,0.31L20.4,1.92c-1.02,0.42-1.51,1.6-1.09,2.61v0.01l0.77,1.84l2.3,5.55l0.76,1.84v0.01   c0.21,0.5,0.59,0.87,1.08,1.07c0.25,0.11,0.51,0.16,0.77,0.16s0.52-0.05,0.76-0.16l0.93-0.38c0.31-0.13,0.61-0.28,0.89-0.45   c0.35-0.21,0.69-0.45,0.99-0.71l0.11-0.1c0.01-0.01,0.01-0.01,0.02-0.01c0.18-0.17,0.35-0.34,0.5-0.51L28.3,10.55z"></path>
        <g><path d="M30.47,5.33c-1.05-2.53-3.46-4.2-6.12-4.31c-0.23-0.02-0.47-0.01-0.7,0c-0.01,0-0.01,0-0.02,0    c-0.46,0.02-0.91,0.09-1.36,0.21l0.78,1.87l3.75,9.05l0.77,1.87c0.35-0.21,0.69-0.45,0.99-0.71l0.11-0.1    c0.01-0.01,0.01-0.01,0.02-0.01c0.18-0.17,0.35-0.34,0.5-0.51C30.37,11.39,31,9.71,31,8C31,7.1,30.83,6.19,30.47,5.33z     M25.24,3.16c1.49,0.38,2.76,1.45,3.38,2.93c0.61,1.48,0.47,3.14-0.32,4.46L25.24,3.16z"></path></g>
        <g><path d="M16,31.009c-0.552,0-1-0.448-1-1v-14c0-0.552,0.448-1,1-1s1,0.448,1,1v14C17,30.562,16.552,31.009,16,31.009z"></path></g>
        <g><path d="M9,31.009c-0.215,0-0.431-0.069-0.613-0.21c-0.436-0.339-0.515-0.968-0.176-1.403l7-9    c0.339-0.436,0.969-0.515,1.403-0.176c0.436,0.339,0.515,0.968,0.176,1.403l-7,9C9.592,30.876,9.297,31.009,9,31.009z"></path></g>
        <g><path d="M23,31.009c-0.298,0-0.593-0.133-0.79-0.386l-7-9c-0.339-0.436-0.26-1.064,0.176-1.403    c0.434-0.339,1.063-0.26,1.403,0.176l7,9c0.339,0.436,0.26,1.064-0.176,1.403C23.432,30.94,23.215,31.009,23,31.009z"></path></g></g></svg>
