<svg width="664" height="540" viewBox="0 0 664 540" fill="none" xmlns="http://www.w3.org/2000/svg">
    <path fill-rule="evenodd" clip-rule="evenodd"
          d="M348.62 2.54499C399.59 4.18815 449.351 1.81609 496.772 20.5741C557.349 44.5357 632.948 63.7266 656.67 124.397C680.409 185.114 636.498 249.894 609.663 309.307C585.747 362.256 557.027 412.511 510.699 447.573C463.676 483.16 406.593 496.065 348.62 506.868C277.036 520.207 190.104 565.924 135.78 517.437C80.0995 467.739 140.026 370.74 116.682 299.85C93.1687 228.447 -17.024 184.608 2.25089 111.947C21.195 40.5325 122.907 33.0458 193.36 10.7928C244.019 -5.20814 295.521 0.833217 348.62 2.54499Z"
          fill="#F06F14" fill-opacity="0.492018"/>
</svg>
