<svg width="64" height="35" viewBox="0 0 64 35" fill="none" xmlns="http://www.w3.org/2000/svg">
    <path d="M36.2092 6.55006L40.0092 3.05006C41.2092 1.95006 43.0092 2.00006 44.1592 3.15006L44.8592 3.85006C46.6592 5.65006 46.6592 8.55006 44.8592 10.3501L43.7592 11.4501L36.2092 6.55006Z"
          fill="white"/>
    <path d="M58.9091 24.35C59.9591 22.6 60.3591 20.55 60.1091 18.55L59.0591 11.1C59.0091 10.6 58.8091 10.1 58.5591 9.64999C57.5591 7.84999 54.9591 7.89999 54.0091 9.69999C52.1591 13.25 47.4091 14.05 44.4591 11.25L40.3591 7.34999C39.1591 6.19999 37.3591 5.99999 35.9591 6.74999L27.0091 13.9L17.3091 16.95C15.5091 17.9 13.5591 18.55 11.5591 18.8L6.35913 19.45C3.65913 19.8 1.60913 22.1 1.60913 24.8C1.60913 26.1 1.95913 27.4 2.60913 28.45C4.15913 30.9 7.50913 32.95 22.1091 32.95C50.2091 32.95 57.2091 32.95 61.5591 29.7L58.9091 24.35Z"
          fill="#FCCA3D"/>
    <path d="M58.9091 24.35C59.9591 22.6 60.3591 20.55 60.1091 18.55L59.0591 11.1C59.0091 10.6 58.8091 10.1 58.5591 9.64997C57.5591 7.84997 54.9591 7.89997 54.0091 9.69996C52.3591 12.9 48.3591 13.85 45.4591 12.05C44.5591 12.6 44.0091 12.9 43.6091 12.55C42.9591 11.95 41.7591 11.85 41.1091 12.45C40.4091 13.1 40.4091 14.2 41.0591 14.8C42.0591 15.75 43.2091 16.5 44.4591 17C45.8591 17.55 46.3091 19.3 45.4091 20.55C45.0091 21.05 44.4091 21.4 43.8091 21.45C40.8591 21.8 38.2591 22.35 35.8091 22.9C34.9591 23.1 34.3591 23.9 34.5091 24.8C34.6591 25.7 35.5591 26.3 36.4591 26.1C39.8591 25.3 43.5091 24.55 48.0091 24.4H48.0591C48.0591 24.4 48.0591 24.4 48.1091 24.4C48.1591 24.4 48.4091 24.4 50.4591 24.4H56.2091C56.9591 24.4 58.7091 25.15 59.0591 24.7L58.9091 24.35Z"
          fill="#FF6144"/>
    <path d="M36.2092 6.6499C36.1092 6.6999 36.0592 6.6999 35.9592 6.7499L17.4592 16.8499L17.9092 17.0499C25.9592 20.8499 35.3592 15.4999 36.2092 6.6499Z"
          fill="white"/>
    <path d="M16.209 20.1999C16.209 18.8999 15.009 17.9999 13.759 18.3499C13.059 18.5499 12.309 18.6999 11.559 18.7999L6.35905 19.4499C3.60905 19.7999 1.55905 22.1499 1.60905 24.8999H11.509C14.159 24.8999 16.209 22.7999 16.209 20.1999Z"
          fill="#FF6144"/>
    <path d="M58.9091 24.3499C58.9091 24.3499 48.2591 24.3499 48.1091 24.3499C36.7591 24.7499 31.5091 28.6499 18.4091 28.6499C7.60913 28.6499 3.70913 28.6499 2.35913 27.8999C3.80913 30.5999 6.45913 32.9999 22.2091 32.9999C50.3091 32.9999 57.3091 32.9999 61.6591 29.7499L58.9091 24.3499Z"
          fill="white"/>
    <path opacity="0.5"
          d="M1.65912 24.8999C1.65912 26.4499 1.40912 27.3499 2.35912 27.8999C2.10912 27.4499 1.85912 26.9999 1.65912 26.4999V24.8999Z"
          fill="#1FD4AF"/>
    <path d="M22.1591 34.5C7.60913 34.5 3.40913 32.5 1.35913 29.25C0.559129 27.95 0.109131 26.45 0.109131 24.8C0.109131 21.3 2.70913 18.35 6.15913 17.95L11.8091 17.25C13.5091 17.05 15.0591 16.4 16.5591 15.6C17.2591 15.25 18.1091 15.5 18.5591 16.15C19.0091 16.9 18.6591 17.9 17.8591 18.3C15.9591 19.35 13.8591 20 11.7091 20.25L6.50913 20.9C4.60913 21.15 3.15913 22.7 3.10913 24.6C3.05913 25.75 3.35913 26.8 3.90913 27.65C5.15913 29.65 8.25913 31.5 22.1591 31.5C46.3091 31.5 54.8091 31.5 59.2091 29.45C59.4591 29.35 59.5591 29 59.4591 28.75L57.5591 25C57.3091 24.55 57.3591 24 57.6091 23.55C58.4591 22.1 58.8091 20.4 58.5591 18.75L57.5091 11.3C57.4591 10.95 57.3591 10.65 57.2091 10.35C56.9091 9.84996 56.4591 9.79996 56.2591 9.79996C56.0591 9.79996 55.6091 9.84996 55.3091 10.4C54.2091 12.5 52.2091 13.95 49.8591 14.35C47.5091 14.75 45.1591 14 43.4091 12.35L39.3091 8.44997C38.5591 7.74997 37.5091 7.64997 36.6091 8.09996C35.9591 8.39996 35.2091 8.24997 34.7591 7.69997C34.2591 7.04996 34.4091 6.14997 35.0091 5.59996L35.2091 5.39997L39.0591 1.89997C40.8591 0.299965 43.5591 0.349963 45.2591 2.04997L45.8591 2.64997C46.4091 3.19997 46.5091 4.14997 45.9591 4.74997C45.3591 5.39996 44.4091 5.39996 43.7591 4.79996L43.1091 4.19997C42.5591 3.64997 41.6091 3.59997 41.0091 4.14997L39.8091 5.24997C40.3591 5.49997 40.9091 5.84997 41.3591 6.29996L45.3091 10.1C46.3591 11.1 47.8091 11.65 49.2591 11.4C50.7091 11.2 51.9091 10.3 52.6091 8.99997C53.3091 7.64997 54.6591 6.84996 56.1591 6.79996H56.2091C57.7091 6.79996 59.0591 7.59996 59.7591 8.89996C60.1091 9.49996 60.3091 10.2 60.4091 10.9L61.4591 18.35C61.7591 20.4 61.4091 22.55 60.5091 24.4L62.8591 29.1C63.1591 29.75 63.0091 30.55 62.4091 30.95C57.7591 34.5 50.9591 34.5 22.1591 34.5L22.1591 34.5Z"
          fill="#444B54"/>
    <path d="M22.209 16.6999C21.809 16.6999 21.459 16.5499 21.159 16.2499C20.109 15.1999 19.759 13.5999 20.359 12.1999C20.959 10.7999 22.309 9.8999 23.809 9.8999C24.659 9.8999 25.309 10.5499 25.309 11.3999C25.309 12.2499 24.659 12.8999 23.809 12.8999C23.359 12.8999 23.209 13.1999 23.109 13.3499C23.009 13.4999 22.959 13.8499 23.259 14.1499C23.859 14.7499 23.859 15.6999 23.259 16.2499C22.959 16.5499 22.609 16.6999 22.209 16.6999H22.209ZM29.209 12.9499C28.809 12.9499 28.459 12.7999 28.159 12.4999C27.109 11.4499 26.759 9.8499 27.359 8.4499C27.959 7.0499 29.309 6.1499 30.809 6.1499C31.659 6.1499 32.309 6.7999 32.309 7.6499C32.309 8.4999 31.659 9.1499 30.809 9.1499C30.359 9.1499 30.209 9.4499 30.109 9.5999C30.059 9.7499 29.959 10.0999 30.259 10.3999C30.859 10.9999 30.859 11.9499 30.259 12.4999C30.009 12.7999 29.609 12.9499 29.209 12.9499H29.209Z"
          fill="#444B54"/>
</svg>
