<svg height="488pt" viewBox="0 0 488 488" width="488pt" xmlns="http://www.w3.org/2000/svg">
    <path d="m358.78125 4h-245.214844c-34.578125 0-62.609375 26.863281-62.609375 60v280h161.738281v80c0 33.136719 28.03125 60 62.609376 60h20.871093c34.578125 0 62.605469-26.863281 62.605469-60v-360c0-33.136719 28.03125-60 62.609375-60zm0 0"
          fill="#b9befc"/>
    <path d="m189.957031 333.429688-101.824219-101.824219c-3.121093-3.125-3.121093-8.191407 0-11.316407l101.824219-101.824218c3.125-3.121094 8.191407-3.121094 11.316407 0l101.824218 101.824218c3.121094 3.125 3.121094 8.191407 0 11.316407l-101.824218 101.824219c-3.125 3.121093-8.191407 3.121093-11.316407 0zm0 0"
          fill="#f9a7a7"/>
    <path d="m358.78125 144h117.21875c4.417969 0 8-3.582031 8-8v-70.710938c0-33.847656-27.441406-61.289062-61.289062-61.289062h-2.636719c-33.851563 0-61.289063 27.441406-61.289063 61.289062v78.710938zm0 0"
          fill="#f9a7a7"/>
    <path d="m476 148h-117.214844c-2.210937 0-4-1.792969-4-4v-78.707031c0-36.003907 29.285156-65.292969 65.285156-65.292969h2.636719c36.003907 0 65.292969 29.289062 65.292969 65.292969v70.707031c0 6.617188-5.382812 12-12 12zm-113.214844-8h113.214844c2.207031 0 4-1.792969 4-4v-70.707031c0-31.589844-25.703125-57.292969-57.292969-57.292969h-2.636719c-31.589843 0-57.289062 25.703125-57.289062 57.292969v74.707031zm0 0"
          fill="#3762cc"/>
    <path d="m470.621094 236.273438 7.769531-28.296876c.132813-.492187.183594-1.015624.144531-1.53125-1.699218-21.832031-4.816406-42.035156-9.058594-59.664062-7.828124-41.054688-21.378906-82.003906-44.761718-93.609375-.453125-.226563-.976563-.226563-1.429688 0-23.382812 11.605469-36.933594 52.554687-44.761718 93.609375-6.621094 27.511719-10.523438 61.261719-10.523438 97.746094 0 6.195312.117188 12.316406.335938 18.335937l.054687.949219 7.976563 29.042969c.441406 1.609375-1 3.03125-2.238282 2.207031l-1.101562-.738281c-1.113282-.742188-2.472656.359375-2.308594 1.871093 7.285156 67.21875 28.382812 115.832032 53.28125 115.832032 30.929688 0 56-74.996094 56-167.503906 0-2.5625-.023438-5.109376-.066406-7.640626-.023438-1.402343-1.292969-2.265624-2.320313-1.582031l-4.753906 3.175781c-1.238281.828126-2.679687-.59375-2.238281-2.203124zm0 0"
          fill="#e0ebfc"/>
    <path d="m424 412.027344c-1.570312 0-3.128906-.203125-4.664062-.582032v62.414063c0 2.144531 2.722656 2.785156 3.558593.835937l5.601563-13.058593c.113281-.261719.167968-.542969.167968-.835938v-49.355469c-1.535156.378907-3.09375.582032-4.664062.582032zm0 0"
          fill="#f9a7a7"/>
    <path d="m451.78125 294.355469c-2.773438-1.464844-6.132812-.238281-7.5 2.730469l-15.617188 33.949218v-137.640625c.519532-.496093.964844-1.09375 1.292969-1.800781l24.367188-52.980469c1.371093-2.972656.226562-6.570312-2.546875-8.039062-2.773438-1.464844-6.132813-.238281-7.496094 2.730469l-15.617188 33.949218v-36.003906c0-3.085938-2.089843-5.585938-4.667968-5.585938-2.574219 0-4.664063 2.5-4.664063 5.585938v125.746094l-21.839843-47.386719c-1.367188-2.972656-4.722657-4.1875-7.5-2.726563-2.773438 1.46875-3.910157 5.066407-2.539063 8.039063l30.589844 66.382813c.328125.707031.773437 1.304687 1.292969 1.800781v128.339843c1.539062.378907 3.09375.585938 4.664062.585938s3.128906-.207031 4.664062-.585938v-54.269531c.519532-.496093.964844-1.097656 1.292969-1.804687l24.367188-52.980469c1.371093-2.972656.230469-6.570313-2.542969-8.035156zm0 0"
          fill="#a4c9ff"/>
    <path d="m263.980469 204.484375v.003906c-4.683594-5.113281-10.089844-9.78125-16.214844-13.84375-15.386719-10.210937-33-15.15625-50.472656-15.257812v.042969c-18.558594-.554688-37.453125 4.347656-53.832031 15.214843-6.121094 4.0625-11.527344 8.730469-16.214844 13.84375v-.003906s-10.339844 10.730469-18.007813 23.382813l21.128907 21.242187c1.277343 1.328125 2.59375 2.601563 3.941406 3.835937.011718.011719.023437.023438.035156.035157v-.007813c17.160156 15.671875 39.949219 23.804688 62.949219 23.53125v-.023437c21.84375-.515625 43.261719-8.601563 59.585937-23.507813v.007813c.011719-.011719.019532-.023438.03125-.035157 1.351563-1.234374 2.667969-2.507812 3.945313-3.835937l21.128906-21.242187c-7.664063-12.652344-18.003906-23.382813-18.003906-23.382813zm0 0"
          fill="#e0ebfc"/>
    <path d="m424 416.03125c-26.925781 0-49.398438-46.871094-57.257812-119.402344-.25-2.332031.832031-4.589844 2.753906-5.757812.625-.375 1.292968-.617188 1.976562-.71875l-6.9375-25.277344c-.074218-.269531-.121094-.542969-.136718-.820312l-.054688-.953126c-.230469-6.222656-.34375-12.445312-.34375-18.578124 0-35.644532 3.675781-69.769532 10.632812-98.675782 10.183594-53.4375 25.964844-85.886718 46.875-96.261718 1.585938-.785157 3.402344-.785157 4.984376 0 20.90625 10.375 36.691406 42.824218 46.914062 96.445312 4.339844 18.019531 7.421875 38.300781 9.117188 60.105469.078124.972656-.015626 1.953125-.277344 2.898437l-6.191406 22.566406c1.511718-.726562 3.296874-.710937 4.804687.082032 1.863281.972656 3.039063 2.945312 3.074219 5.140625.039062 2.550781.0625 5.117187.0625 7.699219.003906 96.171874-26.351563 171.507812-59.996094 171.507812zm-48.90625-116.734375c7.488281 64.207031 27.429688 108.730469 48.90625 108.730469 25.113281 0 52-65.703125 52-163.503906 0-1.113282-.003906-2.21875-.015625-3.324219l-.90625.605469c-1.875 1.257812-4.277344 1.21875-6.117187-.109376-1.984376-1.433593-2.867188-4.039062-2.195313-6.480468l7.765625-28.300782c-1.648438-21.539062-4.660156-41.402343-8.941406-59.199218-9.449219-49.519532-23.796875-80.664063-41.589844-90.410156-17.792969 9.746093-32.140625 40.886718-41.546875 90.226562-6.851563 28.492188-10.453125 61.964844-10.453125 96.992188 0 6.039062.113281 12.160156.335938 18.195312l.023437.4375 7.863281 28.644531c.671875 2.4375-.207031 5.042969-2.191406 6.476563-.890625.640625-1.90625.984375-2.9375 1.019531zm95.53125-63.023437h.019531zm0 0"
          fill="#3762cc"/>
    <path d="m421.226562 479.863281c-.386718 0-.785156-.039062-1.179687-.121093-2.773437-.566407-4.710937-2.988282-4.710937-5.882813v-62.414063c0-1.226562.5625-2.390624 1.53125-3.148437.96875-.753906 2.230468-1.019531 3.425781-.734375 2.519531.621094 4.898437.621094 7.417969 0 1.195312-.285156 2.457031-.019531 3.421874.734375.96875.757813 1.535157 1.921875 1.535157 3.148437v49.359376c0 .84375-.167969 1.660156-.5 2.425781l-5.59375 13.042969c-.953125 2.222656-3.054688 3.589843-5.347657 3.589843zm2.109376-63.84375v47.507813l1.328124-3.105469v-44.402344c-.445312.011719-.882812.011719-1.328124 0zm1.484374 44.042969c-.003906.003906-.003906.007812-.007812.007812zm0 0"
          fill="#3762cc"/>
    <path d="m212.695312 424v-72c0-4.417969-3.582031-8-8-8h-192.695312c-4.417969 0-8 3.582031-8 8v72c0 33.136719 28.03125 60 62.609375 60h208.695313c-34.578126 0-62.609376-26.863281-62.609376-60zm0 0"
          fill="#f9a7a7"/>
    <path d="m275.304688 488h-208.695313c-36.730469 0-66.609375-28.710938-66.609375-64v-72c0-6.617188 5.382812-12 12-12h192.695312c6.617188 0 12 5.382812 12 12v72c0 30.878906 26.292969 56 58.609376 56 2.210937 0 4 1.792969 4 4s-1.789063 4-4 4zm-263.304688-140c-2.207031 0-4 1.792969-4 4v72c0 30.878906 26.292969 56 58.609375 56h176.46875c-20.484375-10.929688-34.382813-31.933594-34.382813-56v-72c0-2.207031-1.792968-4-4-4zm0 0"
          fill="#3762cc"/>
    <path d="m296.175781 488h-20.871093c-36.730469 0-66.609376-28.710938-66.609376-64v-72c0-2.207031-1.796874-4-4-4h-153.738281c-2.207031 0-4-1.792969-4-4v-280c0-35.289062 29.882813-64 66.609375-64h307.824219c2.210937 0 4 1.792969 4 4s-1.789063 4-4 4c-32.316406 0-58.605469 25.121094-58.605469 56v360c0 35.289062-29.882812 64-66.609375 64zm-241.21875-148h149.738281c6.617188 0 12 5.382812 12 12v72c0 30.878906 26.292969 56 58.609376 56h20.871093c32.316407 0 58.609375-25.121094 58.609375-56v-360c0-24.066406 13.898438-45.070312 34.386719-56h-275.605469c-32.316406 0-58.609375 25.121094-58.609375 56zm0 0"
          fill="#3762cc"/>
    <path d="m245.222656 225.949219c0 26.757812-21.691406 48.449219-48.449218 48.449219-26.757813 0-48.449219-21.691407-48.449219-48.449219 0-26.757813 21.691406-48.453125 48.449219-48.453125 26.757812 0 48.449218 21.695312 48.449218 48.453125zm0 0"
          fill="#4671c6"/>
    <path d="m209.867188 229.949219c-8.8125-2.992188-13.527344-12.558594-10.539063-21.371094 2.992187-8.8125 12.5625-13.53125 21.375-10.539063 8.8125 2.992188 13.527344 12.5625 10.535156 21.371094-2.992187 8.8125-12.558593 13.53125-21.371093 10.539063zm0 0"
          fill="#a4c9ff"/>
    <path d="m267.613281 305.949219c4.417969 0 8-3.582031 8-8v-38.863281l-46.859375 46.863281zm0 0" fill="#ffea92"/>
    <path d="m123.613281 145.949219c-4.417969 0-8 3.582031-8 8v38.863281l46.863281-46.863281zm0 0" fill="#ffea92"/>
    <path d="m115.613281 297.949219c0 4.417969 3.582031 8 8 8h38.863281l-46.863281-46.863281zm0 0" fill="#ffea92"/>
    <path d="m275.613281 153.949219c0-4.417969-3.582031-8-8-8h-38.859375l46.859375 46.863281zm0 0" fill="#ffea92"/>
    <g fill="#f9a7a7">
        <path d="m201.273438 118.46875c-3.125-3.125-8.191407-3.125-11.316407 0l-27.480469 27.480469h66.277344zm0 0"/>
        <path d="m303.09375 220.292969-27.480469-27.480469v66.273438l27.480469-27.480469c3.125-3.125 3.125-8.191407 0-11.3125zm0 0"/>
        <path d="m189.957031 333.429688c3.125 3.121093 8.191407 3.121093 11.316407 0l27.480468-27.480469h-66.277344zm0 0"/>
        <path d="m88.132812 220.292969c-3.121093 3.121093-3.121093 8.1875 0 11.3125l27.480469 27.480469v-66.273438zm0 0"/>
    </g>
</svg>
