<svg height='300px' width='300px' fill="#000000" xmlns="http://www.w3.org/2000/svg"
     version="1.1" x="0px" y="0px" viewBox="0 0 48 48"
     style="enable-background:new 0 0 48 48;" xml:space="preserve"><path d="M44.7,23.8c-11.2-2.4-9-1.7-11.8-3c0.3-0.4,0.2-1-0.3-1.3c-0.4-0.3-1.1-0.2-1.4,0.2L31.1,20c-0.6-0.3-1.1-0.5-1.7-0.8  l0.1-0.1c0.3-0.4,0.2-1.1-0.2-1.4c-0.4-0.3-1.1-0.2-1.4,0.2l-0.2,0.3c-0.6-0.3-1.1-0.6-1.6-0.9c0.4-0.6,0.3-1.2-0.1-1.5  c-0.5-0.3-1-0.3-1.6,0.4c-0.5-0.3-1.3-0.8-1.6-1.3c-0.7-1.2-1.8-2.7-3.1-2.8c-1.4-0.1-2.7,1.6-2.2,3.3l0.3,1  c-2.3,1.3-7.9,4.1-9.3,1.8C8.2,18,8.1,17.8,8,17.6c-0.7-1.2-1.2-2-3.4-2.4c-0.9-0.2-1.8,0.5-1.9,1.3C2.3,18.8,1,26,0.8,28  c-1.7,3-0.6,5.7,1.6,6.1c13.1,2.6,30.8,1.9,37.4,0.4c0.8-0.2,7.6-2.2,8.1-6.2c0,0,0,0,0,0C48.2,26.2,47.1,24.3,44.7,23.8z   M18.6,18.2c0.8-0.5,1.2-1.4,1-2.3c-0.1-0.5-0.5-1.2-0.2-1.6c0.1-0.1,0.1-0.1,0.1-0.1c0.2,0.1,0.8,0.6,1.4,1.8  c0.5,0.8,1.1,1.2,2.1,1.9l-0.9,1.2c-0.3,0.4-0.2,1.1,0.2,1.4c0.4,0.3,1.1,0.2,1.4-0.2l1-1.4c0.5,0.3,1.1,0.6,1.6,0.9L25.6,21  c-0.3,0.4-0.2,1.1,0.2,1.4c0.4,0.3,1.1,0.2,1.4-0.2l1-1.4c0.6,0.3,1.2,0.6,1.7,0.8l-0.8,1.2c-0.3,0.4-0.2,1.1,0.2,1.4  c0.4,0.3,1.1,0.2,1.4-0.2l1.1-1.5c3.6,1.6,1.3,0.9,12.6,3.3c1.3,0.3,1.6,1.1,1.7,1.7c-5.9,3-17.8,2.5-27.3,1.9l1.5-4.2  c0.1-0.3,0.1-0.6-0.1-0.9l-3.2-5C17.5,18.9,18.1,18.5,18.6,18.2z M4.6,17.2c1,0.2,1.2,0.6,1.6,1.4c0.6,1.1,1.9,4.4,8.8,1.5l3.1,4.9  l-1.5,4.3c-4.5-0.3-2,0-13.7-1.7C3.1,25.7,3.9,21.2,4.6,17.2z M39.3,32.5c-6.3,1.5-23.7,2.1-36.5-0.4c-1.1-0.2-0.9-1.7-0.5-2.7  c10.9,1.6,31.8,3.9,41.9,0.8C42.7,31.4,40.4,32.3,39.3,32.5z"></path></svg>
