<svg width="1728" height="2500" viewBox="0 0 1728 2500" fill="none" xmlns="http://www.w3.org/2000/svg">
    <path fill-rule="evenodd" clip-rule="evenodd"
          d="M822.162 1466.32C824.401 1489.68 819.823 1511.99 808.918 1530.84L805.37 1536.98L812.123 1539.34C824.413 1543.64 838.08 1545.73 853.906 1545.73C870.193 1545.73 887.13 1543.46 900.739 1541.64L909.452 1540.47L905.172 1532.9C901.73 1526.82 901.093 1519.45 900.418 1511.65C900.236 1509.55 900.049 1507.38 899.803 1505.24C886.908 1389.98 870.608 1273.21 854.845 1160.29C850.696 1130.58 846.407 1099.85 842.246 1069.63L830.31 1070.09C827.099 1126.03 823.983 1182.92 820.97 1237.94C819.645 1262.13 818.319 1286.32 816.983 1310.51C812.22 1371.67 813.865 1421.19 822.162 1466.32M827.033 2157.49C809.504 2157.49 791.941 2155.66 774.834 2152.06C721.301 2140.83 672.666 2114.32 631.282 2090.35C629.169 2089.15 627.025 2087.95 624.824 2086.72C608.622 2077.65 588.459 2066.38 575.823 2052.62C561.961 2037.52 559.575 2022.48 568.316 2005.28L569.699 2002.56L568.254 1999.87C559.203 1983.03 559.876 1962.18 569.89 1949.19L578.306 1938.27L564.469 1939.74C550.517 1941.22 536.455 1943.22 522.855 1945.16C507.766 1947.32 492.161 1949.54 476.793 1951.03L472.522 1951.45L471.54 1955.56C470.993 1957.85 470.318 1959.24 465.577 1959.24C461.466 1959.24 455.941 1958.04 450.094 1956.76C442.837 1955.18 434.611 1953.39 426.679 1953.39C423.19 1953.39 420.052 1953.72 417.084 1954.41L415.357 1954.81L414.128 1956.07C413.342 1956.87 412.004 1957.37 410.637 1957.37C409.603 1957.37 408.644 1957.08 408.003 1956.58L406.065 1955.07L403.606 1955.34C360.763 1960.04 323.82 1968.3 290.67 1980.57L290.52 1980.63L289.801 1980.94C277.814 1986.11 265.421 1991.46 254.134 1991.46C245.883 1991.46 239.183 1988.65 233.047 1982.63L231.313 1980.93L228.867 1980.9C204.049 1980.67 192.709 1951.73 191.141 1932.34L190.944 1929.9L189.052 1928.31C145.8 1892.01 120.266 1842.16 110.988 1775.91C102.538 1715.56 109.026 1651.93 116.487 1597.65C133.746 1456.97 151.747 1330.86 197.505 1211.25L199.643 1205.66L193.946 1203.61C174.183 1196.51 159.079 1188.04 147.77 1177.71L146.987 1176.99L146.001 1176.59C129.793 1169.93 121.855 1145.35 119.808 1137.98L119.644 1137.38L119.358 1136.83C116.051 1130.49 115.288 1121.67 117.266 1112.62L117.478 1111.65L117.355 1110.66C116.287 1102.07 119.832 1093.1 123.585 1083.59C125.3 1079.25 127.072 1074.76 128.367 1070.29C132.819 1057.52 137.266 1044.52 141.568 1031.94C151.22 1003.73 161.199 974.563 171.83 946.186L173.284 942.306L170.081 939.631C164.613 935.064 166.439 929.687 174.324 916.832C176.187 913.796 177.949 910.923 179.289 908.093C189.396 890.628 200.228 873.863 211.49 858.257L211.722 857.937L211.907 857.59C269.696 749.662 372.203 690.224 500.544 690.224L503.16 690.229L504.606 689.359C528.66 674.894 545.831 650.075 557.1 613.485L557.46 612.318L557.321 611.107C556.935 607.734 556.512 603.313 556.657 599.022C557.024 588.156 561.283 578.46 568.341 572.419C581.732 560.957 602.061 559.997 621.736 559.997L624.561 560.002C649.716 560.074 667.475 564.442 680.451 573.749C695.527 584.562 703.859 602.018 705.924 627.113C706.541 634.622 706.52 642.401 706.501 649.924L706.496 652.024L706.749 652.857C708.557 658.822 710.675 664.553 713.043 669.892L715.479 675.386L721.019 672.909C724.602 671.308 729.144 670.484 734.908 670.392C736.57 670.353 738.191 670.336 739.826 670.336C753.209 670.336 767.525 671.557 781.371 672.739C791.803 673.629 802.591 674.55 813.033 674.959L813.176 674.965C813.176 674.965 814.618 674.956 815.265 674.956C840.644 674.956 859.042 678.947 873.163 687.518C888.368 696.744 899.301 711.552 907.568 734.12C951.91 863.48 970.14 1002.82 986.22 1125.75C995.341 1190.03 998.115 1255.94 1000.8 1319.67C1003.63 1386.94 1006.56 1456.5 1016.93 1524.5L1017.75 1529.88L1023.25 1529.52C1047.48 1527.96 1073.67 1524.59 1101.39 1521.02C1143.51 1515.61 1187.06 1510 1229.17 1510C1288.04 1510 1332.67 1521.59 1365.61 1545.41C1388.56 1567.05 1400.44 1596.34 1399.95 1630.14C1399.26 1677.9 1374 1730.71 1335.59 1764.67L1335.45 1764.8C1286.9 1810.66 1198.28 1850.44 1072.06 1883.03C955.992 1913 835.932 1929.28 774.695 1936.32L759.539 1938.07L771.841 1946.96C776.82 1950.56 781.363 1953.73 785.73 1956.65L788.547 1958.54L791.633 1957.12C800.433 1953.09 806.022 1952.24 809.163 1952.24C811.95 1952.24 815.312 1952.84 815.497 1955.73C815.618 1957.62 814.274 1960.42 811.437 1960.77L796.373 1962.65L808.673 1971.43C816.889 1977.29 829.147 1984.35 843.342 1992.53C889.781 2019.28 959.961 2059.72 947.891 2095.23L947.099 2097.56L948.221 2099.76C951.464 2106.12 951.741 2112.02 949.065 2117.8C943.335 2130.2 925.41 2139.6 910.187 2143.43L909.926 2143.49L909.671 2143.58C883.183 2152.81 855.379 2157.49 827.033 2157.49"
          fill="#D08B5B"/>
    <path fill-rule="evenodd" clip-rule="evenodd"
          d="M707.456 1890.82C707.926 1890.09 708.346 1889.07 708.575 1888.16C711.787 1892.73 763.178 1937.77 814 1976C861.204 2011.51 915.345 2038.33 936.364 2067.93C944.352 2079.18 948.412 2112.15 946.876 2117.69C943.442 2122.05 905.655 2141.6 905.655 2141.6C897.116 2143.91 828.586 2162.49 798.145 2156.17C786.946 2154.46 706.2 2128.62 696 2124L609.231 2073.65C607.335 2072.82 605.449 2071.99 603.575 2071.17L601.038 2070.16C581.687 2062.41 557 2046 562.055 2022.34C568 1998 557.334 1992.68 559.776 1976.64C561.89 1962.76 566.503 1948.63 573.876 1935.16C602.356 1967.19 638.506 1964.39 656.716 1924.58L657.133 1923.77L657.544 1922.95C663.498 1911.07 669.127 1895.98 683.226 1891.31C691.006 1886.05 700.956 1884.96 707.456 1890.82ZM447.201 1801.48L448.964 1805.53C457.531 1825.13 475.72 1865.85 482.946 1881.92C481.336 1878.95 479.496 1876.09 477.426 1873.39C471.376 1865.51 478.473 1889.33 478.529 1914.2C478.58 1937.27 471.456 1961.24 469.815 1961.63C467.796 1962.13 439.617 1948.27 413.201 1952.48C391.874 1955.87 359.537 1959.7 327.412 1968.47C301.299 1975.6 275.327 1987.69 255.52 1991.8C239.428 1995.14 236.283 1977.7 225.769 1978.78C216.296 1979.75 214.771 1979.52 212.426 1977.56C199.276 1966.69 186.846 1923.71 188.086 1907.57C199 1822 367.471 1794.42 447.201 1801.48Z"
          fill="white"/>
    <path fill-rule="evenodd" clip-rule="evenodd"
          d="M281.583 1232.26L287.059 1233.77L529.635 1301.65C531.185 1302.66 532.34 1303.4 533.449 1304.07L534.238 1304.54L538.828 1307.27L537.761 1312.5C535.36 1324.26 535.003 1336.36 536.093 1353.25L536.155 1354.2L536.288 1356.12L536.481 1358.73L536.55 1359.62L537.869 1375.72L538.118 1378.96C538.312 1381.57 538.455 1383.75 538.581 1386.03L538.61 1386.56L538.799 1390.26L538.869 1391.84C539.526 1407.95 538.389 1423.69 535.446 1446.44L535.3 1447.57L534.881 1450.72L534.591 1453.49L533.375 1464.78L532.951 1468.81C530.199 1495.42 528.838 1516.32 529.188 1535.79L529.207 1536.76C529.744 1562.3 533.666 1579.62 540.186 1585.57L540.385 1585.75L540.557 1585.89L540.597 1585.9C541.239 1585.93 542.289 1585.53 544.327 1584.3L545.18 1583.77C545.708 1583.43 546.707 1582.8 547.172 1582.52L547.684 1582.21C548.631 1581.64 549.454 1581.21 550.316 1580.83C551.654 1580.26 553.016 1579.88 554.368 1579.77L554.773 1579.75L554.832 1579.74L555.203 1579.42C556.428 1578.32 557.594 1577.1 558.66 1575.81L559.111 1575.26L559.501 1574.75L562.125 1571.3L563.907 1568.21C565.274 1565.85 566.512 1563.33 567.625 1560.67L568.036 1559.66L568.396 1558.75L583.957 1518.46L582.89 1561.64C582.528 1576.3 588.012 1583.9 594.764 1583.98C601.869 1584.06 609.144 1576.25 611.246 1562.38L611.316 1561.9L626.196 1563.78C625.222 1572.48 628.326 1586.22 633.302 1593.96C635.462 1597.32 637.495 1598.91 638.948 1599.03C640.707 1599.18 643.48 1597.53 647.199 1592.75L647.195 1592.75L647.119 1592.85L647.278 1592.62C650.515 1587.99 652.313 1581.78 653.257 1572.92L653.323 1572.29L653.385 1571.66L658.596 1516.87L668.235 1571.05C669.181 1576.37 670.244 1581.7 671.425 1587.07L671.647 1588.07L671.81 1588.01C672.165 1587.87 672.618 1587.65 673.146 1587.36L673.377 1587.22L673.592 1587.09C676.809 1585.14 680.61 1581.18 682.125 1578.61L682.269 1578.36L683.993 1575.22L687.517 1574.59C688.131 1574.48 688.786 1574.19 689.257 1573.86L689.424 1573.73L691.957 1571.67L695.194 1572.12C742.408 1578.68 777.182 1573.15 799.312 1549.97L799.979 1549.26L803.428 1545.55L808.159 1547.37C829.193 1555.44 1111.66 1519.83 1135.23 1517.62L1140.46 1517.14L1144.83 1516.75C1181.82 1513.51 1215.1 1514 1247.08 1514.35L1249.14 1514.38L1252 1514.55L1254.63 1514.72C1281.48 1516.5 1302.7 1519.79 1321.91 1526.08C1345.98 1533.97 1365 1546.25 1378.46 1564.09L1379.06 1564.89L1379.71 1565.89C1397.38 1593.16 1402.7 1626.06 1396.56 1660.49C1391 1691.68 1376.17 1722.74 1355.4 1747.72L1354.73 1748.52L1353.53 1750.02C1309.6 1804.21 1219.14 1847.77 1093.48 1882.42L1089.67 1883.47L1085.75 1884.53C992.636 1909.65 888.018 1928.09 785.595 1940.45L782.395 1940.83L776.065 1941.58L754.927 1944.06L768.381 1930.36L768.32 1930.34C766.921 1929.88 745.289 1934.38 745.289 1934.38L740.668 1930.53C738.014 1928.31 736.021 1926.6 734.132 1924.9L733.242 1924.09L729.687 1920.82L730.33 1916.82C730.333 1916.75 730.303 1916.64 730.171 1916.4L730.107 1916.29C730.107 1916.29 714.465 1897.99 713.253 1896.93L713.051 1896.76L712.757 1896.51L712.635 1896.42C709.81 1894.31 680.331 1895.32 680.331 1895.32C680.331 1895.32 660.002 1860.8 657.326 1857.15L656.683 1856.27L650.025 1856.22L652.547 1851.99C656.22 1845.81 658.479 1838.89 659.427 1831.26L659.52 1830.47L659.575 1829.96L659.156 1830.24C656.332 1832.15 654.684 1834.06 654.137 1835.86L654.076 1836.07L654.034 1836.25L653.993 1836.44L653.776 1837.23C650.708 1848.02 644.191 1856.49 634.636 1863.22C627.884 1867.98 530.816 1901.82 506.792 1907.94L505.117 1908.37L499.13 1909.88L494.838 1900.75C488.233 1886.63 479.677 1867.77 469.167 1844.16L463.991 1832.51L458.678 1820.5L433.378 1805.65L416.001 1805.94C412.324 1806 408.946 1806.07 405.866 1806.13L404.351 1806.16L394.774 1806.36L393.048 1806.55C352.975 1810.84 313.934 1819.53 276.939 1832.52L275.059 1833.19L273.101 1833.89L272.056 1834.23L270.196 1834.84C244.058 1843.52 226.604 1852.37 214.077 1864.13C199.531 1877.79 191.783 1895.64 190.748 1920.44L190.718 1921.23L190.107 1938.3L177.952 1926.3C141.755 1890.54 118.057 1842.01 107.952 1786.73C98.67 1735.95 101.359 1681.49 115.12 1632.41L115.326 1631.68L115.362 1631.19C116.392 1617.47 118.878 1603.44 122.796 1588.09L123.168 1586.65L123.548 1585.2C126.36 1574.55 129.155 1565.41 134.177 1550.2L134.734 1548.51L141.398 1528.52C175.926 1429.11 221.476 1332.34 276.966 1239.93L278.65 1237.13L281.583 1232.26Z"
          fill="#F40028"/>
    <path fill-rule="evenodd" clip-rule="evenodd"
          d="M776.074 1929.37C777.904 1927.51 778.674 1925.07 776.964 1922.2C770.354 1913.76 756.643 1919.53 748.114 1921.48C744.893 1918.8 741.694 1916.11 738.614 1913.27C739.684 1906.64 731.704 1902.22 728.424 1897.1C725.204 1893.33 722.174 1889.04 718.313 1885.88C708.904 1878.54 695.864 1883.51 684.944 1883.17C676.534 1872.47 667.874 1862.11 659.874 1851.06C669.094 1835.57 669.744 1817.41 666.684 1800.14C808.114 1746.48 930.534 1644.87 1083.49 1621.39C1088.75 1620.51 1091.7 1614.12 1090.39 1609.43C1079.72 1583.97 926.393 1649.67 903.473 1661.57C835.874 1693.94 772.553 1734.28 706.854 1769.88C693.154 1777.16 678.084 1781.07 663.104 1784.86C640.084 1709.3 601.143 1640.05 571.284 1567.2C573.223 1563.84 574.874 1560.32 576.274 1556.69C575.284 1596.75 614.244 1596.19 619.624 1558.19C617.404 1578 632.384 1620.42 654.004 1592.59C659.074 1585.59 660.874 1576.64 661.733 1567.61C662.844 1573.85 664.104 1580.07 665.504 1586.26C671.053 1598.54 686.204 1583.61 689.723 1577.21C691.754 1576.85 693.654 1575.92 695.044 1574.79C733.274 1580.1 778.303 1579.79 806.354 1549.61C853.934 1567.86 906.594 1551.51 954.714 1544.22C1052.63 1532.96 1150.94 1515.8 1249.74 1517.11C1293.85 1519.67 1345.89 1526.8 1373.79 1564.43C1409.58 1618.69 1389.35 1691.97 1349.87 1738.93C1254.9 1859.18 928.914 1911.46 776.074 1929.37M778.744 1972.68C780.473 1972.22 782.214 1971.8 783.944 1971.39C811.664 1994.47 942.214 2054.4 932.284 2090.2C928.774 2094.65 920.374 2095.66 915.063 2097.1C905.813 2099.6 896.473 2101.77 887.044 2103.49C856.563 2109.03 824.994 2110 794.553 2103.67C783.354 2101.97 773.244 2097.19 763.044 2092.57C730.084 2078.07 693.784 2062.05 660.983 2047.67C619.313 2031.15 546.223 1998.6 576.284 1943.66C604.764 1975.7 640.914 1972.9 659.124 1933.08C665.404 1921 670.884 1904.71 685.634 1899.82C693.414 1894.56 703.364 1893.47 709.864 1899.33C710.334 1898.6 710.754 1897.57 710.983 1896.67C718.313 1907.1 724.634 1918.08 733.223 1927.62C730.274 1927.77 699.574 1950.5 708.634 1950.51C719.534 1944.89 730.364 1940.22 742.134 1937.19C750.664 1945.77 760.044 1953.75 769.764 1961.13C760.324 1967.36 751.844 1975 745.024 1983.28C744.434 1984.01 745.154 1984.96 746.034 1984.56C756.624 1979.84 767.514 1975.7 778.744 1972.68M919.264 2127.47C813.233 2175.1 700.983 2122.06 610.563 2065.52C589.694 2053.87 562.244 2037.35 566.464 2009.92C581.834 2032.41 607.174 2045.21 631.494 2056.31C672.354 2074.78 713.483 2092.66 754.444 2110.9C758.313 2123.74 776.813 2124.23 787.994 2127.08C837.764 2136.73 891.264 2131.93 938.104 2112.69C935.393 2120.71 926.524 2124.4 919.264 2127.47M496.223 1942.02C493.604 1942.35 490.983 1942.66 488.364 1942.95C488.634 1939.49 486.544 1936.02 483.184 1934.95C484.694 1927.6 485.254 1920 484.444 1912.55C488.824 1923.86 502.964 1920.43 511.944 1917.16C524.774 1913.68 537.524 1909.93 550.204 1905.93C555.204 1915.22 560.504 1924.37 567.014 1932.78C543.313 1934.89 519.834 1939.07 496.223 1942.02M485.794 1906.42C485.164 1907.75 484.264 1909.16 484.244 1910.75C483.604 1905.25 482.354 1899.81 480.454 1894.6C482.233 1898.54 484.014 1902.48 485.794 1906.42M470.834 1876.9C459.174 1861.7 437.624 1849.28 417.704 1853.51C416.424 1853.79 416.393 1855.85 417.704 1856.1C444.464 1859.74 467.964 1880.96 468.893 1908.41C471.004 1920.83 462.364 1933.03 465.274 1944.94C464.694 1944.98 464.114 1945.01 463.544 1945.05C463.334 1945.85 463.143 1946.56 462.893 1947.18C465.784 1947.66 466.634 1952.31 463.223 1953.14C461.204 1953.63 459.094 1953.89 456.944 1954C446.034 1951.05 434.524 1950.37 424.094 1946.02C413.774 1941.46 416.354 1928.64 412.714 1919.77C410.044 1909.53 406.973 1899.34 403.104 1889.52C402.824 1888.73 401.754 1888.91 401.664 1889.7C398.934 1909.3 399.024 1929.22 399.684 1948.97C396.104 1949.34 392.544 1949.74 388.973 1950.18C389.204 1944.67 372.654 1877.46 363.934 1894.71C368.324 1913.67 368.854 1933.48 369.324 1952.99C343.434 1957.26 317.924 1963.61 293.104 1972.26C275.614 1977.56 254.813 1993.24 237.834 1979.06C224.684 1968.19 220.254 1949.22 221.494 1933.07C238.594 1837.56 373.654 1826.39 453.384 1833.46C460.914 1850.83 468.584 1868.15 476.354 1885.43C474.744 1882.45 472.904 1879.6 470.834 1876.9M198.904 1931.21C197.444 1909.52 201.094 1882.52 217.164 1866.36C253.944 1835.26 305.444 1825.48 351.404 1814.22C372.813 1809.99 394.514 1807.19 416.304 1805.79C424.034 1805.18 433.854 1806.93 439.313 1800.61C442.124 1807.27 444.973 1813.91 447.824 1820.56C356.324 1808.58 165.424 1850.22 218.884 1975.57C207.563 1963.3 200.063 1948.37 198.904 1931.21M653.494 1859.51C657.704 1870.03 662.854 1880.05 669.584 1889.21C661.934 1894.21 655.694 1901.61 651.294 1909.56C623.094 1983.34 592.934 1943.82 555.464 1904.23C587.174 1892.26 629.174 1883.3 653.494 1859.51M184.104 1916.2C110.774 1843.76 96.5443 1723.08 123.634 1628.22C126.044 1593.05 138.344 1559.53 149.364 1526.22C184.454 1425.2 230.604 1328.01 285.954 1236.24C354.624 1255.1 423.174 1274.47 492.004 1292.71C501.483 1294.77 510.973 1298.84 520.704 1299.43C524.184 1301.65 527.674 1304.09 531.294 1306.23C526.024 1332.05 530.884 1358.41 532.114 1384.39C533.233 1404.84 531.024 1424.86 528.313 1445.1C525.284 1474.53 512.813 1570.26 537.804 1587.79C546.274 1591.88 553.844 1579.77 557.494 1583.1C560.784 1580.81 563.854 1577.82 566.354 1574.53C576.004 1605.74 591.774 1634.69 601.514 1665.92C614.473 1711.82 657.034 1786.13 647.584 1829.91C640.274 1856.95 608.294 1862.78 585.214 1871.62C558.544 1880.9 531.574 1889.42 504.164 1896.33C490.784 1867.93 477.994 1839.27 465.444 1810.5C408.084 1677.74 357.284 1542.22 311.884 1405.08C311.034 1402.04 300.594 1369.06 298.684 1378.26C298.524 1377.32 297.334 1374.87 296.884 1376.96C304.584 1409.16 312.393 1441.35 320.844 1473.38C300.084 1470.47 277.764 1469.34 258.764 1479.51C257.784 1480.04 258.504 1481.33 259.473 1481.17C281.973 1477.27 303.674 1484.64 325.284 1489.93C355.634 1593.24 394.794 1693.93 436.244 1793.36C423.424 1789.27 408.544 1793.79 395.164 1794.11C353.024 1798.47 311.364 1807.69 271.554 1822.03C221.514 1838.25 186.134 1859.41 184.104 1916.2M143.733 1162.3C131.414 1149.03 121.733 1132.09 123.604 1114.11C131.004 1104.24 133.454 1091.37 137.764 1079.96C154.614 1032.23 170.254 984.128 188.594 936.906C227.604 948.904 265.983 963.295 302.184 982.197C308.844 985.596 315.434 989.123 321.944 992.777C328.764 996.599 336.204 1003.24 344.384 1001.34C335.444 1014 317.034 1027.17 313.924 1041.79C313.254 1046.42 316.534 1050.72 321.574 1049.68C400.464 1105.72 481.934 1160.58 556.504 1223C612.344 1267.21 655.214 1303.06 674.364 1374.79C687.274 1421.26 687.313 1469.82 685.414 1517.6C685.044 1526.88 685.034 1536.39 684.284 1545.74C685.404 1552.73 683.274 1566.97 675.414 1567.22C675.594 1568.92 676.154 1570.48 677.044 1571.86C676.794 1572.19 676.534 1572.51 676.264 1572.84C675.874 1570.93 675.494 1569.02 675.134 1567.11C669.014 1540 668.194 1508.55 669.214 1479.69C669.643 1471.42 656.954 1471.61 656.244 1479.69C654.334 1501.51 652.424 1523.33 650.514 1545.14C648.223 1559.27 651.834 1577.76 640.534 1588.51C629.044 1577.89 632.844 1556.95 633.404 1543.25C634.303 1520.9 635.274 1498.55 636.104 1476.2C636.364 1469.12 624.634 1467.3 623.303 1474.5C619.534 1495.03 615.454 1515.5 611.063 1535.91C608.414 1543.8 606.594 1579.2 593.354 1573.05C585.464 1567.66 591.154 1536.07 590.114 1525.61C590.604 1504.91 590.893 1484.23 592.414 1463.58C593.034 1455.24 579.464 1453.47 577.604 1461.61C574.584 1474.78 571.694 1487.95 569.074 1501.2C563.324 1523.55 565.414 1553.85 544.654 1568.71C536.524 1510.65 548.223 1453 549.864 1395.15C548.884 1376.4 545.664 1357.84 542.824 1339.32C539.684 1318.84 537.854 1296.55 545.204 1276.8C543.194 1267.96 535.294 1291.88 534.554 1293.87C528.604 1282.15 514.114 1281.25 502.654 1277.59C477.184 1269.35 451.094 1263.13 425.324 1255.8C356.983 1236.82 288.563 1218.13 220.124 1199.49C192.784 1191.92 164.004 1182.97 143.733 1162.3M828.084 1471.12C818.654 1420.01 818.914 1368.21 822.944 1316.54C827.374 1236.4 831.674 1156.23 836.274 1076.1C856.244 1221.14 877.534 1366.01 893.813 1511.51C894.973 1521.63 894.794 1532.35 899.904 1541.38C871.664 1545.17 841.563 1548.98 814.104 1539.37C826.154 1518.54 830.404 1494.82 828.084 1471.12M970.774 1111.1C992.124 1248.56 979.944 1388.44 1000.65 1525.74C971.924 1528.96 943.414 1533.73 914.983 1538.97C918.094 1522.01 912.194 1504.49 911.174 1487.41C895.733 1365.58 878.684 1243.83 856.094 1123.07C850.553 1094.17 844.954 1065.38 838.534 1036.64C839.504 1019.24 840.354 1001.83 840.914 984.413C872.264 964.704 907.614 951.947 944.174 945.515C954.053 1000.56 963.924 1055.56 970.774 1111.1M723.624 679.141C722.374 677.004 721.184 674.817 720.044 672.601C723.904 672.749 727.664 672.886 731.464 673.517C731.294 679.634 731.634 685.8 731.704 691.967C729.803 687.455 726.084 683.338 723.624 679.141M1368.44 1540.57C1277.25 1474.25 1127.47 1516.5 1021.83 1523.32C1001.69 1391.25 1009.91 1257.03 991.143 1124.75C973.854 992.6 955.624 858.605 912.204 731.989C894.284 683.031 863.284 668.493 812.244 668.887C786.344 667.873 758.954 663.726 733.784 664.316C728.264 664.405 722.494 665.134 717.514 667.36C710.514 651.58 706.714 634.637 704.794 617.567C704.674 616.483 703.294 616.286 702.884 617.321C696.964 632.185 696.334 648.408 699.553 663.972C701.884 675.123 715.754 719.006 731.864 701.837C733.143 737.84 725.233 780.837 689.964 799.523C628.334 826.395 543.143 801.926 507.444 744.893C500.544 733.496 494.594 721.369 486.954 710.426C540.184 695.355 570.063 631.574 557.524 583.002C549.774 620.778 535.643 662.987 500.454 684.145C372.313 683.86 265.774 742.223 205.574 854.635C193.794 870.958 182.904 887.919 172.924 905.178C167.553 916.723 151.824 932.779 165.174 943.929C149.754 985.084 136.074 1026.81 121.614 1068.29C117.643 1082.11 108.563 1096.61 110.374 1111.14C108.414 1120.09 108.504 1130.68 112.994 1139.29C117.254 1154.64 126.813 1175.29 142.664 1181.8C156.114 1194.08 173.124 1202.54 190.864 1208.91C143.553 1332.56 125.544 1465.9 109.514 1596.54C93.8033 1710.82 85.6943 1849.84 184.134 1932.43C186.044 1956.07 200.063 1986.18 227.784 1986.43C246.983 2005.29 270.384 1994.94 291.754 1985.72C327.824 1972.37 365.654 1964.96 403.244 1960.83C407.274 1963.98 413.834 1963.46 417.424 1959.79C440.194 1954.54 471.754 1975.8 476.354 1956.54C505.714 1953.69 534.754 1948.35 564.084 1945.24C551.723 1961.28 552.614 1984.93 561.924 2002.25C538.214 2048.89 593.444 2075.9 627.214 2095.04C672.803 2121.44 720.414 2146.49 772.553 2157.44C818.393 2167.08 866.414 2164.15 910.643 2148.75C933.884 2142.91 966.344 2123.73 952.553 2096.71C970.034 2045.29 847.274 1992.01 811.164 1966.26C825.924 1964.42 826.464 1933.78 788.074 1951.39C783.434 1948.28 778.874 1945.08 774.364 1941.82C929.643 1923.97 1226.19 1874.87 1338.57 1768.72C1400.31 1714.14 1435.93 1603.74 1368.44 1540.57"
          fill="black"/>
    <path fill-rule="evenodd" clip-rule="evenodd"
          d="M667.531 255.26C724.191 255.26 782.797 299.272 803.567 327.357C827.583 359.832 846.528 515.729 837.64 568.628C828.753 621.527 784.607 679.184 707.971 679.184C631.334 679.184 584.696 669.724 582.825 655.984C580.955 642.245 532.278 565.765 532.278 565.765C532.278 565.765 482.494 551.733 482.299 518.214C482.104 484.695 508.977 472.5 508.977 472.5C508.977 472.5 499.396 340.221 523.526 305.782C547.657 271.342 610.87 255.26 667.531 255.26Z"
          fill="#D08B5B"/>
    <path fill-rule="evenodd" clip-rule="evenodd"
          d="M629.328 169.845C636.948 160.859 650.389 169.353 650.084 179.173C653.126 179.998 656.715 182.846 658.099 186.557C661.094 186.363 664.113 186.959 666.833 188.518L667.406 187.81C676.831 176.279 689.304 166.384 702.174 174.876C705.677 177.187 707.246 181.006 706.473 185.146L706.414 185.439L706.698 184.161C706.989 182.946 706.556 185.376 706.393 185.89L706.373 185.949C706.033 186.814 705.694 187.25 705.386 187.905C718.562 178.524 738.626 184.015 728.055 202.175L732.354 200.495C747.228 194.734 765.723 188.548 779.283 198.905C785.344 204.748 778.616 212.539 772.44 214.428L773.501 214.25C785.353 212.233 810.078 207.248 813.611 222.709C814.881 228.272 811.177 232.338 806.502 234.576C816.392 234.54 826.147 236.174 834.705 241.01C842.845 246.808 836.266 256.401 827.753 255.983C830.392 259.253 831.268 264.788 828.72 268.321C833.558 269.594 838.021 271.231 842.135 273.782L843.265 273.928C851.488 274.956 860.87 275.568 865.393 283.661C872.051 301.221 848.344 300.522 838.168 294.354C838.772 295.337 839.22 296.411 839.471 297.558L842.768 298.485C855.208 301.953 869.287 305.783 877.296 316.275C880.967 322.312 875.858 332.573 868.182 330.739C888.982 340.665 881.01 366.815 860.669 353.212C859.717 354.094 858.56 354.75 857.348 355.039L861.64 357.371C872.542 363.352 885.653 371.541 883.377 385.12C881.212 392.307 871.264 390.993 866.207 388.243C875.042 395.856 883.378 404.098 890.95 413.01L893.046 415.508C898.935 422.581 909.18 435.602 898.082 442.406C884.4 449.384 877.582 428.778 869.624 421.423C875.987 436.425 855.302 446.888 848.083 431.777C846.87 431.99 845.651 432.012 844.456 431.851C850.68 438.463 867.515 483.703 846.575 473.783C843.24 470.247 840.313 466.383 837.623 462.327C840.985 488.247 843.444 514.29 845.034 540.351L845.6 549.798C846.178 559.597 846.616 569.438 845.517 579.205C844.249 590.575 840.987 601.245 836.047 611.545C831.496 621.045 825.628 629.845 818.913 637.935C815.321 642.265 811.509 646.475 806.819 649.644C803.086 652.165 798.725 653.825 794.524 655.425C787.689 662.265 778.918 667.435 770.346 671.565C756.216 678.355 740.898 682.105 725.401 683.985C709.555 685.894 693.548 685.435 677.832 682.705C662.813 680.105 646.716 673.455 637.467 660.785C636.669 659.695 638.155 658.665 639.132 659.115C665.977 671.565 696.142 674.815 725.401 670.885C739.051 669.055 752.483 665.275 764.947 659.405C775.465 654.455 784.335 647.255 793.776 640.735C795.613 638.285 797.468 635.875 799.584 633.635L802.886 630.165C805.354 627.559 807.777 624.917 809.981 622.065C816.788 613.275 822.425 603.305 826.148 592.815C833.388 572.396 831.43 550.23 830.151 528.95L830.04 527.075C828.723 504.315 826.576 481.635 823.603 459.035C822.367 449.63 820.991 440.241 819.485 430.872C817.07 426.935 814.491 423.126 811.605 419.558C813.954 428.706 805.82 441.422 795.846 435.385C784.425 425.601 784.977 409.809 775.405 397.828C765.483 382.469 697.02 352.597 676.665 348.402C679.944 353.183 685.934 356.513 687.331 362.155C712.364 384.319 671.559 396.117 658.817 364.531C659.099 375.047 660.163 385.472 662.497 395.736C665.897 405.162 668.566 432.479 651.517 424.236C643.356 426.598 637.132 419.632 636.109 411.772C630.213 429.533 635.789 457.909 624.979 470.999C621.663 474.442 616.541 472.149 614.817 468.218C604.82 465.594 605.673 453.915 604.46 445.555C595.343 478.876 583.931 502.005 582.359 536.765C589.414 546.83 573.939 554.232 567.297 546.166C557.975 532.669 566.571 514.218 568.764 499.444C566.142 499.308 563.547 498.142 561.381 495.593C560.201 500.23 560.879 506.339 561.277 511.368C555.365 534.528 532.892 519.693 533.822 500.907C532.851 506.207 532.116 511.561 531.65 516.954C535.99 521.958 539.207 527.948 541.11 534.305C542.479 538.899 537.819 541.653 534.262 540.986C532.369 547.457 524.161 552.126 518.763 545.941C513.428 540.533 512.5 532.718 512.074 524.937C511.332 524.146 510.879 523.11 510.954 521.855C511.022 520.676 511.311 519.676 511.77 518.834C511.68 517.244 511.566 515.683 511.393 514.174C507.262 527.05 509.95 540.542 510.311 553.729C517.606 557.846 525.934 559.605 534.3 561.343L535.513 561.595C538.096 562.135 538.915 565.995 536.969 567.615C542.148 572.695 546.619 578.755 550.98 584.345C556.77 591.761 562.308 599.471 567.695 607.198L570.856 611.737C580.092 624.919 592.861 642.777 587.143 659.015C586.365 661.245 583.112 662.045 581.844 659.705C577.682 652.005 575.357 643.525 571.406 635.735C567.525 628.095 562.695 621.015 557.904 613.935L555.141 609.832C550.54 602.98 545.983 596.053 541.758 588.995L538.817 584.108C536.053 579.493 533.317 574.724 531.28 569.765C524.026 571.517 516.434 570.26 509.477 567.229L509.388 567.713L509.212 568.585C508.219 572.776 502.449 575.642 498.762 572.9C489.939 566.234 486.346 556.312 485.41 545.703C483.632 542.706 482.124 539.541 480.895 536.267C480.315 542.8 477.799 549.135 470.049 548.938C456.599 547.832 455.279 535.102 458.915 522.441C442.992 527.314 441.126 504.749 446.152 492.857C444.286 492.298 442.558 491.184 441.569 489.684L440.744 491.134C437.684 496.443 434.215 501.598 429.38 504.354C422.625 508.203 412.804 503.435 413.253 494.958C414.699 481.142 426.784 470.62 434.14 459.548C432.83 459.733 431.469 459.686 430.133 459.436C415.429 467.656 408.411 448.31 413.59 437.102C417.385 427.032 424.254 418.372 431.617 410.738L429.459 412.03C425.565 414.328 421.221 416.547 416.939 415.645C388.928 434.09 379.733 403.069 411.167 393.373L411.157 393.229V393.229C408.002 390.18 406.633 385.354 409.086 380.534C397.556 384.593 381.095 375.41 391.258 362.861C397.887 356.605 405.708 351.224 414.378 348.409C413.945 346.106 413.805 343.762 413.984 341.404L413.467 341.475C407.993 342.264 401.245 344.504 397.87 338.598C396.158 335.624 396.359 330.722 399.165 328.41C408.828 320.448 419.853 313.826 431.829 311.141C432.268 309.68 432.726 308.227 433.211 306.782C422.995 306.592 411.525 292.994 423.26 285.289C433.576 280.022 444.204 276.634 455.852 276.948C449.023 270.199 453.055 257.967 462.136 256.087C456.189 243.397 470.882 236.849 481.841 238.85C481.439 233.212 484.451 226.928 490.247 225.513C487.207 207.671 506.059 209.359 517.87 213.588C513.915 206.71 517.98 198.618 524.958 196.206C536.386 193.614 547.318 204.521 556.019 211.21C553.053 204.232 555.555 197.798 562.622 195.018C569.9 192.163 577.742 197.679 583.817 201.428C587.119 197.272 592.759 195.917 597.816 196.174C598.357 194.613 599.15 193.311 600.167 192.282C600.139 182.664 616.478 177.377 622.181 186.336C623.151 180.107 625.709 174.113 629.328 169.845ZM833.751 344.279L833.94 345.315V345.315C834.181 345.529 834.408 345.755 834.641 345.975C835.369 346.147 836.072 346.329 836.739 346.516C835.768 345.728 834.767 344.998 833.751 344.279ZM846.364 319.04L846.142 319.348C846.104 319.399 846.066 319.449 846.025 319.497C846.641 319.731 847.255 319.97 847.867 320.216L848.784 320.592L849.107 320.735C848.197 320.162 847.283 319.595 846.364 319.04ZM699.277 191.983L698.726 192.12C698.55 192.163 698.384 192.203 698.232 192.239C698.176 192.254 698.124 192.26 698.072 192.281L698.217 192.25V192.25C697.956 192.448 697.614 192.682 697.329 192.87C697.609 192.847 697.887 192.82 698.168 192.804C698.534 192.529 698.904 192.256 699.277 191.983Z"
          fill="black"/>
    <path fill-rule="evenodd" clip-rule="evenodd"
          d="M731.587 606.927C724.864 604.184 718.866 599.61 714.481 593.766C712.957 591.735 712.561 589.59 712.881 587.628C713.241 585.421 714.546 583.422 716.326 582.081C718.112 580.735 720.345 580.072 722.504 580.41C724.381 580.704 726.248 581.731 727.727 583.862L728.035 584.288C730.642 587.815 734.04 590.709 737.91 592.574C741.641 594.372 745.814 595.211 750.132 594.723C758.356 593.794 764.024 589.346 770.049 583.307C770.796 582.544 771.543 581.758 772.294 580.959C772.768 580.234 773.426 579.769 774.157 579.524C774.968 579.253 775.886 579.269 776.726 579.562C777.537 579.845 778.262 580.381 778.747 581.095C779.209 581.773 779.471 582.61 779.386 583.574C778.835 589.833 775.562 595.419 770.914 599.805C765.752 604.677 758.909 608.047 752.466 609.229C745.368 610.531 738.136 609.598 731.587 606.927V606.927ZM755.814 510.367C763.366 514.957 774.872 525.66 766.748 537.04C757.186 547.073 743.418 535.569 736.634 530.366C730.343 526.334 723.275 536.704 729.112 541.413C778.136 577.708 798.031 511.567 759.634 504.97C755.406 504.243 753.836 508.947 755.814 510.367ZM667.963 468.146C668.798 457.79 684.57 455.438 686.139 465.686C687.544 474.866 685.89 483.299 681.755 491.564C677.804 499.46 667.874 495.777 667.123 488.587C666.116 478.949 667.444 474.589 667.963 468.146ZM788.027 463.561C790.226 460.681 793.401 458.715 797.205 459.826C809.09 463.299 805.587 480.172 801.413 488.385C799.145 492.845 791.814 493.976 788.501 490.049C783.101 483.645 780.515 470.856 787.38 464.548C787.566 464.222 787.773 463.893 788.027 463.561ZM681.588 422.83L683.465 422.502C689.273 421.497 696.494 420.532 700.603 425.201C702.782 427.677 703.532 432.279 700.603 434.649C695.451 438.819 689.755 437.203 683.581 437.556C678.493 437.848 673.603 438.69 668.702 440.091C657.95 443.164 649.189 448.774 640.006 454.934C638.801 455.742 637.571 454.201 638.146 453.074C643.447 442.691 653.72 434.162 664.01 428.963C669.502 426.188 675.512 423.886 681.588 422.83ZM777.193 418.179L778.63 418.473C794.267 421.742 814.583 428.271 821.988 443.631C822.271 445.803 821.972 446.268 821.73 446.572L821.649 446.673C821.45 446.933 821.29 447.291 820.349 447.587C820.087 447.525 819.824 447.459 819.557 447.389C816.163 446.499 813.477 445.274 810.877 444.002L808.058 442.613C804.788 441.01 801.488 439.465 797.992 438.324C790.53 435.89 782.854 434.175 775.06 433.26C773.37 433.061 771.744 432.491 770.46 431.514C769.242 430.587 768.311 429.302 767.887 427.595C767.337 425.386 767.495 423.714 768.68 421.721C769.572 420.224 770.847 419.187 772.311 418.591C773.804 417.984 775.503 417.841 777.193 418.179Z"
          fill="black"/>
</svg>
