<svg width="49" height="48" viewBox="0 0 49 48" fill="none" xmlns="http://www.w3.org/2000/svg">
    <g clip-path="url(#clip0)">
        <path d="M26.917 29.7025L28.8441 22.8849C29.0536 22.144 29.9077 21.8021 30.5705 22.1938L33.0023 23.631C33.3596 23.8421 33.5788 24.2263 33.5788 24.6413V26.397L26.917 29.7025Z"
              fill="#79B2FF"/>
        <path d="M26.9171 29.7025L19.4472 32.9444L5.32572 38.7091C5.13634 38.7865 4.95381 38.8795 4.78009 38.9875C3.712 39.6515 3.0625 40.82 3.0625 42.0776V43.465C5.22447 45.7608 8.23816 47.0625 11.3917 47.0625H43.505C45.6078 47.0625 47.3124 45.3579 47.3124 43.2551V40.417V36.8199C47.3124 34.9775 46.6956 33.1881 45.5604 31.737C45.5604 29.9702 45.2773 28.2149 44.7217 26.5377L44.7068 26.4928L43.5159 26.7402C39.3296 27.6098 34.9782 27.1926 31.0335 25.5435L26.9171 29.7025Z"
              fill="#79B2FF"/>
        <path d="M45.1837 31.9227L38.9233 31.915C35.0992 31.9104 31.393 30.5905 28.4268 28.177L31.0333 25.5433C34.9781 27.1925 39.3295 27.6097 43.5157 26.7401L44.7066 26.4926L44.7215 26.5376C45.2771 28.2147 45.5602 29.97 45.5602 31.7368C45.6081 31.7981 45.6552 31.86 45.7013 31.9225L45.1837 31.9227Z"
              fill="#CEE3FF"/>
        <path d="M3.06569 41.9332C5.05638 42.7371 7.18319 43.1501 9.33006 43.1501H26.7967C29.3796 43.1501 31.9307 42.5805 34.2683 41.4817L35.0144 41.131C37.3519 40.0323 39.9031 39.4626 42.486 39.4626H47.3125V40.4168V43.255C47.3125 45.3578 45.6078 47.0624 43.5051 47.0624H11.3917C8.23816 47.0625 5.22447 45.7608 3.0625 43.4649V42.0776C3.0625 42.0293 3.06344 41.9811 3.06531 41.9331"
              fill="white"/>
        <path d="M13.0225 35.9537L13.425 36.3563C14.8529 37.7842 17.0021 38.2078 18.8651 37.4286L25.7218 34.5606C27.3721 33.8703 27.7947 31.7266 26.5298 30.4617L13.0225 35.9537Z"
              fill="#CEE3FF"/>
        <path d="M36.5371 40.4693L26.5294 30.4616C27.7943 31.7265 27.3717 33.8702 25.7215 34.5604L22.5316 35.8947L22.2312 36.3029L23.1194 37.1911C24.2431 38.3148 24.0607 40.185 22.7411 41.0704L19.6411 43.1501H26.7966C29.3795 43.1501 31.9306 42.5805 34.2682 41.4817L35.0142 41.131C35.516 40.8952 36.0275 40.6837 36.5471 40.4971L36.5371 40.4693Z"
              fill="#FFCB7C"/>
        <path d="M21.5827 18.2975L19.6556 25.1151C19.4461 25.856 18.592 26.1979 17.9292 25.8062L15.4974 24.369C15.1401 24.1579 14.9209 23.7737 14.9209 23.3587V21.603L21.5827 18.2975Z"
              fill="#79B2FF"/>
        <path d="M21.5829 18.2975L29.0528 15.0556L43.1743 9.29091C43.3637 9.21356 43.5462 9.12047 43.7199 9.01247C44.788 8.34853 45.4375 7.18003 45.4375 5.92238V4.53506C43.2755 2.23922 40.2618 0.9375 37.1083 0.9375H4.99487C2.89216 0.9375 1.1875 2.64216 1.1875 4.74487V7.58306V11.1802C1.1875 13.0225 1.80428 14.8119 2.9395 16.263C2.9395 18.0298 3.22262 19.7851 3.77819 21.4623L3.79309 21.5072L4.984 21.2598C9.17031 20.3902 13.5217 20.8074 17.4664 22.4565L21.5829 18.2975Z"
              fill="#79B2FF"/>
        <path d="M3.31642 16.0773L9.57686 16.085C13.4009 16.0896 17.1071 17.4096 20.0734 19.8231L17.4669 22.4567C13.522 20.8075 9.17064 20.3903 4.98442 21.26L3.79352 21.5074L3.77861 21.4625C3.22305 19.7853 2.93992 18.03 2.93992 16.2632C2.89202 16.2019 2.84495 16.14 2.79883 16.0776L3.31642 16.0773Z"
              fill="#CEE3FF"/>
        <path d="M45.4343 6.06675C43.4436 5.26294 41.3168 4.84978 39.1699 4.84978H21.7033C19.1204 4.84978 16.5693 5.41941 14.2317 6.51816L13.4856 6.86887C11.1481 7.96762 8.59694 8.53725 6.01403 8.53725H1.1875V7.58316V4.74487C1.1875 2.64216 2.89216 0.9375 4.99487 0.9375H37.1082C40.2617 0.9375 43.2755 2.23922 45.4374 4.53506V5.92238C45.4374 5.97066 45.4365 6.01884 45.4346 6.06684"
              fill="white"/>
        <path d="M35.4776 12.0463L35.075 11.6437C33.6471 10.2158 31.498 9.79218 29.635 10.5714L22.7782 13.4394C21.1279 14.1297 20.7054 16.2734 21.9703 17.5383L35.4776 12.0463Z"
              fill="#CEE3FF"/>
        <path d="M11.9626 7.53064L21.9703 17.5384C20.7054 16.2735 21.1279 14.1298 22.7782 13.4395L25.9681 12.1053L26.2684 11.6971L25.3803 10.8089C24.2566 9.6852 24.439 7.81498 25.7586 6.9296L28.8586 4.84985H21.7031C19.1202 4.84985 16.5691 5.41948 14.2315 6.51823L13.4854 6.86895C12.9837 7.10473 12.4722 7.31623 11.9526 7.50288L11.9626 7.53064Z"
              fill="#FFCB7C"/>
        <path d="M46.495 31.4197C46.4632 29.6577 46.1665 27.9177 45.6117 26.2428L45.5968 26.1979C45.4471 25.746 44.9823 25.4777 44.5162 25.5748L43.3253 25.8222C40.388 26.4323 37.3938 26.3843 34.5164 25.6965V24.6414C34.5164 23.8984 34.1191 23.2019 33.4793 22.8239L31.0475 21.3867C30.4793 21.0509 29.802 20.999 29.1889 21.2442C28.576 21.4896 28.1215 21.9946 27.9419 22.6299L26.1357 29.0195L21.0478 31.2276C20.6798 30.895 20.1122 30.9051 19.7576 31.2597C19.5787 31.4387 19.4878 31.6719 19.4838 31.9064L19.0833 32.0802L17.1055 32.8876L17.0363 32.8184C16.6702 32.4522 16.0766 32.4523 15.7105 32.8184C15.5055 33.0234 15.4155 33.2997 15.44 33.5675L4.97125 37.8412C4.73369 37.9382 4.50278 38.056 4.28509 38.1913C2.99791 38.9914 2.206 40.3461 2.13222 41.8477C2.12884 41.8848 2.12772 41.9217 2.12875 41.9586C2.12772 41.9983 2.125 42.0377 2.125 42.0776V43.4649C2.125 43.7038 2.21622 43.9337 2.38 44.1076C4.70922 46.5813 7.99394 48 11.3916 48H43.5049C46.1213 48 48.2499 45.8714 48.2499 43.2551V36.8198C48.2499 34.8866 47.6288 32.9818 46.495 31.4197ZM43.7066 27.658L44.0601 27.5846C44.3671 28.6951 44.5473 29.8336 44.6027 30.9846L41.2822 30.9804C41.2818 30.9804 41.2815 30.9804 41.281 30.9804C40.7638 30.9804 40.3442 31.3994 40.3435 31.9168C40.3428 32.4346 40.7621 32.8548 41.2799 32.8554L45.1827 32.8602H45.1839C45.1919 32.8602 45.1996 32.8592 45.2075 32.859C45.9634 34.0344 46.3749 35.4174 46.3749 36.8198V38.5252H42.4859C40.5693 38.5252 38.6439 38.8322 36.8135 39.4199L27.6691 30.2754L28.5101 29.4257C29.7762 30.358 31.1583 31.1156 32.6302 31.6812C32.7408 31.7238 32.8545 31.7439 32.9663 31.7439C33.3431 31.7439 33.6984 31.5151 33.8416 31.1424C34.0273 30.6591 33.7861 30.1167 33.3027 29.931C32.0736 29.4587 30.9146 28.8366 29.8447 28.0772L31.2619 26.6453C35.2354 28.1757 39.5242 28.5267 43.7066 27.658ZM23.7825 36.5282L23.6835 36.4292L26.0833 35.4254C27.0228 35.0324 27.7312 34.252 28.0377 33.2958L34.897 40.1551C34.803 40.1973 34.7087 40.2388 34.6155 40.2826L33.8694 40.6333C31.6713 41.6665 29.2256 42.2126 26.7966 42.2126H22.7213L23.2635 41.8489C24.1262 41.2701 24.6788 40.345 24.7797 39.3112C24.8805 38.2772 24.517 37.2628 23.7825 36.5282ZM29.7462 23.14C29.7723 23.0476 29.8365 23.0048 29.8857 22.9851C29.9349 22.9654 30.0108 22.9522 30.0935 23.001L32.5253 24.4382C32.5968 24.4805 32.6413 24.5584 32.6413 24.6415V25.1516C32.2223 25.0077 31.8065 24.8506 31.395 24.6785C31.0426 24.5312 30.6359 24.6124 30.3671 24.8839L28.8079 26.4592L29.7462 23.14ZM19.8014 33.8124C19.8078 33.8097 19.814 33.8071 19.8203 33.8044L20.6265 33.4545L20.7769 33.605C20.96 33.7881 21.1999 33.8796 21.4398 33.8796C21.6798 33.8796 21.9198 33.788 22.1028 33.605C22.3459 33.3618 22.4266 33.0185 22.3468 32.7079L25.9039 31.1641C26.2546 31.5384 26.3988 32.0384 26.2989 32.5452C26.1955 33.0699 25.8532 33.4892 25.3598 33.6956L18.503 36.5636C17.1291 37.1383 15.5795 36.9132 14.4348 36.0031L16.6607 35.0945L16.7298 35.1637C16.9129 35.3468 17.1528 35.4383 17.3927 35.4383C17.6327 35.4383 17.8727 35.3467 18.0557 35.1637C18.2607 34.9586 18.3507 34.6824 18.3261 34.4145L19.8014 33.8124ZM5.275 39.7838C5.40353 39.7039 5.53975 39.6343 5.68 39.577L12.5253 36.7825L12.7619 37.0191C13.8969 38.154 15.4016 38.7549 16.9369 38.7549C17.7066 38.7549 18.4842 38.6039 19.2266 38.2934L21.8138 37.2113L22.4567 37.8541C22.7932 38.1907 22.9598 38.6554 22.9136 39.1291C22.8674 39.6029 22.6143 40.0267 22.2189 40.2919L19.356 42.2126H9.32997C7.54056 42.2126 5.78706 41.9139 4.10697 41.3241C4.28894 40.6919 4.69703 40.143 5.275 39.7838ZM43.505 46.125H11.3916C8.76091 46.125 6.21044 45.122 4.28228 43.3518C5.91738 43.8404 7.60872 44.0876 9.32988 44.0876H19.6405C19.641 44.0876 19.6415 44.0877 19.642 44.0877C19.6425 44.0877 19.6428 44.0876 19.6433 44.0876H26.7965C29.4994 44.0876 32.2209 43.4799 34.6668 42.3302L35.4129 41.9795C37.6111 40.9463 40.0568 40.4002 42.4857 40.4002H46.3749V43.2551C46.3749 44.8376 45.0875 46.125 43.505 46.125Z"
              fill="black"/>
        <path d="M2.90313 21.8021C3.05284 22.254 3.51756 22.5221 3.98369 22.4252L5.17459 22.1778C8.11178 21.5677 11.1061 21.6157 13.9835 22.3034V23.3586C13.9835 24.1015 14.3808 24.798 15.0206 25.176L17.4524 26.6132C17.784 26.8091 18.1527 26.9085 18.5241 26.9085C18.7893 26.9085 19.0557 26.8579 19.311 26.7557C19.9239 26.5103 20.3784 26.0053 20.558 25.3701L22.3642 18.9804L27.4521 16.7723C27.6302 16.9333 27.8545 17.0148 28.0795 17.0148C28.3194 17.0148 28.5594 16.9232 28.7424 16.7402C28.9213 16.5612 29.0122 16.328 29.0163 16.0935L29.4168 15.9197L31.3945 15.1123L31.4637 15.1815C31.6468 15.3646 31.8867 15.4561 32.1266 15.4561C32.3665 15.4561 32.6065 15.3645 32.7895 15.1815C32.9945 14.9765 33.0845 14.7002 33.06 14.4324L43.5287 10.1588C43.7662 10.0618 43.9971 9.94397 44.2148 9.80869C45.502 9.00863 46.2939 7.65394 46.3677 6.15234C46.3711 6.11522 46.3722 6.07828 46.3712 6.04144C46.3722 6.00169 46.3749 5.96231 46.3749 5.92238V4.53506C46.3749 4.29619 46.2837 4.06631 46.1199 3.89241C43.7907 1.41872 40.506 0 37.1083 0H4.99488C2.37859 0 0.25 2.12859 0.25 4.74487V11.1803C0.25 13.1134 0.871094 15.0182 2.00491 16.5804C2.03669 18.3424 2.33341 20.0824 2.88822 21.7573L2.90313 21.8021ZM9.30972 19.8761C7.80363 19.8761 6.29153 20.0308 4.79331 20.3421L4.43978 20.4155C4.13284 19.305 3.95266 18.1665 3.89725 17.0155L9.57531 17.0225C12.8263 17.0265 16.0122 18.0503 18.6551 19.9229L17.238 21.3547C14.6879 20.3725 12.008 19.8761 9.30972 19.8761ZM24.7174 11.4718L24.8164 11.5708L22.4166 12.5746C21.4771 12.9676 20.7687 13.748 20.4622 14.7042L13.6029 7.84491C13.6969 7.80272 13.7913 7.76119 13.8844 7.71741L14.6305 7.36669C16.8286 6.33347 19.2743 5.78737 21.7033 5.78737H25.7786L25.2364 6.15112C24.3738 6.72994 23.8211 7.65497 23.7202 8.68884C23.6194 9.72281 23.9829 10.7372 24.7174 11.4718ZM18.7537 24.86C18.7276 24.9524 18.6634 24.9952 18.6142 25.0149C18.5651 25.0347 18.4892 25.0479 18.4064 24.999L15.9746 23.5618C15.9031 23.5195 15.8586 23.4416 15.8586 23.3586V22.8484C16.2776 22.9923 16.6934 23.1495 17.1049 23.3215C17.2218 23.3704 17.3446 23.3941 17.4663 23.3941C17.7118 23.3941 17.9531 23.2975 18.1328 23.116L19.692 21.5408L18.7537 24.86ZM28.6985 14.1877C28.6922 14.1903 28.6859 14.1929 28.6796 14.1956L27.8734 14.5455L27.723 14.395C27.3569 14.0289 26.7633 14.0289 26.3972 14.395C26.154 14.6382 26.0733 14.9815 26.1531 15.2921L22.596 16.8359C22.2453 16.4616 22.1011 15.9616 22.201 15.4548C22.3044 14.9301 22.6467 14.5108 23.1401 14.3044L29.9969 11.4364C31.3707 10.8617 32.9203 11.0868 34.065 11.9969L31.8393 12.9055L31.7701 12.8363C31.4041 12.4703 30.8103 12.4703 30.4443 12.8363C30.2392 13.0414 30.1492 13.3177 30.1738 13.5855L28.6985 14.1877ZM43.2249 8.21625C43.0964 8.29613 42.9602 8.36569 42.8199 8.42297L35.9746 11.2175L35.738 10.9809C34.0339 9.27694 31.4963 8.77678 29.2733 9.70669L26.6861 10.7888L26.0433 10.146C25.7067 9.80944 25.5401 9.34472 25.5863 8.871C25.6325 8.39719 25.8857 7.97344 26.281 7.70822L29.1439 5.78747H39.1698C40.9593 5.78747 42.7128 6.08625 44.3928 6.67603C44.211 7.30809 43.8029 7.857 43.2249 8.21625ZM4.99488 1.875H37.1082C39.7389 1.875 42.2895 2.87803 44.2175 4.64822C42.5824 4.15959 40.8911 3.91237 39.1699 3.91237H28.8626C28.8614 3.91237 28.8602 3.91237 28.859 3.91237H21.7034C19.0005 3.91237 16.279 4.52006 13.8331 5.66981L13.087 6.02053C10.8888 7.05375 8.443 7.59984 6.01403 7.59984H2.125V4.74487C2.125 3.16237 3.41238 1.875 4.99488 1.875ZM2.125 9.47484H6.01403C7.93056 9.47484 9.856 9.16781 11.6864 8.58009L20.8308 17.7246L19.9896 18.5745C16.9836 16.364 13.3192 15.1521 9.57756 15.1475L3.31713 15.1398C3.31675 15.1398 3.31638 15.1398 3.316 15.1398C3.30803 15.1398 3.30025 15.1408 3.29228 15.141C2.53647 13.9656 2.125 12.5826 2.125 11.1803V9.47484Z"
              fill="black"/>
        <path d="M37.0645 32.746C37.311 32.746 37.5529 32.6457 37.7273 32.4713C37.9016 32.2969 38.002 32.055 38.002 31.8085C38.002 31.561 37.9016 31.32 37.7273 31.1447C37.5529 30.9703 37.311 30.871 37.0645 30.871C36.817 30.871 36.576 30.9703 36.4016 31.1447C36.2263 31.3191 36.127 31.561 36.127 31.8085C36.127 32.055 36.2263 32.2969 36.4016 32.4713C36.576 32.6457 36.817 32.746 37.0645 32.746Z"
              fill="black"/>
    </g>
    <defs>
        <clipPath id="clip0">
            <rect x="0.25" width="48" height="48" fill="white"/>
        </clipPath>
    </defs>
</svg>
