<svg width="77" height="76" viewBox="0 0 77 76" fill="none" xmlns="http://www.w3.org/2000/svg">
    <path d="M71.5 45.125V47.5L58.4375 52.25L46.3324 51.962L22.2974 51.3891L8.56252 51.0625L3.81252 46.3125C3.81252 46.3125 3.29447 40.4938 3.81252 35.625C3.88377 34.9481 3.99361 34.1614 4.13166 33.3064C4.3751 31.7879 4.70463 30.0527 5.06088 28.3263C6.04353 23.5763 7.22807 18.8976 7.37502 19L24.711 15.9407C25.5169 15.7986 26.347 15.9383 27.062 16.3362C27.777 16.7341 28.3332 17.366 28.6372 18.1257L28.9192 18.8308L31.8776 26.226L32.3125 27.3125C32.3125 27.3125 38.2055 30.9388 44.1089 33.9892C46.5269 35.2391 48.9464 36.3924 50.9637 37.1613C51.8476 37.5138 52.7585 37.7943 53.6875 38C54.066 38.0757 54.4594 38.1514 54.8646 38.2271C58.5489 38.9144 63.1534 39.5764 66.1162 39.9787C67.0455 40.1055 67.9298 40.4571 68.6926 41.0028C69.4554 41.5486 70.0736 42.2721 70.4936 43.1107L71.5 45.125Z"
          fill="#E4E4E3"/>
    <path d="M71.5 45.1249V47.4999L58.4375 52.2499L46.3324 51.962L39.4375 51.0624L47.75 43.1359C47.75 43.1359 54.6998 43.501 58.4375 43.1359C61.053 42.8806 64.893 41.2819 67.1879 40.231C68.6261 40.718 69.814 41.7528 70.4936 43.1106L71.5 45.1249Z"
          fill="#ED5749"/>
    <path d="M22.2974 51.3891L8.56252 51.0625L3.81252 46.3125C3.81252 46.3125 3.29447 40.4937 3.81252 35.625C3.88377 34.9481 3.99361 34.1614 4.13166 33.3064L16.875 39.1875L22.2974 51.3891Z"
          fill="#ED5749"/>
    <path d="M50.9637 37.1614L46.5625 41.5625C46.5625 41.5625 40.625 40.375 33.5 36.8125C26.375 33.25 21.625 26.125 21.625 26.125L28.9192 18.8308L31.8776 26.226L32.3125 27.3125C32.3125 27.3125 33.0354 27.7578 34.2288 28.4659C34.827 28.8221 35.5425 29.2437 36.3455 29.7098C37.0788 30.1358 37.8863 30.5975 38.7398 31.0799C39.4316 31.4703 40.1559 31.874 40.8996 32.2807C44.2795 34.1303 48.0439 36.0496 50.9637 37.1614Z"
          fill="#ED5749"/>
    <path d="M72.6875 48.6875C67.9375 51.0625 58.4375 55.8125 44.1875 55.8125C33.0836 55.8125 14.7694 55.0915 7.22389 54.7734C6.30598 54.7345 5.43861 54.3424 4.80293 53.6791C4.16724 53.0158 3.8124 52.1325 3.8125 51.2138V46.3125C3.8125 46.3125 29.9375 48.6875 44.1875 48.6875C58.4375 48.6875 66.75 47.5 71.5 45.125L72.6875 48.6875Z"
          fill="#CACAC9"/>
    <path d="M31.8775 26.226C29.1641 28.2788 23.5769 32.0625 19.2499 32.0625C18.4606 32.0544 17.6728 31.9894 16.8927 31.8681C12.9087 31.2773 7.95978 29.4782 5.06079 28.3263C5.28493 27.2457 5.51798 26.1695 5.74806 25.1513C6.52884 21.6956 7.26212 18.9213 7.37493 19L24.7109 15.9407C25.5168 15.7986 26.3469 15.9383 27.0619 16.3362C27.7769 16.7341 28.3332 17.366 28.6371 18.1257L28.8182 18.5785L29.9894 21.5071L31.8775 26.226Z"
          fill="#4E4E4E"/>
    <path d="M29.9894 21.5072L16.8927 31.8681C12.9087 31.2773 7.95978 29.4783 5.06079 28.3264C5.28493 27.2458 5.51798 26.1696 5.74806 25.1513L28.8182 18.5785L29.9894 21.5072Z"
          fill="#ED5749"/>
    <path d="M54.8645 38.227L45.2784 48.6845L37.144 48.5449C38.9565 46.587 42.1612 42.8894 42.9999 40.3749C43.7094 38.2493 43.9944 35.6991 44.1087 33.9891C45.7594 34.8427 47.4115 35.6516 48.9359 36.3211C49.644 36.6343 50.3238 36.9178 50.9636 37.1612C51.0853 37.2073 51.204 37.2533 51.3228 37.2948C52.0921 37.5892 52.8825 37.8249 53.6874 37.9999C54.0659 38.0756 54.4593 38.1513 54.8645 38.227Z"
          fill="#E5493D"/>
    <path d="M73.8141 48.312L72.6266 44.7495C72.6085 44.6965 72.5865 44.6448 72.561 44.5949H72.5622L71.5554 42.5797C71.0489 41.5682 70.3033 40.6955 69.3834 40.0371C68.4635 39.3788 67.3969 38.9547 66.276 38.8016C63.7321 38.4563 58.8953 37.7708 55.083 37.0597C54.6822 36.9854 54.2942 36.91 53.9199 36.8352C53.0817 36.6678 51.9526 36.2945 50.5632 35.7252C48.933 35.0572 46.9449 34.1185 44.6536 32.9346C43.3496 32.2614 41.9165 31.491 40.3934 30.6448C38.9684 29.8536 37.4515 28.9863 35.8851 28.0673C34.6654 27.351 33.735 26.7891 33.2678 26.5053L29.7393 17.6851C29.3311 16.6744 28.589 15.834 27.6366 15.3038C26.6841 14.7736 25.5788 14.5857 24.5047 14.7713L7.22952 17.8199C7.12929 17.8314 7.03092 17.8556 6.9368 17.8919C6.2675 18.1514 6.13524 18.6547 5.64273 20.5274C5.33457 21.699 4.9611 23.2478 4.5912 24.8881C4.36602 25.8856 4.13282 26.9609 3.89784 28.0863C3.50552 29.9878 3.18965 31.681 2.95942 33.117C2.81321 34.0225 2.70277 34.824 2.63167 35.4993C2.12698 40.2399 2.57141 45.7383 2.62499 46.3649V51.2139C2.62202 52.4398 3.09425 53.6191 3.9425 54.5041C4.79074 55.3891 5.94897 55.9109 7.17386 55.9599C14.6039 56.2727 33.0861 57 44.1875 57C58.7179 57 68.5118 52.1031 73.2186 49.7496C73.4743 49.6217 73.6753 49.406 73.7847 49.1419C73.894 48.8778 73.9045 48.5831 73.8141 48.312ZM69.4312 43.6414L69.8865 44.5523C65.5238 46.3526 58.4783 47.2913 48.0047 47.4679L50.782 44.4382C51.7798 44.4658 52.8947 44.4863 54.0145 44.4863C55.6368 44.4863 57.2663 44.4435 58.5528 44.3178C61.0948 44.0696 64.5859 42.7034 67.2225 41.5192C68.1822 41.9495 68.9629 42.6996 69.4312 43.6414ZM28.1136 20.014L28.559 21.1252L16.5689 30.6115C13.1535 30.0302 9.07059 28.6017 6.43167 27.5868C6.54048 27.0772 6.64854 26.5795 6.75512 26.0983L28.1136 20.014ZM20.1368 30.8164L29.4784 23.4255L30.4351 25.8168C28.0786 27.5282 23.6948 30.3804 20.1368 30.8164ZM4.99346 35.7494C5.01647 35.5312 5.04423 35.2973 5.07614 35.0501L15.9715 40.0781L18.7441 46.3161C12.4066 45.8629 7.06402 45.4063 4.92325 45.2187C4.8048 43.3758 4.61777 39.2806 4.99346 35.7494ZM21.4262 46.5031L17.9602 38.7052C17.8431 38.442 17.6343 38.2302 17.3727 38.1093L5.45213 32.608C5.59295 31.7893 5.75747 30.9016 5.94569 29.9447C9.1506 31.1645 13.2574 32.529 16.7205 33.0413L16.7418 33.0441C17.5718 33.1733 18.4101 33.2421 19.25 33.25C21.0397 33.25 22.9945 32.6778 24.8924 31.8461C27.4883 34.4638 30.2019 36.4904 32.9687 37.8746C35.6519 39.2123 38.4258 40.3597 41.27 41.3082C40.3885 42.8881 38.7762 44.9923 36.6399 47.3379C32.3394 47.1769 27.2279 46.8963 21.4262 46.5031ZM44.1265 40.751C44.6537 39.1716 44.9577 37.3914 45.1339 35.841C46.173 36.3585 47.1406 36.8187 48.0368 37.2215L46.9103 38.3481L48.5897 40.0275L50.4006 38.2166C51.2197 38.5332 51.9444 38.7787 52.5862 38.9555L44.7547 47.499C44.5657 47.499 44.3788 47.5005 44.1873 47.5005C42.8642 47.5005 41.3688 47.4789 39.7228 47.4365C41.5995 45.2429 43.4683 42.7239 44.1265 40.751ZM55.2963 39.5136C57.737 39.9551 60.4735 40.3771 62.9061 40.7283C61.3096 41.3182 59.6314 41.8267 58.322 41.9541C56.8143 42.1013 54.7387 42.1237 52.9216 42.1042L55.2963 39.5136ZM33.3624 29.3332L31.4728 31.2228L33.1522 32.9022L35.4763 30.5781C36.2914 31.0523 37.089 31.5101 37.8691 31.9515L36.2228 33.5978L37.9022 35.2772L40.0249 33.1546C41.0163 33.6996 41.9661 34.2102 42.8636 34.6805C42.7456 36.1697 42.5038 37.6464 42.1408 39.0955C39.3613 38.175 36.651 37.0574 34.0307 35.751C31.7299 34.6002 29.3736 32.8788 27.1472 30.7338C28.612 29.9253 30.0283 29.0318 31.3888 28.0578C31.473 28.1633 31.5747 28.2537 31.6894 28.325C31.6984 28.329 32.3281 28.7163 33.3624 29.3332ZM24.9163 17.1102C25.3081 17.0427 25.7106 17.0742 26.0872 17.2018C26.4637 17.3294 26.8024 17.549 27.0725 17.8409L7.36 23.4559C7.74594 21.8368 8.05157 20.6765 8.23578 20.0539L24.9163 17.1102ZM44.1875 54.625C33.1313 54.625 14.6892 53.899 7.27346 53.587C6.66114 53.5623 6.08221 53.3013 5.65827 52.8588C5.23433 52.4163 4.99838 51.8267 4.99999 51.2139V47.6097C7.56009 47.8324 13.6227 48.3462 20.5506 48.8242C26.9229 49.2618 32.4917 49.5673 37.1024 49.7318C39.8016 49.8269 42.1855 49.875 44.1875 49.875C44.5572 49.875 44.9226 49.874 45.2837 49.872C57.7376 49.8176 65.7189 48.8493 70.7905 46.7514L71.2347 48.0846C66.3975 50.4769 57.273 54.625 44.1875 54.625Z"
          fill="black"/>
</svg>
