<svg width="1645" height="3291" viewBox="0 0 1645 3291" fill="none" xmlns="http://www.w3.org/2000/svg">
    <path fill-rule="evenodd" clip-rule="evenodd"
          d="M1136.92 1639.63C1163.26 1640.22 1151.96 1394 1134.38 1348.62C1131.91 1339.43 1129.88 1326.86 1130.29 1315.58C1152.04 1317.76 1149.7 1302.84 1148.58 1284.85C1148.95 1270.57 1149.94 1241.1 1128.12 1252.57C1062.71 1121.36 1133.43 782.181 961.221 750.236C940.47 745.185 919.022 739.959 901.551 725.542C883.064 691.3 873.648 686.926 843.014 684.711C837.342 653.867 826.739 620.915 795.142 608.913C766.213 597.554 732.544 596.648 702.379 602.71C677.412 610.87 675.128 657.372 669.582 680.299C635.955 671.365 594.513 652.572 576.409 695.173C567.641 692.547 559.516 694.252 550.606 697.174C475.927 709.232 403.472 743.084 375.773 813.718C358.664 856.105 370.806 902.245 377.223 946.144C383.207 993.945 367.427 1038.23 360.112 1084.21C349.22 1147.52 347.251 1198.31 354.358 1245.37C335.572 1249.65 334.186 1266.77 341.787 1284.69C344.019 1290.75 346.267 1297.14 351.202 1300.57C361.242 1306.91 374.218 1299.61 385.129 1298.49C387.399 1323.77 391.794 1348.58 399.065 1376.78C396.959 1385.22 394.544 1394.64 392.375 1403.12L391.643 1402.32C366.733 1506.87 292.647 1608.43 315.673 1719.55C317.027 1723.25 319.596 1722.48 321.569 1722.41C332.999 1726.77 343.498 1724 355.025 1724.45C382.366 1724.47 408.78 1727.98 433.284 1731.03C437.763 1760.35 452.326 1808.35 478.296 1819.53C478.733 1819.68 486.431 1818.07 487.075 1818.03C417.939 2098.93 293.544 2358.67 244.132 2645.23C243.839 2648.73 249.518 2646.88 251.381 2647.3C251.126 2655.26 256.253 2657.17 263.433 2660C254.181 2679.38 245.847 2698.73 236.636 2718.16C232.366 2727.78 225.405 2737.28 224.137 2747.57C213.941 2754.09 207.073 2766.86 207.255 2778.77C179.759 2790.42 187.232 2847.94 180.959 2876.42C174.616 2918.87 144.445 2948.5 123.757 2983.3C119.542 2990.29 115.052 2999.44 114.853 3008.21C102.028 3014.24 97.2463 3027.4 98.0949 3049.55C98.0492 3075.46 105.345 3085.33 125.017 3085.96C178.45 3091.31 240.801 3089.13 294.544 3083.05C334.748 3077.92 370.374 3082.17 361.386 3033.77C359.536 3022.05 363.089 3006.27 356.167 2996.79C351.9 2968.55 354.383 2940.1 363.585 2912.21C369.179 2888.72 378.631 2840.21 374.715 2808.7C372.903 2794.12 343.207 2786.1 337.98 2785.39C339.643 2774.42 338.911 2755.24 333.019 2747.62C343.838 2746.1 346.558 2743.24 348.811 2731.2C354.196 2711.7 354.912 2690.52 368.247 2674.09C392.231 2674.4 416.134 2668.3 440.104 2667.56L441.297 2664.8C455.475 2664.62 469.573 2662.11 483.03 2657.19C486.014 2658.6 489.831 2659.82 491.508 2655.29L499.513 2630.21C592.698 2333.06 695.988 2035.2 796.701 1740.23C802.58 1725.89 809.65 1710.65 818.844 1697.87C821.958 1878.35 859.689 2058.64 862.929 2239.03C867.308 2363.13 866.181 2485.92 877.83 2610.46C880.829 2636.82 884.016 2635.94 887.942 2634.32C889.516 2634.57 893.218 2635.36 894.825 2635.7C892.199 2661.89 889.177 2704.41 877.968 2731.2C853.19 2735.03 857.628 2754.08 863.123 2769.87C857.212 2774.93 858.053 2786.72 859.807 2793.25C836.494 2793.27 831.411 2812.27 833.015 2824.26C835.233 2844.32 833.992 2875.52 847.345 2892.65C855.209 2914.48 868.009 2935.09 873.009 2958.62C876.151 2975.93 874.938 3001.15 877.968 3018.32C870.344 3021.85 873.574 3027.38 872.289 3038.08C865.689 3087.08 888.919 3078.75 929.993 3082.13C954.612 3087.57 1142.03 3098.41 1133.94 3065.81C1135.32 3052.54 1129.16 3046.71 1126.52 3033.64C1125.33 3030.17 1101.98 2990.03 1088.05 2974.83C1041.34 2930.85 1043.38 2871.81 1044.86 2803.8C1042.11 2785.36 1027.96 2767.71 1009.91 2769.7C1015.09 2750.01 1005.48 2732.89 985.4 2727.2C987.406 2704.91 989.518 2674.62 996.861 2655.34L989.945 2648.29L999.203 2649.39L1002.28 2641.64L1005.63 2650.14C1021.52 2650.14 1039.46 2646.6 1054.68 2644.94C1057.11 2645.08 1056.03 2641.77 1056.43 2640.49C1070.8 2637.51 1072.38 2629.85 1069.84 2611.61C1073.19 2315.45 1071.73 2022.06 1067.16 1725.34C1089.63 1726.34 1111.54 1718.13 1133.62 1712.66C1141.46 1717.59 1143.69 1700.02 1142.77 1696.23C1141.52 1676.6 1139.1 1657.45 1136.92 1639.63Z"
          fill="#D08B5B"/>
    <path fill-rule="evenodd" clip-rule="evenodd"
          d="M395.588 1371.84C400.206 1388.16 405.372 1412.35 410.785 1428.47C420.515 1473.12 427.813 1518.46 432.591 1563.92C434.191 1579.11 435.441 1594.31 437.277 1609.44C435.411 1619.27 439.245 1647.23 437 1657C398.095 1664.23 343.74 1695.07 312.555 1719.68C302.523 1637.09 348.557 1544.59 368.253 1466.57C369.56 1461.56 370.863 1456.5 372.111 1451.4C377.741 1435.53 388.769 1395.65 392.674 1379.69L393.2 1377.52L393.932 1378.31L395.588 1371.84ZM898.756 722.977C903.132 725.729 907.686 728.053 912.358 730.066C948.718 751.015 1012.55 751.653 1034.52 792.666C1091.29 910.954 1093.06 1111.11 1125 1252C1126.76 1259.77 1143.21 1251.46 1145 1259C1149.44 1277.72 1144.81 1295.71 1150 1312.67C1129.75 1317.9 1077.2 1321.33 1057 1326.67C1062 1344 1115.95 1484.25 1137.35 1684.18C1129.6 1682.43 1122.04 1679.91 1114.63 1677.01L1111.79 1675.78C1070.14 1657.62 1004.69 1629.38 959.492 1622.1C930.869 1447.52 904.711 1262.04 901.449 1083.75L901.31 1075.52C900.345 1022.78 893.893 970.513 885.785 918.467L885.339 914.807C880.947 878.563 877.211 840.807 885.725 805.018C888.48 805.859 880.589 786.598 877 762C874.777 746.766 880.937 729.154 872 714C859.589 692.956 842.702 719.864 844 714C844.653 711.052 827.608 675.235 834 679C840.976 683.108 867 683 877 693C898.852 714.852 902.835 731.471 899.096 723.679L898.756 722.977ZM527.049 706.172C536.143 704.396 562.527 695.491 572 696C566.448 707.882 580 655 623 667C624.882 667.525 669.183 674.29 669 683C668.88 688.841 620.145 695.742 616 703C611.131 711.525 619.421 737.174 616 746C605.724 772.512 610.581 779.846 613.677 777.013C616.131 780.812 616.471 786.211 616.967 791.249L617.528 796.711C626.56 882.907 645.297 967.795 652.124 1054.25C661.995 1150.98 640.651 1246.48 633.779 1342.56C628.169 1429.12 635.759 1521.87 632.695 1608.43C632.277 1613.23 630.785 1619.74 627.762 1623.97L627.465 1624.37L627.434 1624.38L626.238 1624.62C604.311 1629.05 571.594 1642.87 549.034 1642.75C527.983 1601.77 505.166 1496.98 512 1426C517.08 1373.23 524 1305 524 1292C524 1268.49 388 1305 348 1300C334.839 1298.35 334.215 1283.33 332.762 1258.87C332.348 1251.89 347.806 1248.74 348 1241C349.408 1184.92 349.266 1109.97 349.936 1105.56C355.61 1061.67 370.171 1019.05 372.135 974.704C372.789 929.945 354.181 886.215 361.696 841.331C372.629 775.965 430.854 730.598 491.206 713.985C502.997 710.379 514.992 708.52 527.049 706.172Z"
          fill="#9FD8E5"/>
    <path fill-rule="evenodd" clip-rule="evenodd"
          d="M609.656 767.281L609.832 768.64L610 770C614.818 809 645.135 1037.8 648.675 1076.93C655.735 1154.94 637.6 1242.64 637 1321C636.844 1341.26 641.752 1487.36 637.485 1496.38C636.208 1499.08 618.69 1529.64 652 1521C727.242 1501.49 897.804 1428.97 935.082 1428.06C929.491 1427.16 926.323 1422.67 925.584 1416.94C924.882 1411.47 911.588 1286.84 906.086 1157.08C900.028 1014.22 877.716 765.139 877 762C863.046 769.37 844 865 789 865C734 865 662 799 621 733C612.563 719.418 612.775 768.749 609.656 767.281Z"
          fill="#8FA7DF"/>
    <path fill-rule="evenodd" clip-rule="evenodd"
          d="M994.958 2736.97L995.815 2737.43L996.026 2737.57C1000.45 2740.36 1003.44 2745.24 1007.62 2754.42L1009.96 2759.68L1013.96 2760.76C1029.38 2764.94 1040.87 2775.03 1051.26 2798.59L1051.58 2799.31L1051.89 2800.04C1055.38 2808.18 1056.71 2817.18 1056.39 2827.79L1056.36 2828.59L1056.32 2829.72C1056.03 2836.06 1055.41 2841.28 1053.7 2852.35L1052.46 2860.31L1052.1 2862.63C1049.96 2876.71 1049.21 2884.61 1049.42 2893.5C1049.59 2900.48 1050.48 2906.89 1052.21 2912.93C1059.25 2937.53 1073.05 2963.16 1090.83 2987.79C1096.98 2996.3 1124.94 3043.78 1125.18 3044.78L1125.67 3046.78L1126.13 3048.72C1126.21 3049.03 1126.28 3049.35 1126.36 3049.66L1126.93 3052.15L1127.29 3053.72C1128.5 3059.15 1129.4 3063.79 1129.95 3067.67L1130.02 3068.2C1131.02 3075.5 1130.98 3079.82 1128.52 3083.31L1128.35 3083.54L1127.95 3084.09L1127.45 3084.55L1127.15 3084.82L1126.84 3085.09L1125.91 3085.86L1124.79 3086.3C1120.84 3087.84 1107.11 3091.73 1092.69 3094.79C1069.3 3099.74 1044.99 3102.65 1020.95 3102.5C1013.91 3102.46 1006.58 3102.19 998.986 3101.72C978.473 3100.45 956.785 3097.75 933.83 3093.93L929.836 3093.25L925.623 3092.51C910.697 3089.84 889.249 3085.64 885.388 3084.94L885.022 3084.87L884.871 3084.87C876.023 3084.59 870.339 3078.65 868.193 3069.65L868.1 3069.25L868.015 3068.86C866.586 3062.1 866.938 3053.49 868.662 3043.84C870.103 3035.77 873.54 2990.27 873.54 2990.27L860.657 2947.32C860.657 2947.32 833.447 2823.69 837.739 2807.12L837.837 2806.76C838.414 2804.71 862.709 2790.07 864 2787C865.31 2783.89 862.176 2748.02 863.492 2744.34L863.62 2744.01L863.74 2743.7L863.796 2743.58C865.146 2740.54 877.971 2727.72 913 2726C926.282 2725.35 952.208 2723.44 969 2726C984.645 2728.38 991.525 2735.15 994.958 2736.97ZM316.26 2759.93L317.984 2760.33L318.345 2760.13C321.387 2758.45 324.01 2757.55 327.326 2757.72C331.752 2757.93 335.689 2760.25 338.914 2764.39C340.815 2766.82 339.958 2786.8 339.938 2787.76L339.934 2788.01L339.933 2788.46L339.934 2788.59L340.02 2788.65C341.325 2789.53 344.125 2790.09 349.665 2790.4L350.925 2790.47L353.559 2790.58C358.11 2790.8 360.45 2791.02 363.147 2791.59L363.427 2791.66C368.376 2792.74 372.31 2794.84 375.044 2798.56C379.415 2804.51 380.25 2812.84 378.988 2823.48C378.548 2827.19 349.32 2936.77 347.255 2946.17C344.131 2960.39 350.115 3035.77 350.767 3042.77C351.551 3051.2 351.691 3058.79 351.024 3064.88C350.069 3073.62 347.596 3079.73 341.816 3082.47L341.503 3082.61L340.83 3082.91L339.011 3083.32L337.864 3083.57C326.032 3086.1 314.712 3087.41 295.833 3088.8L281.424 3089.83L278.268 3090.06C273.895 3090.4 270.572 3090.68 267.226 3091.02L264.267 3091.33L264.154 3091.34C214.386 3095.2 153.786 3095.58 110.072 3091.79L107.506 3091.56L105.591 3091.5C98.6157 3091.23 94.2752 3086.52 91.9928 3079.47L91.8766 3079.1L91.7641 3078.73C90.4866 3074.43 89.8627 3069.34 89.5475 3062.48L89.4378 3059.69C89.419 3059.13 89.402 3058.55 89.384 3057.88L89.209 3050.75L89.1592 3049.19C89.1251 3048.24 89.0884 3047.45 89.0445 3046.72L88.989 3045.88L88.7888 3044.6C87.4426 3035.82 168.055 2929.31 172.459 2917.45C177.826 2902.99 186.52 2791.43 190.27 2786.99L190.393 2786.84L201.799 2773.95L203.461 2790.95L203.473 2790.93C203.744 2790.35 203.947 2789.78 204.068 2789.26L204.121 2789L204.16 2788.76L204.176 2788.64L204.196 2788.53C206.211 2776.4 212.599 2767.24 222.593 2761.25C230.988 2756.21 241.645 2753.55 254.254 2752.81C272.597 2751.73 292.96 2754.55 316.26 2759.93Z"
          fill="white"/>
    <path fill-rule="evenodd" clip-rule="evenodd"
          d="M675.466 639C678.806 641.642 678.456 648.966 678.786 653.066L678.809 653.335C679.86 665.719 678.437 678.161 675.424 690.185L674.958 692.018C673.519 697.765 672.088 704.653 667.583 708.595C662.466 713.072 654.336 710.174 654.152 702.955C654.058 699.6 655.177 696.369 656.591 693.222C646.677 697.055 636.762 700.846 626.807 704.544C620.447 757.237 693.912 821.749 736.447 844.334C798.388 878.688 850.505 826.068 858.434 764.209C859.766 755.992 860.659 747.547 860.833 739.217L860.843 738.418C860.878 731.53 859.738 722.321 864.217 716.593C860.919 716.515 857.991 716.98 854.764 717.487L854.918 717.755C856.747 721.031 859.333 729.186 853.542 729.806C841.04 728.488 835.224 706.527 832.176 695.994L832.057 695.537C830.089 687.644 827.583 658.993 833.51 655.558C835.333 662.626 834.615 670.302 836.832 677.392C841.876 679.428 851.482 679.978 853.707 680.353C879.688 680.654 894.419 699.341 904.949 721.216C935.82 746.602 980.194 742.239 1013.53 763.147C1115.53 837.233 1082.22 1125.65 1133.03 1248.35C1143.2 1244.13 1153.57 1252.58 1154.93 1262.88C1156.33 1270.81 1155.91 1279.29 1156.02 1287.32L1156.07 1288.32C1156.9 1304.75 1159.74 1323.2 1137.6 1323.56C1137.64 1332.73 1139.36 1341.61 1141.57 1350.46C1153.83 1404.02 1159.18 1459.2 1160.38 1514.12L1160.44 1518.15C1160.84 1547.02 1161.19 1636.31 1144.63 1646.88L1145.4 1653.17C1147.32 1668.9 1149.13 1684.67 1150.14 1700.48C1151.73 1708.68 1146.32 1728.35 1135.28 1723.14C1115.04 1728.16 1095.08 1735.56 1074.05 1735.59C1079.15 1905.44 1076.62 2075.46 1077.37 2245.38C1075.75 2370.63 1082.51 2496.92 1076.6 2621.69L1076.81 2623.45C1078.48 2637.46 1078.98 2649.64 1062.82 2654.44C1062.59 2657.87 1059.95 2659.7 1056.83 2660.1C1047.97 2661.3 1039.11 2662.43 1030.25 2663.52C1021.98 2664.14 1013.14 2666.2 1004.91 2665.21C1005.71 2666.02 1003.55 2666.14 1003.31 2665.56C995.805 2684.43 993.627 2705 991.768 2725.14C1009.99 2732.1 1019.93 2747.75 1016.96 2767.37C1035.34 2768.12 1048.77 2788.59 1051.35 2805.84C1053 2817.74 1051.67 2829.56 1051.14 2841.49C1048.6 2882.24 1054.58 2926.14 1080.83 2958.64C1097.88 2979.05 1120.06 2997.5 1127.5 3024.07C1129.52 3025.02 1131.18 3026.85 1131.91 3029.7L1136.63 3048.25V3048.25L1138.97 3057.53C1140.69 3064.29 1142.22 3071.21 1141.3 3078.21L1141.2 3078.89C1136.6 3123.23 955.166 3101.86 919.754 3098.67C905.519 3096.44 889.899 3097.66 877.083 3090.11C861.36 3079.71 859.395 3058.62 862.093 3041.35L862.318 3039.73C863.41 3032 865.011 3023.91 872.325 3019.59C869.863 3003.58 870.816 2987.21 867.887 2971.26C863.463 2948.71 850.08 2929.13 843.249 2907.48C833.284 2896.37 832.947 2879.07 830.864 2864.87C829.285 2851.09 827.993 2837.23 827.461 2823.37C826.015 2805.05 833.949 2789.95 853.174 2787.56C852.282 2784.08 854.724 2781.08 857.153 2778.86C851.42 2758.47 849.838 2730.47 874.704 2723.51C884.122 2700.11 886.859 2674.75 889.366 2649.8C889.068 2649.74 888.771 2649.68 888.473 2649.63C877.08 2654.39 873.988 2634.04 872.921 2623.3L872.684 2620.74C860.959 2496.54 862.039 2371.62 857.635 2247.04L857.205 2238.04C853.344 2155.96 851.048 2073.15 836.88 1992.17C822.621 1901.91 818.894 1810.17 814.02 1718.96C808.28 1727.9 805.193 1738.16 800.547 1747.69C740.266 1925.13 678.416 2102.04 618.82 2279.73C575.626 2408.38 534.36 2537.71 492.97 2666.96C490.858 2673.58 484.204 2674.95 479.334 2672.83C466.938 2677.14 453.928 2679.58 440.836 2680.01C440.047 2681.82 438.428 2683.15 436.058 2682.89C429.056 2682.12 420.998 2684.32 413.996 2685.14C397.973 2686.72 382.418 2689.18 366.248 2689.42C356.232 2702.11 355.602 2719.31 350.983 2734.41C348.325 2742.11 348.742 2759.38 339.561 2761.55C342.852 2766.62 343.283 2772.72 342.75 2779.01C345.605 2779.66 348.501 2780.89 351.187 2782.14C353.804 2783.47 357.26 2783.36 359.062 2786.03C410.343 2795.34 372.867 2892.91 363.954 2925.18C355.205 2951.56 352.466 2979.11 356.458 3006.65C362.561 3015.1 360.517 3027.66 361.451 3037.67C361.942 3046.6 362.845 3055.67 362.764 3064.61C361.767 3101.77 315.99 3095.72 290.164 3100.54C274.038 3102.42 257.838 3103.73 241.639 3104.75C200.555 3107.31 159.24 3107.5 118.24 3103.52C91.7677 3102.68 86.0755 3085.38 86.1175 3061.72L86.0771 3060.74C85.4806 3044.67 88.0656 3025.28 103.291 3016.93C104.049 3008.44 108.346 2999.87 112.733 2992.45C133.134 2958.09 163.763 2927.97 169.788 2886.73C175.697 2859.73 169.002 2800.3 196.394 2786.23C197.03 2774.07 204.482 2761.68 213.711 2755.11C215.492 2744.98 222.201 2735.67 226.352 2726.36C234.819 2708.6 242.651 2690.55 251.072 2672.77C246.662 2670.9 241.977 2667.46 241.362 2662.58C237.129 2662.63 232.946 2659.89 233.458 2654.72C234.953 2639.74 238.226 2625 241.316 2610.27L241.701 2608.43C296.69 2342.09 410.243 2093.05 476.679 1830.13C467.74 1831.75 459.383 1821.51 454.441 1814.84C438.478 1793.3 429.049 1767.25 424.903 1740.81L417.4 1739.88C392.377 1736.8 367.23 1734.1 341.997 1734.83L335.916 1735.03C329.16 1735.24 322.392 1735.18 315.97 1732.75C311.489 1733.16 306.825 1730.75 305.717 1725.72C287.029 1632.39 332.966 1543.83 365.869 1459.5C373.62 1438.77 379.137 1417.73 384.396 1396.26C384.57 1395.57 385.657 1395.71 385.627 1396.43C384.602 1420.3 378.695 1444.37 372.696 1467.37C353 1545.39 311.966 1621.89 321.998 1704.48C353.184 1679.88 390.222 1662.78 429.127 1655.55C431.373 1645.78 433.854 1636.07 435.72 1626.24C433.885 1611.11 432.634 1595.92 431.034 1580.72C426.257 1535.27 418.958 1489.93 409.228 1445.27C394.134 1400.34 380.957 1354.8 376.245 1307.42L375.387 1307.59C364.922 1309.72 353.392 1314.34 343.684 1307.66C337.522 1303.38 334.855 1296.29 332.366 1289.47C325.254 1272.95 323.938 1251.24 344.062 1244.33C336.56 1191.8 341.434 1136.97 350.501 1084.94C357.761 1039.33 373.689 994.391 367.727 947.7C361.108 902.832 348.766 855.839 366.607 811.918C395.93 738.62 470.183 703.843 543.208 692.651L544.391 692.302C553.425 689.622 561.651 686.797 571.064 688.828C593.266 647.548 629.273 664.338 664.434 673.538C666.809 666.538 668.786 659.377 670.647 652.222C671.806 648.577 671.423 640.168 675.466 639ZM878.979 3039.61L878.888 3041.41C877.958 3060.74 879.005 3077.3 902.92 3077.17C919.376 3078.93 935.835 3080.65 952.317 3082.14L958.499 3082.69C1007.42 3087.06 1056.93 3089.2 1105.75 3082.63L1107.79 3082.36C1111.87 3081.77 1119.42 3081.89 1122.65 3078.87C1126.55 3073.62 1122.04 3063.6 1121.09 3057.51C1044.91 3056.62 968.625 3053.81 892.39 3054.78C884.372 3054.82 880.753 3047.95 881.491 3041.7C880.589 3041.09 879.738 3040.38 878.979 3039.61ZM105.475 3029.92C101.729 3043.12 102.652 3055.59 104.768 3068.81C105.826 3082.65 112.397 3083.54 124.288 3083.86C170.708 3088.15 217.464 3087.25 263.897 3083.66C288.784 3080.97 314.358 3081.07 338.782 3075.55C350.434 3070.38 343.707 3054.11 344.104 3044.13C289.253 3079.55 206.298 3075.05 146.485 3054.56L145.526 3054.15C131.377 3048.19 113.291 3044.44 105.475 3029.92ZM196.333 2791.61C190.027 2798.73 189.896 2819.03 189.631 2825.94L189.598 2826.72C188.889 2841.23 189.002 2855.77 188.375 2870.28C188.837 2931.39 153.62 2961.86 127.467 3011C120.314 3022.92 130.72 3024.61 139.185 3028.48C193.996 3054.04 258.83 3057.94 316.092 3038.38C344.875 3029.99 338.591 3010.59 336.147 2986.85C333.741 2938.33 359.216 2894.62 366.752 2847.7L366.955 2846.48C369.201 2832.7 373.084 2797.39 351.177 2804.94C346.411 2807.88 341.929 2804.2 341.366 2799.69C340.798 2799.78 340.216 2799.83 339.654 2799.84C337.121 2815.53 334.496 2831.19 331.975 2846.88C334.096 2848.23 336.085 2849.75 337.849 2851.5C339.992 2853.63 338.495 2858.1 335.265 2857.82C333.605 2857.68 331.965 2857.43 330.334 2857.12C329.041 2870.75 307.43 2863.1 313.673 2852.17C282.602 2841.42 248.371 2842.27 216.817 2850.52L216.687 2850.58C214.244 2851.55 196.68 2855.08 202.33 2857.82C204.685 2858.11 199.323 2861.2 198.383 2856.42C198.08 2850.43 211.732 2847.48 215.915 2845C205.365 2829.87 198.157 2810.26 196.333 2791.61ZM992.342 2743.7C963.072 2727.82 927.101 2733.71 895.354 2736.52L894.02 2736.67C885.941 2737.55 874.68 2738.08 870.971 2746.42C865.601 2759.78 874.502 2789.67 877.298 2804.53L878.25 2808.43C880.569 2817.94 882.768 2827.37 883.563 2837.21C883.583 2837.52 883.285 2837.74 883.009 2837.74C871.888 2825.83 866.889 2809.82 861.694 2794.55C859.479 2795.81 857.316 2797.18 855.276 2798.69C847.305 2826.14 844.637 2855.36 850.948 2883.36L851.174 2884.34C858.97 2918.94 883.243 2947.24 885.551 2983.4C887.093 2998.01 886.748 3012.99 890.944 3027.19C893.331 3027.72 895.412 3029.48 896.347 3031.7L910.031 3031.71C976.169 3031.83 1042.33 3032.43 1108.42 3035.16C1106.29 3016.53 1089.89 3000.01 1078.33 2987.24C1042.88 2950.85 1027.54 2898.59 1033.38 2848.22C1036.46 2823.02 1050.49 2783.42 1016.16 2774.11C1013.65 2794.65 1010.26 2815.12 1008.39 2835.74C1014.87 2838.87 1014.47 2847.13 1006.55 2846.97C1003 2858.95 991.087 2854.11 992.374 2842.81C948.802 2826.68 923.805 2821.27 881.357 2845.57C880.169 2845.39 884.619 2840.62 885.182 2839.77C898.597 2825.28 919.198 2818.46 938.526 2818.22C957.686 2818.22 975.705 2825.45 993.778 2831.05C996.495 2811.59 998.324 2792.01 1000.48 2772.49L1000.94 2768.31C1002.07 2758.06 1001.66 2749.59 992.342 2743.7ZM292.133 2994.96C298.51 2993.53 304.375 2991.37 310.854 2992.84C333.656 3010 240.487 3014.84 232.555 3013.62C212.361 3013.03 192.157 3010.46 172.722 3004.74L171.368 3004.34C169.454 3003.8 150.081 2998.4 153.755 2995.98C180.041 2998.32 205.776 3003.15 232.555 3001.9C245.914 3001.62 259.325 3000.67 272.54 2998.66C279.112 2997.65 285.653 2996.42 292.133 2994.96ZM908.107 2973.69C903.933 2967.43 924.284 2975.75 926.931 2975.82C943.784 2979.99 960.933 2983.15 978.245 2984.46C989.851 2985.34 1001.58 2985.53 1013.21 2984.95C1021.82 2984.66 1030.33 2983.38 1038.89 2982.5L1039.2 2982.49C1044.28 2982.31 1054.47 2985.47 1048.19 2991.53C1038.43 2999.12 1023.98 2996.81 1012.28 2997.92C976.753 2997.8 939.13 2992.07 908.107 2973.69ZM240.143 2928.13C250.385 2926.27 306.765 2925.66 301.145 2943C299.781 2946.29 296.664 2947.38 293.384 2946.87C258.491 2938.36 220.852 2933.91 186.07 2945.64C185.506 2945.84 185.117 2944.91 185.67 2944.66C202.771 2936.08 221.07 2930.07 240.143 2928.13ZM971.949 2911.17C981.155 2910.47 990.414 2910.72 999.623 2911.41L1003.39 2911.71C1007.28 2912.02 1011.25 2912.43 1014.96 2913.56L1015.7 2913.79C1020.75 2915.43 1032.15 2924.13 1023.5 2928.32C1014.21 2931.34 1006.36 2927.75 997.396 2925.45C972.419 2919.52 946.162 2921.52 921.415 2927.59L924.9 2928.71V2928.71C925.116 2928.55 925.393 2928.92 925.187 2929.09C922.687 2931.28 919.251 2930.5 917.479 2927.78C917.17 2927.32 917.366 2926.57 917.857 2926.31C934.63 2917.49 953.126 2912.61 971.949 2911.17ZM193.995 2908.96C222.204 2896.45 254.887 2895.07 285.14 2898.69L287.295 2898.96C296.733 2900.07 309.043 2900.58 314.443 2909.39C316.308 2912.44 314.381 2915.94 311.367 2917.04C302.489 2920.29 292.051 2913.78 283.522 2911.36C258.298 2904.44 231.362 2903.71 205.714 2908.49C205.893 2909.45 201.646 2909.03 200.721 2909.37C199.561 2909.3 191.868 2911.85 193.995 2908.96ZM905.36 2889.42C929.969 2877.43 958.423 2874.57 984.991 2880.76L986.096 2881.08C997.868 2884.39 1016.82 2888.3 1021.04 2900.79C1021.95 2903.6 1019.97 2907.4 1017.01 2907.97C1006.97 2909.9 997.858 2902.55 988.774 2899.02C962.049 2888.95 931.796 2886.55 904.16 2893.95C903.975 2895.04 903.791 2896.12 903.595 2897.21C904.068 2896.9 904.56 2897.6 904.181 2897.98C899.771 2901.08 895.182 2893.26 905.36 2889.42ZM257.407 2868.34C277.319 2867.01 297.399 2869.55 316.622 2874.81L320.237 2875.81C325.491 2877.29 332.296 2879.61 333.061 2885.3C333.358 2887.56 332.794 2889.12 330.959 2890.53C324.267 2895.54 309.713 2885.03 301.392 2883.79C271.184 2874.7 238.76 2874.83 208.161 2881.79L207.118 2882.03L207.857 2887.29C208.581 2889.81 201.857 2883.88 204.412 2881.17C220.565 2872.93 239.413 2869.82 257.407 2868.34ZM924.132 2858.93C940.113 2856.04 956.599 2855.49 972.757 2856.94L974.666 2857.12C984.314 2857.97 1015.58 2859.22 1008.18 2875.57C1006.94 2878.3 1003.34 2878.65 1001.02 2877.47C993.203 2873.5 984.663 2872.07 976.04 2870.76C945.596 2866.51 914.493 2868.25 884.772 2876.47C885.418 2877.49 884.085 2878.69 882.824 2878.93C879.687 2879.51 879.687 2875.76 881.03 2873.77C882.63 2871.41 885.818 2870.55 888.278 2869.51C899.724 2864.51 911.861 2861.13 924.132 2858.93ZM318.851 2767.96L317.031 2767.53C286.533 2760.34 218.919 2747.44 211.917 2789.55C209.431 2808.09 217.629 2826.18 217.023 2844.55C248.647 2831.66 283.618 2831.79 316.473 2840.31C319.384 2821.25 322.162 2802.17 325.136 2783.12L325.616 2780.84C326.94 2774.42 327.389 2769.39 318.851 2767.96ZM250.927 2775.63C257.573 2769.92 268.656 2770 275.175 2776.23C281.137 2777.49 285.341 2783.83 285.438 2789.27C294.502 2805.24 283.572 2827.3 266.266 2831.29C227.19 2839.54 209.721 2785.74 250.927 2775.63ZM927.945 2750.15C960.64 2744.3 972.518 2785.87 945.683 2802.73C907.776 2821.79 882.518 2761.87 927.945 2750.15ZM267.106 2657.81C267.588 2660.99 266.028 2663.25 264.164 2665.39C257.46 2692.93 247.372 2718.56 237.425 2744.97C269.785 2739.59 300.359 2744.28 328.992 2753.09C329.334 2745.03 332.997 2736.68 335.542 2729.09C340.497 2714.66 346.487 2700.61 353.396 2687.04L354.264 2685.34C356.745 2680.51 359.134 2675.47 362.065 2670.84C330.394 2666.51 298.723 2662.6 267.106 2657.81ZM904.959 2651.94L904.116 2655.77C900.481 2672.4 897.031 2689.18 891.621 2705.33L891.547 2705.66C890.718 2709.74 888.856 2728.61 887.684 2715.29C886.781 2717.3 885.818 2719.28 884.792 2721.23L892.634 2720.3C921.884 2716.85 952.399 2714.11 981.085 2721.47C978.108 2698.36 982.49 2676.27 988.887 2654.41C960.849 2653.76 933.058 2653.97 904.959 2651.94ZM373.989 2680.67C372.964 2681.64 371.96 2682.62 371.006 2683.65C372.298 2683.32 373.59 2683 374.789 2682.72C374.74 2681.96 374.204 2681.39 373.989 2680.67ZM1005.83 2659.47L1004.92 2661.62V2661.62C1005.39 2661.34 1005.92 2661.07 1006.48 2660.83C1006.22 2660.41 1006.01 2659.97 1005.83 2659.47ZM249.78 2654.75C249.449 2655.99 249.196 2657.34 248.6 2658.46C249.072 2658.55 249.554 2658.64 250.037 2658.74C250.62 2657.56 251.236 2656.41 251.902 2655.27C251.194 2655.11 250.487 2654.94 249.78 2654.75ZM493.657 1291.56C490.786 1292.95 487.793 1293.3 483.836 1293.47C451.681 1294.81 419.629 1298.54 388.056 1304.91C389.799 1330.51 397.57 1355.32 404.965 1379.73L406.499 1385.08C431.486 1472.54 453.297 1563.94 448.905 1655.42C449.151 1655.51 449.386 1655.63 449.613 1655.75C449.213 1656.87 448.927 1658.02 448.526 1659.13L448.269 1659.79L446.769 1663.52C445.94 1665.6 445.134 1667.68 444.434 1669.81C443.207 1670.26 441.699 1670.58 440.262 1670.79C432.967 1719.22 439.903 1773.53 472.774 1811.4C461.055 1787.76 456.968 1760.9 457.484 1734.63L457.576 1730.61C457.711 1725.65 458.007 1720.7 459.516 1715.99C459.578 1715.74 459.906 1715.79 459.989 1715.99C466.948 1737.54 467.401 1760.94 474.239 1782.65L474.762 1784.31C480.169 1801.32 489.2 1823.22 504.884 1832.01C507.771 1832.87 512.213 1831.85 513.714 1835.19L513.814 1835.43L513.906 1835.4C506.905 1812.41 502.397 1788.63 500.853 1764.63L500.752 1763C500.26 1754.62 499.174 1745.65 501.255 1737.47C505.223 1744.95 504.237 1757.16 506.083 1766.21L506.157 1766.72C507.615 1776.5 521.654 1851.22 530.875 1841.23C532.78 1838.48 532.284 1833.16 532.342 1829.88L532.35 1829.56C532.495 1824.82 532.443 1820.08 532.28 1815.35C531.284 1787.44 526.957 1758.81 535.436 1731.63C536.852 1727.05 544.542 1726.18 545.475 1731.63C549.206 1753.4 552.773 1775.19 556.341 1796.98C558.942 1810.29 558.834 1825.31 566.737 1836.79C566.83 1811.72 565.443 1786.73 564.245 1761.7L563.924 1760.66C562.977 1757.5 562.043 1753.39 564.215 1750.71C565.087 1745 573.413 1745.65 574.119 1751.63C574.274 1752.88 574.386 1754.15 574.509 1755.4C577.268 1758.87 579.831 1762.41 583.09 1765.4C604.859 1720.83 533.634 1643.87 523.801 1593.55C494.84 1495.55 511.49 1392.8 519.914 1293C511.203 1291.97 502.421 1291.69 493.657 1291.56ZM908.127 727.542C923.352 758.184 934.528 790.613 942.268 823.987C944.654 834.291 930.871 840.615 925.303 831.588L925.136 831.309C918.289 819.854 908.084 809.765 895.168 805.82C886.367 842.816 890.656 881.913 895.229 919.27C903.336 971.315 909.788 1023.58 910.754 1076.32L910.8 1079.15C913.626 1259.26 940.023 1438.56 968.935 1614.91C1015.16 1622.35 1057.47 1643.35 1100.08 1661.81C1107.48 1664.71 1115.04 1667.24 1122.8 1668.98C1101.39 1469.05 1019.98 1281.56 994.824 1082.36C988.175 1030.55 987.863 977.944 997.048 926.437C997.203 925.45 998.596 925.783 998.658 926.655C999.666 947.813 1003.27 968.694 1005.41 989.737C1006.87 977.719 1010.23 965.545 1012.95 954.026C1016.27 942.756 1017.5 924.664 1027.23 917.317L1027.85 915.188V915.188C1028.1 914.273 1029.46 914.658 1029.24 915.572C1029.14 916.008 1029.04 916.434 1028.94 916.87C1035.2 918.537 1029.36 925.973 1027.81 929.532C1017.77 956.532 1014.79 985.758 1007.94 1013.59C1017.85 1100.46 1035.7 1186.23 1057.68 1270.67C1077.88 1265.33 1098.15 1260.18 1118.4 1254.96C1073.23 1107.28 1099.64 942.476 1031.97 801.469C1006.61 754.147 944.172 760.576 908.127 727.542ZM564.954 700.545C555.481 700.036 545.586 705.198 536.492 706.975C524.435 709.322 512.44 711.182 500.649 714.787C440.298 731.4 382.072 776.768 371.139 842.134C363.624 887.017 382.232 930.748 381.578 975.506C379.615 1019.85 365.053 1062.47 359.379 1106.37C352.554 1151.25 350.204 1198.24 356.058 1243.34C410.197 1227.92 466.737 1226.95 522.253 1234.92C517.622 1166.55 523.698 1097.85 527.06 1029.53C529.48 985.655 533.622 941.582 532.156 897.623C532.125 896.646 533.704 896.407 533.855 897.384C550.504 987.166 540.74 1078.31 539.056 1168.86C537.989 1191.73 540.81 1214.83 539.672 1237.58C564.91 1243.03 563.998 1272.59 556.28 1292.07C554.912 1296.76 550.269 1295.94 546.51 1295.37C542.437 1299.67 532.72 1294.06 527.183 1294.06C522.848 1406.45 496.514 1526.5 550.477 1631.55C573.037 1631.67 594.755 1623.86 616.681 1619.42L617.877 1619.18L617.908 1619.17C621.131 1614.96 622.707 1608.19 623.138 1603.23C626.202 1516.68 616.612 1429.92 622.222 1343.36C629.095 1247.28 650.438 1151.78 640.567 1055.05C633.74 968.598 615.003 883.71 605.971 797.514L605.513 793.054C604.951 787.74 604.737 781.868 602.12 777.816C586.883 791.758 574.098 808.336 564.943 826.988C559.875 835.998 546.299 831.989 546.09 821.816C544.138 803.653 543.849 785.422 545.826 767.255L546.007 765.652C548.458 742.912 555.301 721.206 564.954 700.545ZM1131.4 1324.31C1111.77 1325.35 1092.13 1327.54 1072.47 1327.28L1074.45 1334.74C1098.24 1424.22 1123.58 1513.54 1138.52 1605.1L1139.07 1596.51C1139.61 1587.93 1140.12 1579.34 1140.46 1570.73C1144.7 1488.45 1138.23 1406.27 1131.4 1324.31ZM620.543 753.229C620.625 756.948 620.809 760.656 621.098 764.354C630.167 778.017 629.361 796.179 631.391 811.897C642.773 896.78 659.535 981.315 665.183 1067.08C670.437 1135.69 661.857 1204.06 653.087 1271.98C642.271 1349.77 643.405 1428.36 645.918 1506.67C687.476 1468.89 746.543 1462.26 798.979 1450.53L801.473 1450.02C841.791 1441.72 882.025 1429.7 916.279 1406.09C891.644 1229.11 897.442 1049.86 872.254 873.036C871.477 859.112 871.319 845.109 872.469 831.196C871.363 816.133 871.033 800.989 871.004 785.887C859.966 830.501 822.982 873.604 774.525 872.196C722.967 869.156 679.205 826.747 645.59 790.395C636.476 779.551 627.413 766.888 620.543 753.229ZM1073.98 1324.39L1071.66 1324.28L1071.8 1324.79V1324.79C1072.28 1324.69 1072.77 1324.6 1073.25 1324.52L1073.98 1324.39ZM1137.94 1263.96C1137.57 1263.85 1136.94 1263.85 1136.25 1263.88C1135.24 1266.2 1133.21 1268.13 1130.86 1268.76L1111.18 1274.1C1094.79 1278.55 1078.38 1282.97 1061.96 1287.28C1064.71 1297.96 1067.51 1308.64 1070.34 1319.3C1092.75 1312.04 1117.55 1313.69 1140.39 1309.01C1140.11 1296.68 1139.44 1284.3 1139.23 1271.95C1139.18 1269.93 1139.59 1266.69 1138.56 1264.89C1137.92 1263.73 1138.56 1264.16 1137.94 1263.96ZM385.422 1305.45L384.806 1305.58V1305.58C385.011 1306.14 385.196 1306.7 385.37 1307.28C385.381 1306.66 385.39 1306.06 385.422 1305.45ZM531.265 1246.14C489.059 1239.95 446.135 1236.3 403.568 1240.51C384.313 1243.13 364.768 1245.93 345.898 1249.51C339.335 1259.66 346.595 1284.35 354.766 1292.16C357.216 1293.1 361.43 1291.28 363.778 1290.75C381.395 1286.74 399.183 1283.52 417.061 1281C417.593 1281.67 418.372 1282.11 419.336 1282.01L423.444 1281.63C448.101 1279.37 472.977 1277.71 497.687 1279.13L497.871 1279.27V1279.27C514.543 1280.5 531.157 1283.14 547.76 1285.06C554.314 1267.79 553.185 1247.99 531.265 1246.14ZM838.36 683.115C839.99 688.679 841.95 694.085 844.387 699.34C846.932 698.631 850.441 699.2 852.312 700.815L853.108 700.67C855.296 700.251 857.925 699.611 858.608 699.537C888.764 695.333 886.467 735.98 886.576 756.408C886.761 766.65 886.966 776.902 887.274 787.144C895.904 784.182 907.443 789.506 914.986 794.217C909.081 774.409 902.14 754.922 894.399 735.779L892.934 732.048C886.835 716.604 880.083 700.965 867.127 690.21C857.277 687.614 847.734 687.142 838.36 683.115ZM619.713 672.917C591.684 662.844 580.58 685.735 572.807 708.564C563.641 733.847 561.139 761.684 562.667 788.889L563.611 787.63C573.923 773.779 588.793 750.915 607.595 754.59C607.409 744.08 607.787 732.535 609.788 721.621C608.62 714.578 608.322 707.463 609.133 700.348C609.561 691.426 619.207 692.779 625.556 691.518C631.052 687.831 637.706 686.346 644.39 688.942C649.435 688.267 654.479 687.623 659.523 686.979C660.297 685.265 660.923 683.543 661.574 681.786C647.614 678.878 633.657 675.881 619.713 672.917Z"
          fill="black"/>
    <path fill-rule="evenodd" clip-rule="evenodd"
          d="M867.683 326.718C802.051 273.262 696.877 255.905 626.622 309.836C572.034 360.449 549.443 504.275 559.104 576.547C561.79 622.902 597.131 675.443 649.008 660.782C657.817 659.913 666.371 656.529 675.261 655.82C685.896 654.593 696.611 654.572 707.225 656.075C730.352 659.353 750.854 671.658 773.3 677.411C814.951 688.085 861.424 680.905 897.276 656.861C1015.75 578.803 962.086 402.268 867.683 326.718V326.718Z"
          fill="#D08B5B"/>
    <path fill-rule="evenodd" clip-rule="evenodd"
          d="M858.942 678.695C860.161 678.274 861.377 677.835 862.585 677.385C862.664 677.665 862.794 677.934 862.945 678.195C863.115 678.615 863.284 679.024 863.473 679.434C861.957 679.445 860.439 679.174 858.942 678.695M856.508 160.674C855.97 159.465 855.35 158.305 854.651 157.184C856.348 157.735 858.045 158.495 859.582 159.475C858.544 159.825 857.525 160.225 856.508 160.674M597.267 318.835C597.197 318.823 597.128 318.813 597.059 318.801C597.949 316.426 599.535 314.184 601.286 312.565C601.6 312.274 601.941 312.005 602.27 311.727C600.411 313.946 598.724 316.313 597.267 318.835M1071.61 567.184C1070.73 558.844 1069.62 550.535 1068.17 542.274C1066.78 534.365 1065.62 525.905 1061.59 518.885C1057.6 511.895 1053.6 505.104 1048.85 498.955C1049.53 495.815 1050.43 492.865 1051.21 490.485C1055.7 476.785 1060.12 459.385 1050.79 446.655C1048.62 443.705 1045.98 441.445 1042.95 439.405C1041.67 438.535 1039.53 437.745 1038.54 436.545C1037.84 435.695 1038.08 436.155 1038.05 435.735C1037.88 433.475 1043.17 428.705 1044.41 426.915C1046.73 423.604 1048.45 419.875 1049.77 416.065C1054.98 400.985 1051.44 384.375 1048.3 369.264C1046.65 361.255 1044.82 353.225 1044.22 345.045C1043.66 337.365 1044.71 329.865 1045.33 322.225C1045.93 314.684 1045.77 306.905 1042.54 299.924C1040.97 296.524 1038.58 293.524 1035.68 291.184C1032.85 288.895 1029.31 287.565 1026.55 285.285C1023.79 283.014 1024.58 279.945 1025.3 276.805C1026.29 272.545 1027.54 268.315 1027.66 263.915C1027.88 256.245 1024.75 248.774 1019.87 242.975C1014.84 236.985 1007.66 232.934 999.894 232.024C996.342 231.604 992.849 232.315 989.317 232.065C985.824 231.825 985.067 230.075 984.407 226.875C982.891 219.545 983.509 212.305 979.908 205.465C976.714 199.385 971.035 195.264 964.759 192.835C953.254 188.375 939.872 189.295 927.737 191.924C920.573 170.805 898.21 156.955 876.207 156.785C872.773 150.945 866.955 146.585 860.32 144.024C849.344 139.774 837.717 142.255 826.282 142.255H826.233C825.084 142.184 823.936 142.155 822.79 142.165C821.711 142.104 820.633 142.014 819.556 141.895C806.543 140.354 793.67 135.014 780.778 140.245C775.03 142.575 770.459 146.165 767.567 150.745C763.206 151.934 758.904 153.295 754.684 154.875C736.391 155.354 718.27 165.184 709.02 181.115C695.998 179.635 681.868 182.145 673.255 192.805C671.012 195.579 669.274 198.838 668.123 202.298C659.341 205.144 651.216 210.215 645.898 217.853C641.045 224.823 640.113 233.835 643.395 241.317C635.556 247.008 629.43 255.155 626.479 264.775C624.686 270.62 624.419 276.659 625.573 282.412C617.547 284.196 609.87 287.503 603.068 292.466C595.94 297.665 587.038 305.94 586.569 315.464C586.534 316.163 586.561 316.862 586.617 317.559C570.925 316.454 554.925 319.118 544.318 331.725C536.354 341.184 532.893 353.365 535.018 364.455C516.348 368.255 498.694 378.035 486.38 392.495C477.43 403.005 469.477 416.365 469.955 430.674C470.104 434.985 471.113 439.325 472.86 443.335V443.344C472.111 444.755 471.342 446.325 470.603 447.995C459.038 456.104 450.636 468.815 445.906 482.825C442.085 494.174 439.68 508.915 443.76 520.465C444.38 522.225 445.168 523.885 446.086 525.424C445.317 526.245 444.589 527.065 443.881 527.895C436.086 537.024 428.193 548.524 428.733 561.094C428.952 566.155 430.827 571.245 433.892 575.424C423.114 586.375 414.433 600.195 415.29 615.625C416.029 629.055 423.384 642.695 434.909 649.145C432.984 659.495 435.558 670.415 443.6 678.495C447.613 682.535 452.342 685.195 457.352 686.615C458.47 698.805 469.266 708.615 480.732 711.434C482.868 711.965 485.004 712.285 487.128 712.434C497.447 717.505 509.751 716.924 520.278 712.274C523.382 716.225 527.423 719.445 532.133 721.755C534.039 722.695 536.056 723.475 538.161 724.104C553.029 728.514 568.278 722.535 581.279 715.555C581.698 715.335 582.467 715.055 583.145 714.745C584.942 716.755 588.215 718.745 589.921 719.725C595.71 723.055 602.785 724.604 609.431 724.165C617.224 723.645 624.099 721.065 630.465 717.395C631.394 717.555 632.331 717.645 633.27 717.695C639.258 718.014 644.596 716.115 649.396 713.115C652.569 713.535 655.822 713.495 659.115 712.915C666.37 714.764 673.436 711.825 679.113 707.155C681.628 705.085 683.753 702.655 686.029 700.335C688.393 697.924 690.19 697.365 692.953 695.745C699.49 691.915 700.278 682.205 697.444 675.184C697.983 673.955 698.293 672.585 698.293 671.065C698.272 657.805 692.176 645.645 684.692 635.035C681.348 630.305 677.716 625.674 673.734 621.475C670.531 618.104 666.031 612.635 661.291 611.264C661.002 611.055 660.701 610.844 660.402 610.645C661.321 607.424 661.859 604.145 661.63 600.795C661.39 597.354 660.282 594.094 658.507 591.315C664.464 579.745 666.979 567.055 665.782 553.815C670.63 546.924 674.304 539.315 676.199 530.975C677.366 525.815 678.036 520.385 677.945 515.094C677.905 512.555 676.977 509.344 676.958 506.715C677.098 507.545 678.176 504.445 678.595 503.674C683.403 494.725 689.58 487.745 690.609 477.195C691.207 471.024 689.75 464.205 686.058 459.145C688.423 449.805 688.393 439.774 684.671 430.865C683.673 428.485 682.526 426.155 681.209 423.945C681.817 422.085 682.377 420.205 683.094 418.514C683.375 417.844 683.653 417.165 683.932 416.485C686.637 414.094 689.152 411.485 691.268 408.924C695.957 403.255 699.54 396.755 699.989 389.264C700.209 385.514 699.331 381.924 698.243 378.365C697.763 376.755 697.474 374.965 696.905 373.395C696.587 372.524 695.817 371.635 695.549 370.815C695.488 370.635 695.438 370.485 695.398 370.365C695.438 370.245 695.469 369.995 695.469 369.524C695.478 365.934 695.947 362.424 695.968 358.965C699.251 362.285 703.203 364.764 707.693 366.215C716.743 369.125 726.184 367.805 734.196 363.315C742.819 369.235 752.507 374.594 762.667 376.745C768.703 378.024 774.751 377.495 780.808 378.285C786.825 379.075 792.644 381.705 798.311 383.755C810.925 388.325 823.507 393.014 836.161 397.465C846.379 401.055 857.436 403.905 868.134 401.885C871.138 406.524 875.039 410.445 880.039 413.325C883.62 415.375 887.552 416.764 891.613 417.455C895.206 418.065 899.418 417.825 902.331 420.295C905.175 422.695 906.951 426.274 909.505 428.975C912.35 431.995 915.862 434.615 919.544 436.495C922.498 438.005 925.513 439.094 928.575 439.805C928.307 446.635 928.046 453.455 927.966 460.295C927.818 475.155 927.877 490.014 927.678 504.875C927.478 519.684 927.009 534.495 926.231 549.285C925.492 563.165 924.454 577.094 921.151 590.635C910.194 635.565 869.151 667.735 823.208 669.375C809.568 669.865 796.065 667.945 783.023 663.924C769.512 659.755 757.447 651.174 743.596 648.535C739.974 647.854 736.561 651.505 738.637 655.014C742.21 661.045 746.55 664.725 752.487 668.354C758.705 672.145 765.63 674.955 772.465 677.415C785.039 681.934 798.341 684.555 811.683 685.285C821.861 685.844 832.079 685.145 842.048 683.225C842.748 685.375 843.985 687.466 844.922 689.456C845.062 689.746 845.532 689.545 845.442 689.245C845.291 688.745 845.192 688.305 845.153 687.945C848.504 692.325 853.683 695.355 859.003 696.826C862.754 697.866 866.737 698.184 870.599 697.745C871.846 697.604 873.033 697.395 874.211 697.135C878.142 700.585 883.171 702.885 888.22 704.035C887.353 709.315 889.957 715.076 895.995 716.576C898.529 717.206 900.964 717.215 903.399 716.985C905.365 717.905 907.481 718.625 909.726 719.115C912.649 719.755 916.141 718.934 918.347 716.815C919.554 717.665 920.682 718.255 921.799 719.604C926.401 725.165 936.319 720.735 936.758 714.305C938.215 714.305 939.682 714.325 941.15 714.375C941.498 714.535 941.847 714.695 942.206 714.865C948.623 717.854 955.269 720.465 962.365 718.115C963.671 717.684 964.868 717.135 965.956 716.495C970.956 716.945 975.885 716.955 980.955 715.315C983.949 714.344 986.762 712.805 989.107 710.785C996.931 713.085 1005.18 714.125 1012.97 711.274C1018.79 709.145 1023.49 705.785 1026.79 701.354C1031.84 701.535 1036.97 700.315 1041.59 697.905C1049.49 693.805 1055.03 686.015 1058.89 678.206C1067.39 660.976 1072.42 642.465 1074.4 623.375C1076.34 604.575 1073.57 585.875 1071.61 567.184"
          fill="black"/>
    <path fill-rule="evenodd" clip-rule="evenodd"
          d="M850.944 587.352C852.478 584.685 856.01 582.214 859.242 582.593C873.721 584.291 873.696 601.845 868.105 612.093C863.148 621.18 852.889 626.514 842.621 625.735C831.834 624.916 822.643 618.574 818.598 608.483C815.923 601.808 814.687 589.485 821.803 585C821.935 584.916 822.153 584.937 822.258 585.058C825.67 589.027 825.804 594.986 828.791 599.405C831.569 603.515 835.885 606.909 840.941 607.433C844.717 607.825 848.537 606.463 850.014 603.073C850.813 601.239 850.722 600.244 850.422 598.982L850.149 597.885C849.203 594.044 848.778 591.119 850.944 587.352ZM854.814 510.367C862.366 514.957 873.872 525.66 865.748 537.04C856.186 547.073 842.419 535.569 835.634 530.366C829.343 526.334 822.275 536.704 828.112 541.413C877.136 577.708 897.031 511.567 858.634 504.97C854.406 504.243 852.836 508.947 854.814 510.367ZM775.072 478.893C779.707 471.939 790.287 472.963 792.84 481.215C794.223 485.685 792.313 489.703 792.412 494.167C792.495 497.938 792.248 502.14 791.092 505.792C788.456 514.12 780.966 520.002 772.105 519.758C763.273 519.515 755.494 513.925 751.795 506.052C748.083 498.149 748.869 489.97 751.579 481.934C751.709 481.548 752.215 481.361 752.52 481.686C755.723 485.09 758.068 488.684 760.494 492.496L762.981 496.403C764.881 499.345 767.643 503.103 771.191 502.867L771.724 502.815C772.71 502.73 772.559 502.926 773.32 501.582C773.672 500.96 773.608 499.804 773.778 499.07L773.837 498.822V498.822L773.804 498.688C773.729 498.332 773.655 497.663 773.594 496.5L773.582 496.244C773.325 490.807 771.788 483.82 775.072 478.893ZM892.563 483.522C891.732 474.628 904.236 472.653 908.393 479.234C910.561 482.666 911.193 486.977 911.672 491.061L911.896 493C912.388 497.195 912.583 501.559 910.762 505.472C907.894 511.635 901.657 514.893 894.929 514.377C888.504 513.883 882.642 510.158 879.552 504.503C876.797 499.457 874.058 489.605 877.404 484.342C877.606 484.023 878.01 483.982 878.287 484.228C881.449 487.035 881.964 492.155 883.844 495.812C885.783 499.584 888.724 503.26 893.181 503.833C897.445 504.381 899.074 502.052 897.986 497.987C896.583 492.739 893.091 489.169 892.563 483.522ZM778.449 426.016L780.494 425.233C787.5 422.586 797.119 419.527 802.815 425.224C806.329 428.737 806.998 433.912 804.49 438.199C801.451 443.392 796 443.52 790.736 444.285C784.749 445.155 778.66 446.809 773.086 449.167C766.807 451.824 760.98 455.136 755.271 458.835C749.845 462.35 744.438 468.095 737.943 469.178C737.678 469.222 737.377 469.108 737.308 468.817C735.833 462.467 739.932 456.218 743.59 451.264C748.016 445.266 753.379 440.343 759.373 435.929C765.158 431.668 771.768 428.589 778.449 426.016ZM905.716 448.592L906.341 448.483C910.589 447.776 914.439 447.939 917.641 451.303C920.085 453.87 921.027 457.197 919.862 460.591C918.787 463.722 916.383 466.903 912.894 467.559C901.115 469.775 888.068 469.409 876.23 467.731C870.814 466.963 865.349 466.024 860.074 464.542L857.647 463.838C853.242 462.58 848.2 461.266 845.001 458.026C843.851 456.862 844.514 455.196 845.89 454.657C851.472 452.471 859.123 453.634 865.075 453.463C871.999 453.265 878.934 452.746 885.825 452.031C892.559 451.331 899.075 449.81 905.716 448.592Z"
          fill="black"/>
    <path fill-rule="evenodd" clip-rule="evenodd"
          d="M970.935 434.231C970.112 434.094 969.288 433.965 968.464 433.844C967.821 433.479 967.066 433.198 966.188 433.029C964.183 432.52 962.192 432.177 960.204 431.992C931.672 425.571 865.665 434.688 862.941 459.036C853.855 462.069 845.993 459.353 835.462 459.623C827.446 426.118 688.863 430.847 682.198 451.047C682.173 451.04 682.148 451.034 682.122 451.026C675.718 449.044 666.277 449.522 658.947 449.208C643.296 448.88 627.627 450.275 612.314 453.576C583.639 458.133 544.504 463.468 564.447 499.276C564.451 499.282 564.454 499.289 564.459 499.295L564.462 499.292C567.899 502.815 573.732 499.978 573.949 495.209C567.244 478.245 582.388 476.208 594.04 471.333C623.033 460.917 652.551 459.473 682.537 462.695C684.793 465.351 688.216 467.667 691.834 468.879C711.883 472.207 701.317 487.079 713.99 489.242C711.662 541.084 774.603 569.382 811.072 535.303C825.633 521.067 829.104 499.978 832.48 480.969C834.265 480.568 835.4 479.592 836.063 478.3C840.356 474.014 843.053 470.056 851.542 468.879C860.031 467.703 866.566 470.064 867.45 470.787C867.673 471.236 867.912 471.686 868.19 472.136C868.578 472.807 869.106 473.342 869.706 473.763C861.323 525.387 901.4 558.035 941.859 531.26C959.439 514.723 963.154 489.405 963.888 466.807C966.271 465.369 967.78 462.582 966.955 459.078C965.818 454.248 968.484 450.066 972.73 447.966C978.247 445.239 977.271 435.28 970.935 434.231M797.087 458.722C792.065 457.618 789.92 465.361 794.958 466.468C798.526 467.253 801.549 469.052 803.592 472.099L803.807 472.431C806.548 476.793 813.48 472.766 810.72 468.376C807.614 463.436 802.788 459.976 797.087 458.722ZM944.173 453.922C942.403 452.675 939.724 453.6 938.696 455.363C937.565 457.303 938.306 459.464 939.964 460.733L940.133 460.857C941.654 461.929 943.135 463.851 943.321 465.819L943.338 466.066C943.537 471.218 951.544 471.244 951.344 466.066C951.149 461 948.215 456.767 944.173 453.922Z"
          fill="black"/>
</svg>
