<?xml version="1.0" encoding="iso-8859-1"?>
<!-- Generator: Adobe Illustrator 19.0.0, SVG Export Plug-In . SVG Version: 6.00 Build 0)  -->
<svg version="1.1" id="Capa_1" xmlns="http://www.w3.org/2000/svg" x="0px" y="0px"
     viewBox="0 0 512 512" style="enable-background:new 0 0 512 512;" xml:space="preserve">
<path style="fill:#FF9C4F;" d="M414.5,7.5h-30v497h30c49.5,0,90-40.5,90-90v-317C504.5,48,464,7.5,414.5,7.5z"/>
    <path style="fill:#FFB751;" d="M474.5,97.5v317c0,49.5-40.5,90-90,90h-287c-49.5,0-90-40.5-90-90v-317c0-49.5,40.5-90,90-90h287
	C434,7.5,474.5,48,474.5,97.5z"/>
    <path style="fill:#FF804C;" d="M258.43,67.53l-0.03,0.06l-0.35,376.89C361.21,443.39,444.5,359.43,444.5,256
	C444.5,152.7,361.42,68.84,258.43,67.53z"/>
    <path style="fill:#FF9C4F;" d="M414.5,256c0,103.3-69.86,187.18-156.45,188.48c-0.68,0.01-1.37,0.02-2.05,0.02
	c-52.05,0-134.25-42.2-134.25-94.25L258.4,67.59C343.92,70.39,414.5,153.65,414.5,256z"/>
    <g>
	<circle style="fill:#FFFFFF;" cx="256" cy="350.25" r="30"/>
        <path style="fill:#FFFFFF;" d="M256,67.5C151.89,67.5,67.5,151.89,67.5,256c0,103.296,83.08,187.164,186.066,188.469
		c-50.925-1.291-91.816-42.983-91.816-94.219c0-52.05,42.2-94.25,94.25-94.25s94.25-42.2,94.25-94.25S308.05,67.5,256,67.5z
		 M256,191.75c-16.569,0-30-13.431-30-30s13.431-30,30-30s30,13.431,30,30S272.569,191.75,256,191.75z"/>
        <path style="fill:#FFFFFF;" d="M253.566,444.469c0.809,0.021,1.62,0.031,2.434,0.031
		C255.186,444.5,254.378,444.479,253.566,444.469z"/>
</g>
    <circle style="fill:#FF9C4F;" cx="256" cy="161.75" r="30"/>
    <path d="M414.5,0h-317C43.738,0,0,43.738,0,97.5v317C0,468.262,43.738,512,97.5,512h317c53.762,0,97.5-43.738,97.5-97.5v-317
	C512,43.738,468.262,0,414.5,0z M497,414.5c0,45.491-37.01,82.5-82.5,82.5h-317C52.01,497,15,459.991,15,414.5v-317
	C15,52.009,52.01,15,97.5,15h317c45.49,0,82.5,37.009,82.5,82.5V414.5z"/>
    <path d="M218.5,350.25c0,20.678,16.822,37.5,37.5,37.5s37.5-16.822,37.5-37.5s-16.822-37.5-37.5-37.5S218.5,329.572,218.5,350.25z
	 M278.5,350.25c0,12.407-10.094,22.5-22.5,22.5s-22.5-10.093-22.5-22.5s10.094-22.5,22.5-22.5S278.5,337.843,278.5,350.25z"/>
    <path d="M256,199.25c20.678,0,37.5-16.822,37.5-37.5s-16.822-37.5-37.5-37.5s-37.5,16.822-37.5,37.5S235.322,199.25,256,199.25z
	 M256,139.25c12.406,0,22.5,10.093,22.5,22.5s-10.094,22.5-22.5,22.5s-22.5-10.093-22.5-22.5S243.594,139.25,256,139.25z"/>
    <path d="M256,60C147.925,60,60,147.925,60,256s87.925,196,196,196c46.574,0,91.721-16.63,127.122-46.826
	c3.151-2.688,3.527-7.422,0.839-10.573c-2.688-3.151-7.422-3.528-10.573-0.839C340.698,421.644,299.009,437,256,437
	c-47.834,0-86.75-38.916-86.75-86.75S208.166,263.5,256,263.5c56.105,0,101.75-45.645,101.75-101.75
	c0-27.982-11.355-53.36-29.698-71.774C392.104,117.882,437,181.791,437,256c0,43.009-15.355,84.698-43.238,117.388
	c-2.688,3.151-2.313,7.885,0.839,10.573c3.151,2.689,7.887,2.311,10.573-0.839C435.37,347.72,452,302.574,452,256
	C452,147.925,364.075,60,256,60z M342.75,161.75c0,47.834-38.916,86.75-86.75,86.75c-56.105,0-101.75,45.645-101.75,101.75
	c0,27.982,11.355,53.36,29.698,71.774C119.896,394.118,75,330.209,75,256c0-99.804,81.196-181,181-181
	C303.834,75,342.75,113.916,342.75,161.75z"/>
    <g>
</g>
    <g>
</g>
    <g>
</g>
    <g>
</g>
    <g>
</g>
    <g>
</g>
    <g>
</g>
    <g>
</g>
    <g>
</g>
    <g>
</g>
    <g>
</g>
    <g>
</g>
    <g>
</g>
    <g>
</g>
    <g>
</g>
</svg>
