<svg height="512" viewBox="0 0 192 192" width="512" xmlns="http://www.w3.org/2000/svg">
    <path d="m190.952 92.042-41-72a8 8 0 0 0 -6.952-4.042h-96a8 8 0 0 0 -7.034 4.19l-39 72a8 8 0 0 0 0 7.62l39 72a8 8 0 0 0 7.034 4.19h96a8 8 0 0 0 6.952-4.042l41-72a8 8 0 0 0 0-7.916zm-94.952 51.958c-.136 0-.277-.008-.414-.01.132 0 .262.01.395.01-.193 0-.382-.012-.574-.015-.225-.005-.449-.006-.677-.017a47.443 47.443 0 1 1 1.27.032z"/>
    <path d="m96 56a39.98 39.98 0 0 0 -32 63.973 32.035 32.035 0 0 1 32-31.973 16 16 0 0 0 0-32zm0 24a8 8 0 1 1 8-8 8 8 0 0 1 -8 8z"/>
    <circle cx="96" cy="120" r="8"/>
</svg>
