<svg width="594" height="687" viewBox="0 0 594 687" fill="none" xmlns="http://www.w3.org/2000/svg">
    <path fill-rule="evenodd" clip-rule="evenodd"
          d="M293.955 -7.5C364.629 7.50092 399.502 83.7641 448.127 137.2C485.498 178.268 521.293 217.565 544.614 267.957C571.006 324.985 601.352 383.935 591 445.917C579.832 512.784 539.406 572.054 486.702 614.694C432.086 658.881 364.017 691.406 293.955 686.243C226.067 681.24 173.276 631.087 120.798 587.731C71.6614 547.135 11.4421 507.41 1.32744 444.481C-8.51014 383.276 57.8786 337.526 70.8381 276.906C86.3721 204.243 37.6978 118.281 83.5611 59.8189C130.15 0.431911 220.119 -23.1721 293.955 -7.5Z"
          fill="#a0e6ff" fill-opacity="0.492018"/>
</svg>
