<svg xmlns="http://www.w3.org/2000/svg" x="0px" y="0px"
     width="48" height="48"
     viewBox="0 0 172 172"
     style=" fill:#000000;">
    <g transform="">
        <g fill="none" fill-rule="nonzero" stroke="none" stroke-width="1" stroke-linecap="butt" stroke-linejoin="miter"
           stroke-miterlimit="10" stroke-dasharray="" stroke-dashoffset="0" font-family="none" font-weight="none"
           font-size="none" text-anchor="none" style="mix-blend-mode: normal">
            <path d="M0,172v-172h172v172z" fill="none"></path>
            <path d="" fill="none"></path>
            <g>
                <path d="M86,14.33333c-19.7585,0 -35.83333,16.07483 -35.83333,35.83333v14.33333h14.33333v-14.33333c0,-11.85725 9.64275,-21.5 21.5,-21.5c11.85725,0 21.5,9.64275 21.5,21.5v14.33333h14.33333v-14.33333c0,-19.7585 -16.07483,-35.83333 -35.83333,-35.83333"
                      fill="#424242"></path>
                <path d="M129,157.66667h-86c-7.91558,0 -14.33333,-6.41775 -14.33333,-14.33333v-64.5c0,-7.91558 6.41775,-14.33333 14.33333,-14.33333h86c7.91558,0 14.33333,6.41775 14.33333,14.33333v64.5c0,7.91558 -6.41775,14.33333 -14.33333,14.33333"
                      fill="#fb8c00"></path>
                <path d="M79.98717,121.83333c0,-3.78042 0.41925,-6.76533 1.25775,-8.94758c0.83492,-2.18942 2.193,-4.085 4.07067,-5.69392c1.87767,-1.60533 3.30383,-3.07092 4.28208,-4.4075c0.97467,-1.32942 1.462,-2.79858 1.462,-4.40392c0,-3.90942 -1.65192,-5.86592 -4.94858,-5.86592c-1.51933,0 -2.752,0.56617 -3.68725,1.70925c-0.93525,1.14308 -1.42975,2.68033 -1.4835,4.62608h-12.857c0.05017,-5.1815 1.64833,-9.21633 4.7945,-12.10092c3.14258,-2.88817 7.55367,-4.33225 13.23325,-4.33225c5.6545,0 10.03692,1.33658 13.14725,3.999c3.10675,2.666 4.65833,6.46075 4.65833,11.37708c0,2.15358 -0.41925,4.1065 -1.25775,5.87308c-0.83492,1.75225 -2.17867,3.5475 -4.03125,5.38933l-4.37525,4.15667c-1.24342,1.21833 -2.107,2.46533 -2.58717,3.74458c-0.48375,1.28642 -0.74533,2.91325 -0.80267,4.87692zM78.37825,133.23908c0,-1.90633 0.67725,-3.4615 2.04967,-4.687c1.36883,-1.21475 3.07092,-1.8275 5.117,-1.8275c2.04608,0 3.74817,0.61275 5.11342,1.8275c1.37242,1.2255 2.05325,2.77708 2.05325,4.687c0,1.89917 -0.68083,3.4615 -2.05325,4.68342c-1.36525,1.21833 -3.07092,1.8275 -5.11342,1.8275c-2.0425,0 -3.74817,-0.60917 -5.117,-1.83108c-1.36883,-1.22192 -2.04967,-2.78067 -2.04967,-4.67983z"
                      fill="#af5902"></path>
            </g>
            <path d="" fill="none"></path>
        </g>
    </g>
</svg>