<svg width="391" height="780" viewBox="0 0 391 780" fill="none" xmlns="http://www.w3.org/2000/svg">
    <path fill-rule="evenodd" clip-rule="evenodd"
          d="M125.229 390.844C125.007 391.941 124.672 393.13 124.324 394.195C126.059 395.862 128.514 398.095 130.276 399.708C128.533 388.966 133.835 379.051 137.081 368.89C135.856 367.323 131.594 365.72 131.731 363.983C132.06 357.549 132.545 350.368 133.245 342.313C135.614 317.158 137.972 290.926 132.38 265.695C131.998 262.952 131.418 260.068 127.732 260.005C116.846 303.244 125.667 346.779 125.427 390.291L125.744 390.574L125.229 390.844ZM83.7985 740.216C81.5012 739.409 78.6476 738.407 78.2495 736.784C77.595 732.343 78.0481 727.977 78.5276 723.356C79.2859 715.429 79.2104 709.267 81.354 700.731C83.6481 692.804 85.6034 686.609 83.3646 678.412C83.185 675.972 85.0973 673.49 86.3605 671.208C88.1488 667.876 89.0563 664.409 90.4767 660.993C87.6862 660.506 84.7886 659.839 82.1095 659.011L81.6596 660.627C81.5609 660.982 81.2885 661.163 80.8505 661.163C80.5795 661.163 79.8863 661.032 79.7851 660.454C80.2055 654.213 80.8144 648.002 81.454 641.661C88.0947 580.576 98.1502 530.221 115.037 480C119.092 468.238 123.236 455.995 123.265 443.215C120.959 442.722 118.391 442.439 116.041 442.763C99.2959 438.891 102.606 403.54 103.272 392.961C102.091 392.607 100.769 392.106 99.7896 391.435L99.3932 391.628C82.7656 350.445 89.5939 282.355 93.3973 236.579C95.8929 220.125 92.3828 190.403 107.001 182.273C118.805 178.101 130.556 175.757 142.89 173.006C145.174 171.697 147.993 170.95 150.542 170.104L149.225 168.256C147.498 165.828 147.728 161.066 149.987 159.392C151.375 159.469 153.325 160.86 154.652 161.514C156.56 157.576 158.326 153.457 159.594 148.726L160.05 148.889C161.384 135.506 178.772 133.17 188.576 137.642C199.279 143.505 193.705 156.769 198.57 166.344L200.334 163.997C203.058 163.947 208.818 167.51 210.206 168.848C211.199 169.31 210.48 172.419 210.625 173.67C224.982 176.914 244.635 177.805 249.199 193.887C256.791 224.128 255.724 255.13 264.339 285.263C273.357 309.689 286.603 339.578 286.715 361.948C286.972 366.14 287.537 389.852 284.06 388.898L281.765 391.184C284.892 396.164 282.409 403.618 281.212 409.515C278.261 422.027 272.494 435.51 260.176 429.513C246.929 502.515 213.632 576.157 224.99 651.453C225.127 651.894 224.851 652.377 224.378 652.184L223.819 651.927C222.374 652.372 220.541 652.528 219.032 652.866C220.316 657.667 221.004 662.407 221.671 667.718C222.479 668.198 222.102 669.471 222.143 670.24C234.196 669.664 240.956 682.259 249.6 689.186C255.307 694.267 261.807 699.105 268.92 703.566C274.798 706.899 279.757 710.715 278.864 717.011C278.949 717 280.763 716.72 280.852 716.712C283.586 725.792 274.608 727.669 265.362 728.763C242.768 731.03 223.454 726.02 197.295 716.527C194.087 716.906 191.586 712.146 191.16 708.918C190.737 706.755 191.938 704.556 191.021 702.228C187.867 695.539 186.225 677.832 190.672 669.889C192.233 668.088 194.235 666.427 193.976 663.319C193.903 660.206 193.61 657.095 193.874 654.038C188.528 653.522 183.237 652.372 178.573 650.508C177.748 650.825 176.81 650.435 176.753 649.403C175.858 635.17 174.787 619.617 174.555 605.046C173.48 573.334 180.747 542.389 186.309 511.633C186.695 501.767 188.52 492.235 189.095 482.364C189.714 473.002 189.823 463.837 190.362 454.489L187.152 453.794C160.507 522.349 139.641 590.959 125.036 658.094C125.366 658.376 126.305 658.694 126.265 659.266C126.254 659.572 126.262 659.591 126.052 659.622C122.524 660.33 119.032 660.849 115.535 661.253C116.521 669.631 111.262 679.313 115.917 687.16C117.153 689.051 117.206 689.446 116.449 690.747C123.229 703.342 127.432 713.822 130.155 725.082L131.91 723.601C134.454 725.445 134.507 728.928 134.562 732.609C134.381 734.754 135.431 737.001 133.823 738.807C129.954 743.319 116.468 745.095 108.927 745.121C99.982 745.123 91.7591 743.501 83.7985 740.216Z"
          fill="#D08B5B"/>
    <path fill-rule="evenodd" clip-rule="evenodd"
          d="M115.659 685.427C115.799 686.002 115.518 688.876 115.659 689.394C117.139 694.34 121.325 696.389 123.218 701.153L124.105 703.386C126.496 709.419 128.813 715.479 130.245 721.878L130.484 722.945C130.484 722.945 135.107 727.37 135.236 730.429C135.236 730.429 135.727 738.217 134.238 739.341C123.374 746.73 108.685 746.518 96.1282 744.577C91.1225 743.666 86.2357 742.144 81.5959 740.061C79.842 739.468 78.5302 738.84 77.7279 737.809C77.0464 736.933 76.7646 735.769 76.8752 734.153C76.5866 731.411 76.7984 728.792 77.0398 726.179L77.1531 724.957C77.3556 722.75 77.5305 720.54 77.4212 718.316C77.7592 709.693 80.4977 701.131 82.4354 692.715L84.517 689.394C84.517 689.394 96.9166 680.047 101.214 680.061L101.63 680.061C105.84 680.036 115.659 685.427 115.659 685.427ZM194.551 667.837C196.98 675.987 200.595 680.061 205.396 680.061C212.599 680.061 213.554 670.575 219.2 670.575C219.2 670.575 223.776 670.344 228.684 669.961C233.553 671.699 237.568 675.65 241.421 679.694L243.494 681.88C245.644 684.143 247.78 686.336 250.009 688.124C255.979 693.44 262.44 698.17 269.21 702.416L269.744 702.732C272.375 704.291 275.253 706.128 277.237 708.514C278.681 710.25 279.644 712.282 279.619 714.724L279.61 715.562C279.61 715.562 281.897 717.74 281.919 718.661L281.926 718.972C281.933 719.221 280.702 724.501 278.712 725.818C275.914 727.67 265.619 729.3 265.262 729.357C242.446 731.798 219.35 725.72 198.2 717.416L197.38 717.092C197.322 717.103 197.264 717.112 197.204 717.119C195.505 717.343 194.044 716.439 192.888 715.132C191.29 713.325 190.25 710.713 190.002 708.686C189.813 707.833 190.313 703.417 189.963 702.332C187.022 695.657 186.635 688.398 187.056 681.286C186.946 672.923 188.77 670.263 190.366 668.33L190.777 667.837L194.551 667.837Z"
          fill="white"/>
    <path fill-rule="evenodd" clip-rule="evenodd"
          d="M137.198 370.046L138.81 371.181C140.313 372.241 141.836 373.324 143.538 374.541L145.305 375.807L155.082 382.849C170.105 393.651 178.228 399.188 187.757 404.866L188.548 405.335L188.65 405.342C190.305 405.433 191.753 404.735 194.064 403.004L194.302 402.825L195.219 402.126L195.438 401.962L196.268 401.347L203.36 396.12C207.14 393.331 209.734 391.4 212.143 389.572L213.548 388.5L215.348 387.116L215.718 387.252C216.2 387.43 216.737 387.39 217.125 387.157L217.177 387.124L217.68 386.788L218.323 387.474L218.73 387.905C219.61 388.835 220.496 389.748 221.687 390.953L221.968 391.237L225.416 394.704L226.446 395.745C227.772 397.089 228.751 398.102 229.715 399.131L229.977 399.412L230.501 399.978L230.598 400.069L230.721 400.186C231.15 400.599 231.556 401.043 232.126 401.707L232.293 401.902L232.852 402.563L233.141 402.901C234.931 404.977 236.003 405.874 237.492 406.309L237.571 406.331L237.704 406.367L237.756 406.376C238.823 406.551 239.567 406.227 240.504 405.255L240.572 405.185L240.638 405.114L241.248 404.472C243.703 401.899 245.985 399.628 249.75 395.993L251.044 394.746L256.276 389.722L257.337 388.697C257.716 388.33 258.071 387.986 258.417 387.648L258.918 387.159L260.368 385.734L260.863 386.348C261.167 386.726 261.798 386.865 262.219 386.631L262.261 386.605L263.377 385.89L263.359 387.213C263.35 387.856 263.332 388.509 263.305 389.175L263.274 389.887C263.145 392.611 262.913 395.092 262.423 399.256L262.371 399.693L261.74 404.926L261.626 405.951C260.042 419.969 257.455 434.539 253.787 450.862L253.565 451.845C251.141 462.561 248.882 471.591 244.6 487.86L243.598 491.66L240.245 504.322C236.444 518.707 234.18 527.58 231.94 537.063L231.803 537.645L231.514 538.878L231.224 540.123C228.492 551.917 226.338 562.628 224.681 572.924L224.595 573.466L224.427 574.529C220.235 601.305 219.468 625.373 222.644 648.751L222.741 649.459L222.836 650.142L222.156 650.258C208.558 652.574 195.636 653.433 183.226 652.689L182.676 652.655L182.184 652.51C181.355 652.261 180.544 651.994 179.753 651.71L179.359 651.567L178.864 651.384L178.912 650.585L178.941 650.075C179.391 642.034 179.258 635.08 178.555 620.951L178.487 619.59L178.161 613.247C178.003 610.127 177.899 607.905 177.813 605.751L177.757 604.284L177.701 602.659L177.676 601.874C177.311 590.019 177.608 580.625 178.841 571.728L178.924 571.142L179.006 570.579L179.123 569.442C180.033 560.786 181.196 553.358 183.721 539.328L184.145 536.98L185.242 530.936C188.094 515.155 189.382 506.934 190.286 497.554L190.344 496.947L190.432 495.991L190.772 491.356C191.337 483.514 191.57 478.6 191.534 473.478L191.529 472.928C191.455 466.446 190.882 460.695 189.68 455.326L189.588 454.92L189.588 454.914L189.437 454.282L189.432 454.268L189.189 453.68L189.552 453.343C191.866 451.201 193.951 448.943 195.745 446.612C196.777 445.252 194.386 443.248 193.187 444.382L193.151 444.417L190.771 446.843L191.975 443.668C192.637 441.925 193.296 440.166 193.954 438.391L194.349 437.323L194.483 436.959L194.02 437.95C180.33 467.313 168.005 499.762 156.465 536.032L156.115 537.133L155.71 538.415C144.741 573.15 134.928 609.642 123.583 656.386L123.135 658.234L122.705 658.332L122.087 658.47C112.099 660.671 101.962 661.245 87.1223 660.938L86.5894 660.927L86.1081 660.816C85.4529 660.662 84.8066 660.501 84.1712 660.332L83.6966 660.204L82.6841 659.923L82.7836 658.312C86.2209 603.97 96.6916 547.848 113.829 486.88L114.351 485.031L114.65 483.943L116.345 477.887L116.675 476.698C119.231 467.47 120.379 462.453 121.125 456.579L121.149 456.393L121.156 456.346C121.908 452.464 122.355 448.763 122.481 445.152L122.492 444.779L122.514 444.048L123.245 444.09C127.176 444.315 131.957 442.122 133.914 439.128L133.973 439.038L134.392 438.374L135.013 438.855C136.369 439.907 138.421 438.879 139.611 436.897L139.646 436.838L139.704 436.723C140.708 434.699 141.077 432.369 140.911 429.683L140.899 429.503L140.885 429.323C140.708 427.067 140.213 424.786 139.314 421.668L138.942 420.385L140.049 420.559C142.353 420.921 145.035 420.044 146.721 418.413C148.423 416.766 148.808 414.71 147.563 412.632L147.511 412.548L147.457 412.462L147.089 412.142L146.715 411.821C145.374 410.675 143.983 409.56 141.896 407.94L141.295 407.474L138.747 405.509C135.115 402.7 133.038 401 130.923 399.037L130.823 398.943L130.332 398.483L130.318 398.197C130.123 394.164 130.647 390.07 131.829 385.556L131.933 385.163L132.068 384.664C132.851 381.816 133.712 379.311 135.421 374.758L137.198 370.046Z"
          fill="#FFCF77"/>
    <path fill-rule="evenodd" clip-rule="evenodd"
          d="M281.584 397.099C278.925 406.023 276.484 419.238 269.712 425.808C267.527 427.544 264.862 426.785 262.359 426.353C264.076 415.972 265.335 405.5 266.43 395.032C271.762 393.94 276.901 392.051 281.674 389.444C282.966 391.605 282.159 394.892 281.584 397.099ZM261.065 404.868C252.064 486.958 210.376 565.65 222.069 649.577C208.047 651.966 193.784 652.961 179.59 651.726C181.299 625.802 175.776 597.42 179.747 570.688C182.285 545.626 188.899 521.152 191.177 496.063C192.19 482.195 193.452 467.713 190.153 454.091C190.127 454.022 190.099 453.953 190.07 453.884C192.329 451.793 194.464 449.507 196.347 447.061C197.952 444.944 194.456 442.124 192.675 443.939C195.132 437.462 197.494 430.954 199.783 424.417C164.367 495.744 141.681 578.82 122.58 657.658C109.733 660.578 96.5092 660.507 83.4183 660.156C87.0042 600.821 98.915 542.36 115.071 485.238C118.686 472.031 123.147 458.598 122.35 444.726C126.567 445.382 132.336 443.036 134.609 439.436C136.678 441.041 139.214 439.071 140.304 437.201C142.822 432.297 141.431 426.307 139.972 421.281C145.114 422.088 151.553 417.329 148.034 412.012C142.598 407.252 136.393 403.198 131.063 398.182C130.607 388.778 134.259 380.001 137.575 371.177C154.332 382.963 170.761 395.645 188.357 406.049C191.383 406.357 193.827 404.072 196.098 402.403C202.579 397.604 209.119 392.868 215.505 387.939C216.206 388.197 217.011 388.133 217.607 387.735C221.685 392.094 225.995 396.119 230.03 400.5C232.454 402.736 234.204 406.225 237.587 407.082C239.169 407.371 240.176 406.717 241.19 405.622C247.343 399.123 253.964 393.089 260.341 386.813C260.844 387.438 261.903 387.721 262.68 387.223C262.599 393.115 261.756 399.012 261.065 404.868ZM218.582 669.589C212.699 671.285 211.767 680.455 204.839 679.561C200.353 678.618 196.736 674.738 195.586 670.379C195.931 670.161 196.163 669.779 196.128 669.229C195.833 664.757 195.536 660.284 195.242 655.812C203.037 656.242 210.864 655.629 218.606 654.563C218.326 656.687 218.214 658.829 218.153 660.993C218.263 663.743 217.456 667.064 218.582 669.589ZM192.593 667.577C192.785 667.3 192.961 667.013 193.111 666.705C193.134 667.06 193.158 667.416 193.179 667.769C192.994 667.658 192.797 667.596 192.593 667.577ZM231.926 674.816C235.925 677.534 239.041 681.407 242.446 684.789C249.69 691.985 257.722 698.391 266.321 703.901C270.799 706.679 280.262 710.88 276.515 717.402C273.721 721.509 266.395 719.593 265.241 721.897C249.304 722.552 233.715 718.202 218.567 713.749C210.877 711.241 202.831 709.779 195.376 706.592C188.231 700.344 188.208 686.607 189.191 677.797C189.582 675.714 190.161 667.182 193.213 668.255C193.218 669.108 193.305 670.256 194.229 670.497C194.243 670.564 194.255 670.632 194.272 670.699C194.096 670.642 193.863 670.77 193.949 670.981C196.247 677.811 203.826 685.501 211.224 680.715C214.511 678.406 215.95 673.939 219.868 672.49C223.975 670.971 228.47 672.467 231.926 674.816ZM280.202 716.966C280.304 717.015 280.411 717.039 280.521 717.041C280.834 717.842 280.68 721.106 280.62 721.668C279.654 726.578 271.906 727.394 267.798 728.136C253.366 730.406 238.686 728.819 224.606 725.199C217.733 723.5 210.898 721.535 204.227 719.167C198.3 717.367 190.968 714.376 191.704 706.874C195.006 711.323 205.573 712.641 210.874 714.48C227.535 719.53 244.438 724.964 262.02 725.137C264.684 725.023 268.365 725.766 270.363 723.763C274.6 723.159 278.996 720.817 280.202 716.966ZM113.749 668.578C112.385 672.88 110.816 677.297 110.773 681.848C102.829 677.135 92.8631 681.71 86.2784 686.87C86.7387 683.649 84.7485 680.614 85.29 677.449C87.3015 672.673 89.9973 667.83 89.0404 662.432C97.8563 663.935 106.812 663.842 115.658 662.92C114.965 664.783 114.366 666.679 113.749 668.578ZM116.791 694.75C118.357 697.817 119.455 701.883 122.457 703.818C124.133 710.001 126.017 716.127 127.473 722.367C128.052 725.335 128.927 728.409 128.494 731.468C127.806 731.656 127.325 731.805 126.943 732.3C112.379 735.397 96.3685 735.884 82.9057 728.69C78.3896 718.612 81.9344 706.812 83.4726 696.374C83.5654 692.956 85.8534 691.758 86.1261 688.5C93.3465 684.352 104.593 678.914 111.44 686.353C112.391 688.464 113.031 691.377 115.475 692.177C115.931 693.03 116.366 693.89 116.791 694.75ZM128.722 731.477C128.72 731.482 128.718 731.487 128.711 731.494C128.689 731.492 128.689 731.485 128.722 731.477ZM133.251 733.354C133.216 732.722 132.9 732.091 132.382 731.717C132.627 729.387 132.164 726.977 131.67 724.701C134.116 727.359 133.072 731.568 133.475 734.881C133.443 736.201 134.084 737.883 132.546 738.564C127.744 741.877 121.923 743.423 116.185 744.089C103.667 745.52 90.6538 743.222 79.4695 737.414C77.951 735.356 78.4763 730.075 78.301 727.417C79.3327 735.954 100.19 738.314 107.284 738.387C111.23 738.412 133.21 737.597 133.251 733.354ZM120.026 439.391C118.361 439.225 116.706 439.341 115.058 439.578C105.303 432.962 103.765 405.828 102.233 394.374C109.214 396.154 116.608 395.674 123.384 393.331C123.512 394.579 124.94 395.223 125.809 394.38C130.404 402.544 137.28 409.081 144.373 414.925C144.29 414.652 144.231 415.152 144.335 414.962C143.432 417.029 140.114 415.957 138.545 417.397C137.538 418.146 137.327 419.456 137.968 420.331C136.271 425.012 138.969 430.727 136.429 435.167C135.859 435.829 135.116 436.305 134.624 437.047C131.244 434.735 128.163 439.625 124.74 439.839C124.764 439.839 124.788 439.839 124.814 439.837C124.287 439.895 123.441 439.866 122.978 439.801C121.996 439.649 121.016 439.49 120.026 439.391ZM126.314 275.828C127.032 271.162 127.868 266.523 128.953 261.93C130.262 262.157 130.554 265.149 130.72 266.03C136.322 291.328 133.896 317.363 131.496 342.897C130.915 349.744 130.435 356.604 130.06 363.467C129.575 366.624 133.213 367.695 135.154 369.423C132.454 378.1 127.794 386.495 128.345 395.736C127.621 395.073 126.903 394.402 126.191 393.727C126.371 393.146 126.526 392.565 126.656 391.98C127.543 391.519 127.825 390.247 127.065 389.577C127.357 351.738 120.242 313.576 126.314 275.828ZM196.026 204.367C197.372 201.976 200.937 205.084 198.697 206.818C197.138 208.078 194.978 206.009 196.026 204.367ZM202.617 232.188C204.055 230.322 206.939 232.483 205.683 234.413C204.214 237.456 201.275 234.45 202.617 232.188ZM207.235 256.571C210.116 256.579 209.456 261.451 206.736 260.783C204.421 260.236 204.802 256.526 207.235 256.571ZM209.596 285.949C210.263 283.693 213.674 284.289 213.649 286.608C213.563 289.738 208.92 288.793 209.596 285.949ZM215.185 314.276C216.133 311.443 219.776 312.909 219.471 315.653C219.868 317.238 216.791 320.436 216.168 317.845C215.337 316.845 214.945 315.561 215.185 314.276ZM220.909 346.948C220.916 346.938 220.924 346.929 220.931 346.919C222.957 347.872 221.203 352.206 219.249 350.615C217.353 349.46 218.666 345.797 220.909 346.948ZM223.575 373.472C225.939 375.792 222.283 379.464 219.95 377.088C217.583 374.773 221.238 371.101 223.575 373.472ZM282.132 389.195C282.163 389.263 282.196 389.332 282.234 389.396C282.173 389.344 282.111 389.292 282.049 389.24C282.075 389.225 282.104 389.212 282.132 389.195ZM284.034 335.273C280.175 320.096 273.965 305.651 267.92 291.25C261.388 272.13 259.473 251.879 257.139 231.927C255.855 220.67 254.467 209.428 251.869 198.383C249.661 177.793 228.708 175.548 212.277 172.357C212.3 170.599 212.841 168.599 211.075 167.474C209.453 165.83 200.794 160.721 199.084 162.884C198.413 161.253 198.084 159.445 197.766 157.705C197.552 157.018 197.464 154.65 196.717 154.669C196.557 159.304 194.586 166.09 198.54 169.572C196.167 173.182 194.188 177.557 191.059 180.432C191.062 180.429 191.064 180.427 191.067 180.425C190.91 180.526 190.751 180.619 190.587 180.706C190.625 180.676 190.399 180.759 190.214 180.818C189.789 180.899 189.086 180.744 188.651 180.548H188.656C177.884 174.438 167.343 167.894 156.916 161.191C158.406 158.991 160.335 148.205 158.486 146.71C157.192 150.965 155.846 155.234 153.883 159.238C152.182 158.312 149.431 156.646 147.998 158.823C146.191 161.848 145.675 166.235 147.843 169.242C138.522 172.908 128.468 174.192 118.844 177.057C114.65 178.13 110.209 178.929 106.273 180.79C94.5468 187.283 94.5371 203.28 93.2511 215.063C89.9507 272.417 79.4834 331.706 95.8756 387.97C96.5054 389.697 97.4364 391.356 98.1607 393.056C98.4481 393.729 99.1938 393.707 99.6854 393.342C100.241 393.672 100.851 393.935 101.49 394.148C100.417 408.775 98.9627 435.5 113.11 444.222C114.213 444.741 115.201 444.56 116.229 444.432C117.88 444.218 119.836 444.29 121.544 444.61C119.481 471.744 105.791 496.536 100.49 523.125C89.1273 568.082 81.7868 614.036 78.0929 660.246C77.9601 663.112 82.4574 663.906 83.2345 661.095C84.8589 661.564 86.5071 661.955 88.1767 662.273C87.3048 664.539 86.5843 666.828 85.5785 669.037C84.4813 671.533 82.484 673.832 81.8571 676.503C81.1066 680.784 83.8988 684.788 82.3506 689.072C82.057 693.859 79.8762 698.364 79.1188 703.107C77.9361 708.983 77.0384 715.069 77.3471 721.075C76.1236 725.47 76.1811 730.025 76.3518 734.476C76.4423 735.938 76.3663 737.789 77.4778 738.915C79.9301 740.872 83.2089 741.705 86.0699 742.93C101.495 747.973 120.706 749.385 134.858 740.279C137.552 738.146 135.868 732.888 136.076 729.769C136.172 727.389 134.323 720.802 131.077 722.132C128.235 711.139 123.617 700.724 118.29 690.742C119.141 689.243 118.21 687.77 117.383 686.505C113.284 680.21 117.709 670.166 117.219 662.74C120.278 662.368 123.325 661.875 126.351 661.273C128.419 660.86 128.267 658.294 126.878 657.353C141.983 588.199 163.03 520.388 188.675 454.418C188.314 461.601 188.015 468.778 187.775 475.974C187.455 487.916 185.177 499.681 184.621 511.594C178.966 542.497 171.785 573.459 172.866 605.097C173.11 619.912 174.134 634.711 175.065 649.493C175.143 651.194 176.666 652.631 178.416 652.259C182.795 653.942 187.423 654.999 192.104 655.533C191.629 660.936 194.083 664.824 189.342 668.881C185.195 675.345 186.176 688.567 187.273 696.07C187.763 698.462 188.606 700.652 189.473 702.92C190.128 704.978 189.004 707.032 189.483 709.144C189.953 712.97 193.092 718.776 197.486 718.195C222.554 727.668 251.596 736.259 277.964 727.438C279.797 726.526 281.709 725.349 282.367 723.303C282.929 721.478 283.687 714.568 280.519 715.102C280.17 705.74 269.284 702.788 263.078 697.753C254.41 691.813 246.761 684.597 239.517 677.029C235.34 672.735 230.093 668.694 223.823 668.672C223.842 668.013 223.638 667.43 223.223 666.97L223.22 666.968C222.672 662.717 222.08 658.359 221.042 654.193C221.911 654.029 222.808 653.957 223.655 653.715C225.342 654.471 226.993 652.947 226.607 651.223C223.748 633.078 223.713 614.6 225.396 596.341C230.578 540.166 251.077 486.97 261.425 431.755C275.149 436.646 280.25 420.058 282.806 409.907C284.039 403.722 286.697 396.11 283.146 390.325C293.532 394.457 286.627 340.886 284.034 335.273Z"
          fill="black"/>
    <path fill-rule="evenodd" clip-rule="evenodd"
          d="M182.307 60.4993C195.763 60.4993 215.459 69.4858 216.94 78.1318C218.686 88.3209 222.563 126.634 220.452 139.172C218.341 151.71 210.111 160.974 191.911 160.974C173.71 160.974 160.126 151.047 157.007 147.639C153.888 144.231 150.108 133.625 150.108 133.625C150.108 133.625 140.143 131.935 140.097 123.991C140.051 116.047 145.103 113.592 145.103 113.592C145.103 113.592 142.376 80.6359 148.107 72.4735C153.838 64.3111 168.85 60.4993 182.307 60.4993Z"
          fill="#D08B5B"/>
    <path fill-rule="evenodd" clip-rule="evenodd"
          d="M222.933 102.468C223.67 110.477 223.947 118.554 224.09 126.593C224.227 134.211 223.557 142.155 219.217 148.668C215.423 154.366 209.645 158.502 203.211 160.735C199.549 162.007 195.495 162.479 191.627 162.595C189.629 162.654 187.627 162.569 185.641 162.363C185.391 162.337 185.14 162.314 184.889 162.292C183.207 162.142 181.538 161.993 180.313 160.723C179.927 160.322 179.932 159.5 180.503 159.239C181.591 158.744 182.327 158.692 183.52 158.855C184.508 158.99 185.499 159.097 186.494 159.166C188.627 159.315 190.774 159.32 192.907 159.156C196.827 158.855 200.836 157.748 204.396 156.07C209.977 153.435 214.771 149.116 217.359 143.45C220.326 136.961 220.177 129.458 220.038 122.472L220.032 122.185C219.878 114.435 219.592 106.708 218.919 98.9841C218.663 96.062 218.3 93.1557 217.936 90.2485C217.834 89.43 217.732 88.6115 217.632 87.7924C217.392 85.811 217.077 83.8389 216.691 81.8814C216.575 81.2902 216.438 80.7038 216.302 80.1181C216.2 79.6774 216.097 79.2372 216.004 78.7956C215.845 78.8214 215.684 78.8358 215.518 78.8427C214.527 78.8761 213.444 78.6344 212.709 77.9305C212.428 78.1224 212.069 78.2433 211.638 78.2647C209.004 78.3948 206.343 78.3368 203.687 78.2789C202.237 78.2473 200.788 78.2157 199.346 78.2149C195.251 78.2125 191.153 78.2149 187.055 78.2267C186.431 78.2285 185.806 78.2309 185.181 78.2333C181.71 78.2466 178.234 78.2599 174.768 78.1675C174.033 78.1478 173.294 78.135 172.552 78.1222C169.447 78.0686 166.298 78.0141 163.264 77.4517C162.001 81.9407 162.046 86.8729 164.679 90.8831C165.423 92.0136 164.819 93.3456 163.85 94.0519C162.859 94.7726 161.078 95.8778 159.554 95.9913C159.495 96.1241 159.435 96.2565 159.375 96.3888C159.286 96.5869 159.197 96.7845 159.111 96.9818C158.383 98.6392 157.728 100.307 157.269 102.062C157.033 102.966 156.83 103.886 156.659 104.811C156.673 104.973 156.687 105.134 156.704 105.296C156.704 105.31 156.706 105.325 156.708 105.341L156.709 105.348C156.719 105.414 156.731 105.49 156.738 105.533C156.759 105.647 156.78 105.761 156.802 105.874C156.868 106.225 156.933 106.575 157.003 106.924C157.223 108.05 157.394 109.185 157.515 110.325C157.735 112.411 157.714 115.122 155.681 116.357C154.593 117.018 153.289 116.949 152.14 116.506C151.499 116.258 150.938 115.926 150.359 115.583C150.241 115.512 150.121 115.442 150 115.371C149.813 115.262 149.622 115.161 149.432 115.061C149.193 114.935 148.954 114.81 148.725 114.667C148.611 114.596 148.502 114.511 148.4 114.421C147.63 114.584 146.879 114.89 146.457 115.098C145.326 115.66 144.334 116.473 143.49 117.407C141.696 119.395 141.158 122.197 141.409 124.797C141.644 127.217 142.594 129.997 144.506 131.606C145.338 132.307 146.376 132.718 147.474 132.706C148.014 132.701 148.512 132.587 149.033 132.45C149.256 132.391 149.501 132.366 149.745 132.34C150.067 132.307 150.388 132.273 150.657 132.165C151.36 131.883 152.228 132.744 151.941 133.45C151.877 133.607 151.821 133.758 151.768 133.905C151.64 134.254 151.522 134.573 151.332 134.865C153.294 138.069 155.444 141.174 157.73 144.153C159.18 146.04 160.811 147.716 162.449 149.399C163.14 150.11 163.832 150.821 164.513 151.551C165.525 152.636 165.947 154.774 164.115 155.238C162.504 155.65 161.252 154.173 160.258 153C160.125 152.843 159.997 152.692 159.873 152.551C155.524 147.604 152.237 141.925 150.699 135.514C150.005 136.007 149.208 136.275 148.369 136.391C146.699 136.621 145.009 136.292 143.544 135.446C137.999 132.244 136.657 123.59 139.255 118.168C139.881 116.862 140.806 115.696 141.934 114.791C141.845 114.621 141.81 114.422 141.867 114.208C141.968 113.833 142.078 113.463 142.193 113.094C142.067 113.038 141.975 112.922 141.992 112.75C142.08 111.847 142.167 110.945 142.253 110.043L142.3 109.55C142.289 109.061 142.275 108.572 142.26 108.083C142.226 106.96 142.192 105.837 142.205 104.708C142.219 103.506 142.26 102.305 142.301 101.104C142.348 99.7232 142.395 98.3419 142.4 96.96C142.415 92.4844 142.513 88.0111 142.612 83.5378C142.711 79.0047 142.811 74.4716 142.824 69.9361C142.838 65.5299 142.847 61.117 142.731 56.7133C142.73 56.6821 142.73 56.6516 142.729 56.621C142.728 56.5935 142.728 56.566 142.727 56.5379C142.712 55.9975 142.678 55.429 142.643 54.8456C142.449 51.6244 142.227 47.9474 145.144 46.0168C145.711 45.6426 146.417 45.6379 147.033 45.8796C148.806 44.6448 151.029 44.0497 153.154 43.706C156.288 43.2001 159.443 42.8967 162.599 42.5932C163.522 42.5045 164.446 42.4157 165.369 42.3218C167.497 42.1062 169.736 42.0235 171.879 42.0709C172.993 42.0952 174.115 42.055 175.239 42.0147C176.299 41.9767 177.361 41.9386 178.42 41.9547C180.894 41.995 183.387 42.0874 185.87 42.2913C185.928 42.2854 185.987 42.2801 186.045 42.2748C186.104 42.2694 186.163 42.264 186.221 42.2581C189.984 41.8973 193.741 42.0881 197.501 42.2789C198.411 42.3252 199.321 42.3714 200.232 42.4098C204.683 42.597 209.382 43.0568 213.378 45.1873C213.892 45.4608 214.327 45.7718 214.698 46.1183C215.219 46.1915 215.716 46.3392 216.162 46.5873C217.448 46.3273 218.884 46.9037 219.189 48.3967C219.632 50.5843 219.8 52.7906 219.535 55.0092C219.531 55.0371 219.528 55.0658 219.525 55.0952C219.522 55.1205 219.519 55.1464 219.516 55.1728C220.053 57.231 220.017 59.4788 219.571 61.5088C219.759 64.0737 219.866 66.6459 219.881 69.214C219.883 69.6025 219.889 69.9927 219.894 70.3836C219.914 71.7798 219.935 73.1864 219.805 74.5701C219.66 76.1273 219.019 77.3595 218.011 78.5422C217.821 78.765 217.5 78.802 217.232 78.7479C217.163 78.7339 217.103 78.715 217.049 78.6925C217.546 79.7592 217.958 80.8791 218.362 81.9747C218.451 82.2176 218.54 82.4594 218.63 82.6991C219.412 84.799 220.17 86.9345 220.708 89.1102C221.798 93.497 222.516 97.9673 222.933 102.468ZM147.413 122.322C147.188 122.166 146.961 122.01 146.715 121.893C146.684 121.879 145.386 121.457 145.637 122.014C145.722 122.199 145.499 122.405 145.341 122.242C144.89 121.784 145.142 121.234 145.571 120.827C146.345 120.09 147.502 120.26 148.452 120.436C149.775 120.68 151.059 121.258 152.173 122C153.372 122.799 154.853 123.906 155.09 125.42C155.306 126.811 153.922 128.345 152.498 127.413C151.727 126.908 151.187 126.158 150.646 125.404C150.26 124.867 149.873 124.329 149.4 123.877C148.843 123.346 148.241 122.879 147.604 122.452C147.54 122.41 147.476 122.366 147.413 122.322Z"
          fill="black"/>
    <path fill-rule="evenodd" clip-rule="evenodd"
          d="M197.519 143.848C195.923 143.198 194.498 142.114 193.457 140.729C193.095 140.247 193.001 139.739 193.077 139.274C193.162 138.751 193.472 138.277 193.895 137.959C194.319 137.64 194.849 137.483 195.362 137.563C195.808 137.633 196.251 137.876 196.602 138.381L196.676 138.482C197.295 139.318 198.102 140.004 199.021 140.446C199.907 140.872 200.898 141.071 201.923 140.955C203.877 140.735 205.223 139.681 206.653 138.25C206.831 138.069 207.008 137.882 207.187 137.693C207.299 137.521 207.456 137.411 207.629 137.353C207.822 137.289 208.04 137.292 208.239 137.362C208.432 137.429 208.604 137.556 208.719 137.725C208.829 137.886 208.891 138.085 208.871 138.313C208.74 139.796 207.963 141.12 206.859 142.16C205.633 143.314 204.008 144.113 202.478 144.393C200.792 144.702 199.074 144.481 197.519 143.848ZM203.273 120.962C205.066 122.05 207.799 124.587 205.87 127.284C203.599 129.662 200.329 126.935 198.718 125.702C197.224 124.746 195.545 127.204 196.931 128.32C208.574 136.923 213.299 121.247 204.18 119.683C203.176 119.511 202.803 120.626 203.273 120.962ZM182.409 110.955C182.607 108.501 186.353 107.943 186.726 110.372C187.06 112.548 186.667 114.547 185.685 116.506C184.746 118.377 182.388 117.504 182.21 115.8C181.971 113.516 182.286 112.482 182.409 110.955ZM210.923 109.869C211.445 109.186 212.2 108.72 213.103 108.983C215.925 109.806 215.094 113.806 214.102 115.752C213.564 116.809 211.823 117.077 211.036 116.146C209.753 114.629 209.139 111.598 210.77 110.102C210.814 110.025 210.863 109.947 210.923 109.869ZM185.645 100.215L186.091 100.137C187.47 99.8989 189.185 99.6701 190.161 100.777C190.678 101.364 190.857 102.454 190.161 103.016C188.937 104.004 187.585 103.621 186.118 103.705C184.91 103.774 183.749 103.974 182.585 104.306C180.031 105.034 177.951 106.364 175.77 107.824C175.484 108.015 175.192 107.65 175.328 107.383C176.587 104.922 179.027 102.901 181.471 101.668C182.775 101.011 184.202 100.465 185.645 100.215ZM208.35 99.1125L208.691 99.1822C212.405 99.9569 217.23 101.504 218.989 105.145C219.056 105.66 218.985 105.77 218.927 105.842L218.908 105.866C218.861 105.927 218.823 106.012 218.599 106.082C218.537 106.068 218.474 106.052 218.411 106.035C217.605 105.825 216.967 105.534 216.35 105.233L215.68 104.904C214.904 104.524 214.12 104.157 213.29 103.887C211.517 103.31 209.695 102.904 207.844 102.687C207.442 102.64 207.056 102.505 206.751 102.273C206.462 102.053 206.241 101.749 206.14 101.344C206.01 100.821 206.047 100.424 206.329 99.9519C206.54 99.5972 206.843 99.3514 207.191 99.2102C207.545 99.0662 207.949 99.0323 208.35 99.1125Z"
          fill="black"/>
</svg>
