<svg width="391" height="780" viewBox="0 0 391 780" fill="none" xmlns="http://www.w3.org/2000/svg">
    <path fill-rule="evenodd" clip-rule="evenodd"
          d="M288.157 712.828C289.828 705.064 282.184 702.439 277.366 700.712C273.914 698.477 261.125 690.739 251.229 681.187C243.131 673.37 237.618 663.352 235.324 662.397C235.324 662.397 232.962 661.03 232.717 660.014C231.279 654.062 232.478 648.515 232.717 644.906C237.323 643.699 241.015 642.193 243.776 640.088C244.581 640.356 245.788 640.698 246.148 639.523C248.643 622.91 249.72 606.493 251.75 589.867C259.434 526.542 260.301 452.563 247.081 394.725C246.942 391.858 247.193 389.269 247.449 386.806C249.236 386.613 250.317 384.886 251.777 383.854C254.042 382.057 256.725 380.677 256.614 377.536C257.152 377.129 257.089 376.901 256.824 376.383C258.552 368.967 250.844 361.152 248.665 355.038C252.627 316.359 247.236 279.809 250.243 241.121C254.042 239.534 251.488 229.618 251.229 225.528C249.124 199.179 235.399 173.127 210.684 164.519C209.271 164.234 207.147 162.622 205.978 163.704C203.719 162.811 200.713 164.572 198.964 162.544L198.981 162.531C197.509 160.493 196.849 157.903 196.365 155.454C196.446 156.144 196.581 156.829 196.748 157.498C192.487 145.514 191.413 142.309 177.697 141.745C171.518 141.662 163.373 141.847 159.77 147.729C158.294 150.463 158.745 153.602 157.829 156.479C156.147 161.76 148.887 159.208 145.075 161.951C114.57 171.715 89.5487 191.646 81.3242 223.636C79.6428 227.491 77.7358 231.329 76.3301 235.308C76.1125 235.898 75.5141 237.897 76.9513 238.817L77.6465 239.262C68.4903 281.971 67.8828 317.96 98.6441 346.433C100.953 358.667 95.0141 375.375 97.2968 387.254C95.9961 389.096 97.6455 390.579 99.3084 390.698C99.4687 390.787 100.117 391.07 100.293 391.15C97.6469 428.434 108.758 478.682 113.655 498.514C114.322 510.422 110.25 520.203 101.872 526.693C92.6166 532.382 74.3181 558.077 77.7104 585.03C73.746 585.806 69.8103 586.231 66.0069 587.718C49.3651 584.787 49.5301 616.805 48.4697 628.062C46.6738 646.912 45.5576 674.232 63.5007 686.298C68.2276 689.72 77.8122 693.727 82.7238 688.249C84.3332 686.32 84.7363 684.456 84.1031 682.485C92.2134 671.05 90.0278 656.092 90.7728 642.679C93.1246 642.538 95.5852 643.639 97.8602 643.238C100.195 641.184 91.6769 641.744 90.7934 641.624C90.8839 639.555 91.0506 637.377 91.2658 635.292C92.6019 635.559 94.3135 636.199 95.5983 636.248C96.3587 636.433 96.8962 635.388 96.4371 634.846C95.4344 633.892 92.8779 634.04 91.4392 633.904C91.6821 632.159 91.9792 630.323 92.3093 628.635C94.0693 628.572 95.8869 629.691 97.5533 629.462C96.292 628.622 93.9245 628.878 92.387 628.323C93.3868 622.886 95.424 617.724 97.318 612.639C101.965 614.552 105.974 614.627 110.511 614.054C112.367 614.339 113.272 613.96 113.572 611.643L113.453 611.497C117.049 590.023 128.653 569.552 150.205 546.337C154.463 541.582 159.273 535.983 162.479 529.724C168.92 516.697 170.02 502.323 174.983 488.795C179.616 475.197 185.952 462.19 191.9 449.3C192.772 455.906 193.944 462.683 195.162 469.161C200.523 492.116 200.004 516.608 196.058 539.69C190.221 572.019 193.035 604.501 191.736 637.059C191.754 638.937 191.987 640.643 191.711 642.598C191.675 642.748 191.746 642.926 191.924 642.922L192.261 642.931C195.067 644.981 198.942 645.352 202.239 646.464C203.623 647.558 203.233 649.29 203.36 650.641C203.722 656.465 204.186 662.311 203.611 668.313C201.067 673.178 197.908 672.173 197.261 679.03C196.696 686.859 195.695 695.184 199.515 702.155L198.07 702.404C195.925 706.896 197.234 709.813 202.276 711.713C227.164 721.452 262.186 730.294 288.157 722.943C288.629 723.41 289.316 722.925 289.852 722.191C290.368 721.485 290.746 720.55 290.662 720.006C290.218 717.622 290.828 713.269 288.157 712.828Z"
          fill="#D08B5B"/>
    <path fill-rule="evenodd" clip-rule="evenodd"
          d="M243.691 723.118C239.22 722.313 213.53 716.481 198.805 708.897C195.798 707.348 196.538 703.688 197.518 701.311C197.967 700.222 199.029 699.403 198.805 699.18C194.097 694.481 197.618 682.115 197.618 679.745C197.618 676.222 203.34 671.452 202.368 669.553C201.245 667.361 202.625 674.859 205.455 679.034C207.921 682.673 211.793 682.954 212.177 682.795L212.246 682.765L212.295 682.739C213.36 682.157 229.439 659.041 236.091 662.443C239.222 664.044 240.904 671.126 244.403 674.057C252.252 680.629 256.04 691.121 285.252 704.631C288.378 706.077 288.406 709.17 287.768 711.589C287.533 712.481 290.714 712.452 290.239 712.926C289.032 714.131 292.38 721.051 289.764 722.17C279.472 726.572 252.751 724.747 243.691 723.118ZM76.7396 585.415C76.7396 585.415 78.4276 587.524 78.3971 588.496C78.1451 596.506 76.2359 602.407 76.1763 606.346L76.1726 606.612L76.1793 606.709C76.2948 608.307 78.7403 614.444 84.0968 615.752C87.1222 616.491 95.9713 613.145 95.9713 613.145C95.9713 613.145 90.9159 627.082 90.034 639.69C89.3415 649.592 89.9004 660.822 88.6091 669.553C87.9042 674.32 85.3515 679.623 82.4344 683.3C81.7195 684.201 84.8272 685.907 84.0968 686.618C82.7289 687.951 79.347 692.543 68.8975 688.988C65.8558 687.953 57.0059 682.203 52.0357 671.213C48.4051 663.184 48.0636 651.488 47.5234 641.112C46.9265 629.645 49.1445 611.751 52.0357 602.006C55.2507 591.169 59.248 589.051 60.0763 588.451C60.2699 588.311 66.287 587.125 66.8663 587.06L66.9675 587.049L67.0473 587.042L67.0914 587.024C69.4538 586.112 72.1546 585.673 75.7063 585.469L75.9248 585.457L76.7396 585.415Z"
          fill="white"/>
    <path fill-rule="evenodd" clip-rule="evenodd"
          d="M289.224 720.626C266.86 730.649 226.249 718.002 204.274 710.685C198.349 708.552 196.375 708.134 198.035 701.317C201.141 707.299 207.822 708.744 214.222 709.944C235.903 714.876 258.006 723.983 281.192 719.539C284.595 719.005 287.963 717.166 288.953 713.772C289.564 715.21 289.186 717.158 289.431 718.74C289.476 719.37 289.49 720.052 289.224 720.626M198.772 683.346C199.175 679.328 199.821 675.084 202.113 671.533C201.864 677.276 205.319 687.036 212.89 683.784C215.035 682.65 216.237 680.366 217.616 678.532C222.202 672.497 228.083 667.258 234.725 663.45C238.421 664.084 240.01 670.828 242.391 673.651C239.736 674.832 234.925 677.522 234.438 680.305C237.753 679.192 240.805 677.12 244.282 676.391C245.396 677.925 246.576 679.413 247.816 680.85C246.196 681.562 239.665 684.857 239.708 686.501C243.239 685.929 246.661 684.203 250.212 683.494C251.791 685.057 253.228 686.74 254.8 688.308C252.425 689.284 249.917 690.374 248.621 692.649C248.559 692.752 248.711 692.867 248.794 692.768C250.573 690.628 253.634 690.235 256.287 689.753C260.357 693.578 264.915 696.952 270.016 699.477C275.12 702.262 282.876 702.899 284.907 708.94C286.531 714.98 281.466 715.625 276.792 716.052C272.063 716.723 267.302 716.825 262.604 716.433C247.92 715.822 234.039 711.508 220.162 707.739C203.196 704.622 197.691 702.099 198.772 683.346M231.157 661.514C224.657 666.312 218.311 671.658 213.796 678.35C210.809 683.794 206.833 680.48 205.845 676.119C205.045 666.381 205.733 657.972 204.796 648.176C213.785 649.399 223.018 648.646 231.798 646.482C230.741 650.855 230.257 652.515 230.223 657.001C230.281 658.479 230.259 660.284 231.157 661.514M198.712 376.543C197.848 376.857 197.479 375.483 198.333 375.172C198.92 374.958 199.514 374.767 200.11 374.586C200.184 374.427 200.317 374.29 200.522 374.216C207.519 371.672 215.335 371.919 222.643 372.528C226.571 372.855 230.491 373.294 234.372 373.984C238.088 374.644 241.775 375.455 245.492 376.103C246.251 376.198 247.01 376.29 247.768 376.375C248.671 376.476 248.678 377.899 247.768 377.797C247.601 377.778 247.434 377.756 247.267 377.737C247.156 377.776 247.033 377.793 246.895 377.771C246.316 377.68 245.739 377.583 245.162 377.483C242.625 377.158 240.094 376.786 237.563 376.416C230.906 375.442 224.227 374.469 217.495 374.216C211.168 373.979 204.707 374.359 198.712 376.543M246.641 241.517C245.095 262.792 245.494 281.795 245.826 303.102C246.019 317.434 246.109 331.771 245.61 346.098C232.968 313.49 236.837 278.107 235.042 243.833C238.778 242.591 242.791 242.048 246.641 241.517M182.116 398.812C183.298 401.066 185.284 402.879 187.637 404.012C187.347 404.58 187.248 405.22 187.217 405.82C182.978 406.685 184.17 408.693 181.306 409.65C179.432 410.167 177.629 410.387 176.01 411.52C170.497 416.644 169.13 416.267 163.214 411.759C163.295 411.352 155.244 403.504 152.75 399.117C150.672 395.458 148.496 391.772 145.312 388.942C129.716 373.006 113.101 357.965 98.0038 341.588C67.7479 311.499 73.5211 277.382 80.4702 239.799C91.6866 241.136 102.965 243.821 113.066 248.751C109.503 265.339 109.275 280.375 107.741 297.208C107.278 299.289 107.8 303.297 110.755 302.372C137.912 323.89 141.068 368.109 176.705 380.896C191.23 386.788 185.101 391.571 189.9 402.696C187.259 402.213 184.904 400.004 183.768 397.89C183.206 396.84 181.567 397.764 182.116 398.812M115.078 385.442C114.204 385.544 113.328 385.619 112.451 385.69C112.349 385.772 112.223 385.832 112.068 385.851C110.702 386.022 109.309 386.244 107.928 386.546C105.879 387.271 103.809 387.933 101.748 388.622C101.568 388.711 101.388 388.8 101.211 388.894C101.041 388.984 100.876 388.998 100.728 388.965C100.668 388.986 100.607 389.005 100.547 389.026C100.531 389.031 100.516 389.037 100.501 389.042C100.446 389.04 100.391 389.038 100.335 389.036C100.254 389.033 100.115 389.026 99.9498 389.015C99.9463 388.953 99.9475 388.891 99.9456 388.829C99.3639 388.846 98.8427 388.12 99.3901 387.641C101.397 385.885 104.092 385.243 106.669 384.855C109.458 384.434 112.279 384.346 115.078 384.02C115.988 383.914 115.978 385.337 115.078 385.442M89.4541 627.144C86.9559 626.953 76.271 626.585 74.9888 628.258C76.4328 628.868 78.4179 628.531 79.9711 628.6C82.9875 628.723 85.9965 628.988 88.9817 629.41C88.7582 630.572 88.5564 631.731 88.3903 632.894C85.379 633.181 79.5151 633.311 77.6036 635.414C81.0137 635.957 84.5642 635.468 87.9864 636.146C87.8201 637.739 87.699 639.334 87.609 640.929C86.2456 641.074 78.2282 642.398 78.2353 643.657C81.2369 644.055 84.4169 643.531 87.476 643.828C86.8132 653.386 89.0601 682.252 75.9694 684.017C64.5248 683.415 59.5043 664.905 57.949 656.024C54.5004 635.333 55.092 613.272 61.9269 593.328C64.3681 587.782 71.0133 586.82 76.6323 586.533C76.8458 587.471 77.0571 588.393 77.2946 589.322C74.858 594.835 74.0816 601.043 74.0149 607.008C74.5302 615.583 85.1318 621.959 92.8312 616.294C91.392 619.802 90.2808 623.452 89.4541 627.144M74.3097 688.831C51.6411 683.968 47.922 657.769 49.4801 638.504C50.7505 625.094 49.2237 596.822 61.6275 588.943C45.597 603.548 46.9889 702.974 82.5147 685.62C81.6288 688.421 77.0738 689.229 74.3097 688.831M78.7525 595.355C78.7928 595.009 78.8377 594.665 78.8852 594.319C81.4002 601.138 85.7083 607.618 92.1231 611.566C89.6672 614.624 84.8842 615.534 81.6567 613.031C76.0282 608.819 78.3749 601.199 78.7525 595.355M156.021 159.744C155.976 159.823 155.928 159.901 155.881 159.977C155.567 159.998 155.252 160.026 154.931 160.062C155.295 159.953 155.658 159.851 156.021 159.744M291.426 716.476C291.364 714.78 291.34 712.589 289.35 711.987C290.252 704.678 284.172 700.517 277.789 698.492C272.346 695.169 266.173 692.847 261.172 688.841C263.494 688.406 265.817 687.88 267.881 686.871C269.439 686.111 268.688 683.578 267 683.812C264.01 684.206 261.324 685.723 258.514 686.778C256.918 685.469 255.372 684.103 253.912 682.657C255.731 682.306 258.044 682.435 259.103 680.633C259.433 680.069 259.286 679.485 258.887 679.05C257.044 677.188 253.391 679.047 251.102 679.59C250.003 678.325 248.941 677.035 247.898 675.729C249.627 675.57 254.125 675.886 253.244 673.037C251.556 670.81 247.925 672.146 245.483 672.605C242.386 668.804 241.389 662.974 236.549 660.883C236.375 659.961 235.169 660.032 234.364 660.306C233.179 654.659 233.269 651.789 233.616 646.001C237.209 645.008 240.774 643.705 243.761 641.567C245.134 641.97 246.799 641.505 247.084 639.896C249.568 623.414 250.672 606.729 252.693 590.188C260.062 529.274 261.668 454.924 248.026 394.744C247.92 392.464 248.081 390.182 248.311 387.919C249.938 387.485 250.907 385.899 252.254 384.982C254.757 382.946 257.303 381.806 257.533 378.253C258.039 377.772 258.098 377.045 257.821 376.414C258.469 372.766 257.514 369.145 255.569 365.993C253.437 362.402 251.423 358.778 249.644 355.01C253.534 317.026 248.257 280.214 251.142 242.041C254.842 240.086 252.52 229.221 252.176 225.6C250.014 201.816 238.888 175.555 215.232 165.662C213.572 164.264 211.254 163.79 209.225 163.02C207.855 162.347 205.625 161.764 204.687 163.33C203.692 162.868 200.488 162.515 199.391 161.714C199.187 161.564 199.056 161.401 199.025 161.218C198.945 161.221 198.85 161.204 198.747 161.183C197.736 159.756 196.772 149.818 195.525 150.527C194.164 153.94 195.107 157.796 196.408 161.242C197.306 164.29 198.536 172.13 203.305 170.125C204.127 169.718 203.618 168.658 202.882 168.573C200.621 167.928 200.118 164.612 199.244 162.669C200.279 163.527 204.996 164.814 205.511 165.086C215.742 188.522 153.883 187.292 149.02 171.135C145.552 165.553 148.545 162.529 154.727 161.633C150.183 166.672 155.935 167.791 158.122 162.849C160.215 159.31 161.167 155.011 160.452 150.939C160.82 149.51 161.132 147.6 158.989 147.984C158.916 147.794 158.799 147.943 158.845 148.079C158.063 149.321 158.607 151.105 158.329 152.539C158.094 154.886 157.427 157.185 156.294 159.261C154.192 159.661 152.1 160.09 150.017 160.56C148.768 158.026 140.665 163.079 138.489 163.674C109.589 172.194 87.6119 194.886 79.9412 223.507C78.2289 227.318 76.381 231.148 74.9798 235.078C74.3528 236.78 74.3528 238.891 76.0746 239.993C67.6841 278.406 65.637 318.427 97.3349 347.238C98.0543 350.357 97.5748 353.666 97.5534 356.842C97.761 362.489 94.0331 378.837 95.8114 387.261C95.6184 387.629 95.4818 388.024 95.4284 388.445C95.1795 390.403 96.7756 391.664 98.5366 391.985C98.5901 391.995 98.6452 392.004 98.6995 392.014C98.7394 392.033 98.7782 392.055 98.8192 392.073C96.7172 424.188 104.6 467.886 112.24 498.868C112.805 509.517 109.587 519.203 100.926 525.922C84.458 538.209 77.5209 558.717 75.5949 578.261C75.3218 580.264 75.5902 582.302 76.0416 584.269C72.4719 584.933 69.1307 585.364 65.6655 586.67C46.5547 583.016 47.9181 623.992 46.4552 636.151C45.3103 654.126 46.0251 675.672 62.5757 687.442C68.1401 691.396 77.9627 695.193 83.3848 689.206C84.9187 687.374 85.7549 685.231 85.1515 682.889C92.9245 671.529 91.0887 657.01 91.6706 644.084C93.7059 644.155 95.924 645.06 97.9287 644.562C99.4723 644.155 99.6694 642.178 98.3633 641.391C96.4774 640.325 93.9148 640.73 91.8059 640.659C91.8703 639.422 91.9629 638.185 92.0817 636.947C94.0835 637.436 96.9523 638.609 97.5484 635.817C97.7885 633.274 94.5703 633.079 92.5661 632.97C92.7063 632.01 92.863 631.055 93.0411 630.102C94.5753 630.257 96.1947 631.233 97.703 630.766C98.5578 630.43 98.8546 629.567 98.23 628.868C97.0689 627.732 95.0833 627.96 93.547 627.607C94.4801 623.044 96.1665 618.681 97.7909 614.318C100.731 615.337 103.916 616.01 107.053 615.754C108.68 615.413 110.456 615.315 112.1 615.536C113.928 615.052 114.351 613.102 114.591 611.509C114.555 611.452 114.519 611.398 114.479 611.348C118.704 586.794 133.861 565.581 150.855 547.305C155.536 542.077 160.127 536.64 163.307 530.43C169.767 517.452 170.926 502.849 175.868 489.366C180.031 477.122 185.595 465.381 191.05 453.622C193.238 469.109 197.322 484.341 197.791 500.046C198.503 519.914 194.116 539.494 192.245 559.203C188.88 585.144 191.936 611.246 190.312 637.206C190.324 639.043 190.561 640.773 190.3 642.61C190.155 643.626 190.887 644.264 191.656 644.285C194.482 646.136 198.033 646.793 201.281 647.584C202.182 648.272 201.792 649.964 201.951 651C202.3 656.818 202.761 661.209 202.193 667.076C199.016 671.765 196.727 671.016 195.843 678.143C195.356 685.584 194.285 693.63 197.543 700.384C196.085 700.715 195.532 705.156 195.75 706.331C196.121 709.646 199.049 710.694 201.88 711.838C222.568 719.574 266.525 732.309 287.782 723.551C289.305 724.411 291.003 722.726 291.494 721.369C292.145 719.717 291.546 718.117 291.426 716.476"
          fill="black"/>
    <path fill-rule="evenodd" clip-rule="evenodd"
          d="M227.301 106.667C226.403 91.9247 221.62 75.2105 207.542 67.9722C176.506 55.5154 135.7 86.8851 133.54 118.932C132.787 129.901 138.877 141.888 150.006 144.938C152.481 148.217 156.223 150.219 159.916 151.957C203.908 174.782 232.324 156.228 227.301 106.667V106.667Z"
          fill="#D08B5B"/>
    <path fill-rule="evenodd" clip-rule="evenodd"
          d="M237.323 97.4965C235.768 93.1782 234.126 88.8931 232.398 84.6411C230.716 80.5029 229.196 76.2753 227.106 72.3332C214.627 48.7886 191.933 48.7886 180.202 51.865C174.118 49.2437 162.724 49.9831 156.389 52.3485C146.134 56.1779 133.633 71.2418 129.359 78.0098C119.923 92.9531 114.033 112.842 120.302 130.11C121.121 132.367 122.166 134.457 123.342 136.471C122.601 137.476 121.748 138.427 120.803 139.362C117.996 142.14 115.188 144.827 112.762 147.96C110.352 151.074 108.353 154.386 106.866 158.037C104.061 164.923 103.926 172.719 107.634 179.289C110.861 185.006 116.576 189.263 123.015 189.669C123.346 189.715 123.677 189.757 124.009 189.791C124.863 191.196 125.903 192.49 127.09 193.618C130.728 197.079 139.399 198.854 144.345 198.968C144.599 199.171 144.855 199.375 145.111 199.577C148.137 201.959 151.313 204.362 154.787 206.057C157.14 207.206 160.226 208.166 162.681 207.336C163.795 208.081 165.622 207.924 166.727 207.315C168.542 206.315 170.018 204.514 170.917 202.67C173.094 198.193 172.571 193.294 172.011 188.511C171.395 183.228 170.803 177.942 170.201 172.66C169.729 168.528 169.236 164.329 167.98 160.349C167.331 158.287 166.48 156.306 165.38 154.443C165.409 154.287 165.404 154.13 165.359 153.983C164.999 152.812 164.255 152.198 163.373 151.402C163.259 151.3 163.146 151.196 163.034 151.089C162.593 150.587 162.122 150.12 161.617 149.724C161.423 149.527 161.231 149.328 161.039 149.129C159.444 147.458 157.937 145.702 156.598 143.82C155.299 141.995 154.126 140.09 153.01 138.149C151.875 136.174 151.123 133.996 149.99 132.036C149.893 131.868 149.647 131.835 149.509 131.974C149.159 132.337 148.933 132.74 148.976 133.164L148.801 133.19C148.734 132.55 148.144 132.029 147.343 132.169C146.144 132.377 145.158 132.456 144.12 132.057C144.303 130.846 144.471 129.633 144.637 128.417C144.94 126.179 145.222 123.935 145.464 121.691C146.049 121.83 146.63 122.032 147.199 122.288C148.009 122.65 148.775 123.139 149.429 123.738C150.073 124.331 150.519 125.13 151.306 125.542C152.211 126.014 153.304 125.234 153.038 124.21C152.5 122.141 149.455 120.956 147.571 120.565C146.924 120.43 146.263 120.373 145.601 120.387C145.751 118.946 145.883 117.505 145.992 116.062C146.045 115.379 146.092 114.696 146.137 114.011C147.602 113.568 149.17 113.435 150.694 113.644C151.197 114.045 151.699 114.44 152.185 114.841C153.728 116.116 155.263 117.398 156.78 118.704C156.918 118.82 157.053 118.936 157.19 119.055C158.091 119.83 159.214 119.062 159.062 117.965C157.825 108.973 163.333 101.82 169.781 96.2783C176.919 90.1421 189.897 89.4276 198.386 78.7988C202.295 79.5946 211.024 81.9582 214.627 87.6985C219.67 95.7427 219.011 102.95 219.395 112.075C219.779 121.207 220.755 130.732 218.682 139.736C216.769 148.039 211.591 155.133 203.557 158.394C203.358 158.474 203.156 158.553 202.955 158.629C198.801 160.195 194.267 160.638 189.897 159.814C185.06 158.899 181.022 156.685 176.998 153.962C176.765 153.808 176.427 154.125 176.602 154.358C181.906 161.387 192.324 163.736 200.587 161.88C200.974 161.793 201.358 161.698 201.739 161.594C199.891 166.91 200.263 172.745 202.671 177.921C204.119 181.035 206.327 183.73 209.017 185.856C211.982 188.198 215.66 190.089 217.717 193.377C219.601 196.389 219.042 199.773 215.816 201.513C215.003 201.954 214.691 203.378 215.496 204.004C215.805 204.241 216.113 204.483 216.428 204.72C218.234 206.083 223.194 208.642 223.997 208.737C231.131 209.583 235.927 204.345 239.001 198.167C242.61 190.914 241.672 182.076 237.695 175.169C234.505 169.628 228.223 164.167 230.721 157.154C231.612 154.649 233.434 152.514 235.204 150.584C237.224 148.387 239.394 146.33 241.331 144.055C243.255 141.796 244.961 139.338 245.914 136.504C247.305 132.361 246.613 127.881 245.568 123.745C243.328 114.867 240.42 106.107 237.323 97.4965Z"
          fill="black"/>
    <path fill-rule="evenodd" clip-rule="evenodd"
          d="M204.868 135.413C205.683 133.978 208.115 134.211 208.486 135.884C209.24 139.277 205.187 142.41 202.108 142.488C199.048 142.566 195.615 139.967 196.058 136.684C196.168 135.872 197.255 135.971 197.625 136.48L197.769 136.675C198.775 138.024 200.103 139.421 201.97 139.092C202.744 138.956 203.447 138.473 203.915 137.852C204.479 137.102 204.417 136.207 204.868 135.413ZM185.414 110.593C185.828 110.479 186.247 110.523 186.614 110.679C187.435 110.829 188.12 111.511 188.361 112.291C188.38 112.358 188.401 112.425 188.424 112.491L188.461 112.589L188.362 112.339C188.408 112.585 188.609 112.844 188.681 113.091C188.77 113.394 188.791 113.739 188.761 114.073C189.022 114.076 189.283 114.085 189.543 114.107L189.795 114.13C191.201 114.26 192.745 114.5 193.579 115.713C194.048 116.394 193.608 117.622 192.748 117.753C191.423 117.955 190.282 117.224 188.962 117.077C187.715 116.938 186.409 117.018 185.177 117.243C182.634 117.707 180.298 118.735 177.82 119.381L177.483 119.466V119.466L177.483 119.464C177.058 119.567 176.576 118.978 176.996 118.633C178.982 117.006 181.523 115.687 184.027 114.883C183.662 114.304 183.55 113.542 183.799 112.92C183.837 112.791 183.885 112.666 183.936 112.541L184.041 112.284V112.284C184.052 112.163 184.075 112.043 184.109 111.926L184.114 111.89V111.89L184.117 111.892V111.892C184.304 111.288 184.79 110.764 185.414 110.593ZM210.741 110.686C211.284 110.144 212.046 110.224 212.613 110.651L212.688 110.71V110.71C213.222 110.947 213.664 111.464 213.955 111.943C214.256 112.441 214.456 112.949 214.464 113.497C215.778 113.501 217.037 113.895 218.002 114.953C218.314 115.295 218.526 115.822 218.355 116.286L218.253 116.561V116.561C217.929 117.436 216.472 117.94 215.977 116.911L215.954 116.861C215.428 115.639 213.409 115.767 212.336 115.892C211.587 115.979 210.849 116.165 210.126 116.373C209.872 116.446 209.619 116.526 209.367 116.607L209.115 116.688C208.981 116.732 208.281 117.111 208.716 117.021C208.834 116.997 208.922 117.167 208.802 117.224C208.283 117.472 207.729 116.979 207.764 116.422C207.824 115.456 209.361 114.927 210.101 114.594L210.145 114.574C210.428 114.443 210.726 114.317 211.032 114.201C210.86 113.945 210.717 113.661 210.599 113.355C210.487 113.067 210.412 112.787 210.371 112.481C210.33 112.331 210.33 112.181 210.371 112.031L210.377 111.988V111.988C210.356 111.889 210.346 111.787 210.348 111.683L210.343 111.643H210.348C210.362 111.282 210.506 110.921 210.741 110.686ZM202.066 120.974C204.152 121.617 207.593 123.369 206.506 126.074C204.988 128.558 200.963 126.732 199.012 125.93C197.26 125.35 196.348 127.801 198.042 128.54C212.044 134.068 211.993 119.478 202.574 119.692C201.537 119.716 201.504 120.76 202.066 120.974ZM183.54 101.95L183.896 101.846C185.745 101.311 187.632 100.389 189.274 101.829C189.919 102.394 190.051 103.569 189.59 104.275C188.539 105.882 186.981 105.636 185.284 105.773C183.992 105.877 182.72 106.256 181.514 106.73C180.528 107.117 179.614 107.661 178.751 108.269C177.903 108.867 177.324 109.801 176.454 110.338C176.136 110.536 175.768 110.333 175.653 110.013C175.247 108.879 175.933 107.466 176.513 106.5C177.221 105.321 178.296 104.357 179.452 103.627C180.719 102.828 182.119 102.367 183.54 101.95V101.95ZM210.48 100.729C213.606 100.728 216.613 102.463 218.361 105.006C218.955 105.87 218.519 107.15 217.667 107.647C216.71 108.205 215.688 107.803 215.057 107.003L215.02 106.955C214.017 105.623 212.725 104.573 211.193 103.89C210.446 103.557 209.62 103.286 208.811 103.149L208.55 103.104C208.184 103.043 207.759 102.985 207.428 103.042C207.25 103.065 207.087 103.124 206.937 103.213C207.01 103.37 206.823 103.56 206.651 103.466C205.874 103.04 205.97 102.28 206.611 101.69C207.518 100.855 209.308 100.729 210.48 100.729Z"
          fill="black"/>
</svg>
