<svg id="Capa_1" enable-background="new 0 0 512.025 512.025" height="512" viewBox="0 0 512.025 512.025" width="512"
     xmlns="http://www.w3.org/2000/svg">
    <path d="m274.403 177.298c-10.047-7.954-31.242-27.753-45.109-40.89-9.238-8.752-23.973-8.565-32.626.766-13.361 14.408-21.515 41.542 23.552 86.317 27.886-20.022 54.183-46.193 54.183-46.193z"
          fill="#8eafe2"/>
    <path d="m493.208 322.053c14.303-27.085 18.505-43.895-8.39-53.98-26.895-10.086-142.06-13.626-200.519-81.365-29.287-33.937-52.01-6.331-73.723 4.661s-95.402 30.479-116.414 13.669c-21.011-16.809-30.049-39.695-50.22-30.45s-22.723 89.467-22.723 135.327l77.524 39.046h341.202z"
          fill="#fcf2d0"/>
    <path d="m158.588 207.415c-25.825 5.161-52.963 6.794-64.425-2.376-21.011-16.809-30.049-39.695-50.22-30.45s-22.723 89.467-22.723 135.327l77.524 39.046h77.007c-18.088-43.369-25.751-101.483-17.163-141.547z"
          fill="#f6e3a3"/>
    <path d="m484.818 268.073c-7.296-2.736-21.095-4.992-38.487-8.177-21.055 35.641-68.581 33.927-103.001 28.567-13.731-2.139-27.424 4.061-34.974 15.729l-28.969 44.77h160.559l53.261-26.909c14.303-27.086 18.505-43.895-8.389-53.98z"
          fill="#7acefa"/>
    <path d="m94.162 205.039c-21.011-16.809-30.049-39.695-50.22-30.45s-22.723 89.467-22.723 135.327l77.524 39.046h16.603c13.123-46.117 3.042-107.377-21.184-143.923z"
          fill="#7acefa"/>
    <path d="m412.462 382.02h-363.87c-26.778 0-46.381-25.201-39.814-51.162 1.522-6.015 3.207-12.47 5.064-19.314 2.366-8.724 10.391-14.711 19.428-14.532 159.244 3.156 253.484 54.072 459.937 25.04-6.787 16.809-21.968 32.258-35.057 43.264-12.801 10.766-28.962 16.704-45.688 16.704z"
          fill="#8eafe2"/>
    <path d="m159.583 308.674c-39.523-5.824-80.19-10.747-126.313-11.661-9.037-.179-17.062 5.808-19.428 14.532-1.856 6.844-3.542 13.298-5.064 19.314-6.568 25.96 13.036 51.162 39.814 51.162h110.82c-10.323-23.349-6.428-59.778.171-73.347z"
          fill="#6a96d7"/>
    <ellipse cx="159.584" cy="277.47" fill="#eda1ab" rx="21.111" ry="16.812"/>
    <ellipse cx="274.014" cy="277.47" fill="#eda1ab" rx="21.111" ry="16.812"/>
    <g fill="#7acefa">
        <path d="m70.887 382.02v-27.2c0-4.021 3.26-7.28 7.28-7.28s7.28 3.26 7.28 7.28v27.2z"/>
        <path d="m113.856 382.02v-27.2c0-4.021 3.259-7.28 7.28-7.28s7.28 3.26 7.28 7.28v27.2z"/>
        <path d="m156.825 382.02v-27.2c0-4.021 3.26-7.28 7.28-7.28 4.021 0 7.28 3.26 7.28 7.28v27.2z"/>
    </g>
    <path d="m171.887 245.156c-4.142 0-7.5 3.358-7.5 7.5v8.63c0 4.142 3.358 7.5 7.5 7.5s7.5-3.358 7.5-7.5v-8.63c0-4.142-3.358-7.5-7.5-7.5zm338.397 35.151c-3.188-8.392-10.657-14.691-22.832-19.257-6.876-2.579-18.175-4.621-32.48-7.208-44.163-7.984-117.158-21.182-160.905-67.508-.014-.015-.025-.032-.039-.047-.01-.01-.02-.019-.03-.029-1.369-1.452-2.711-2.933-4.021-4.451-3.859-4.471-7.657-8.012-11.387-10.767-7.643-6.12-23.258-20.297-44.137-40.076-6.03-5.712-13.914-8.715-22.219-8.442-8.115.263-15.596 3.655-21.065 9.553-7.425 8.007-11.594 17.276-12.392 27.549-.796 10.263 1.87 21.286 7.929 32.865-10.473 3.29-23.128 6.526-35.889 8.752-25.394 4.429-44.823 3.66-51.969-2.059-2.925-2.34-5.822-4.978-9.117-8.302-2.916-2.942-7.665-2.962-10.606-.046-2.941 2.917-2.962 7.665-.046 10.606 3.354 3.383 6.376 6.159 9.425 8.662 14.081 21.732 23.326 53.525 24.883 84.92-25.261-2.856-51.672-4.948-79.968-5.509-1.535-.029-3.046.074-4.523.29.469-25.957 1.874-47.908 4.187-65.364 4.918-37.112 12.511-42.358 13.983-43.033 4.143-1.899 6.673-1.563 8.413-1.058 3.982 1.156 8.139-1.135 9.293-5.112 1.155-3.978-1.134-8.139-5.112-9.293-6.038-1.752-12.376-1.138-18.844 1.827-11.097 5.086-25.904 24.121-27.029 129.546-3.352 3.294-5.884 7.469-7.185 12.264-1.76 6.489-3.475 13.028-5.096 19.438-3.703 14.638-.509 29.863 8.762 41.771 9.267 11.903 23.235 18.729 38.323 18.729h305.612c4.143 0 7.5-3.358 7.5-7.5s-3.357-7.5-7.5-7.5h-305.611c-10.428 0-20.082-4.718-26.487-12.944-6.409-8.232-8.616-18.758-6.056-28.878 1.601-6.327 3.293-12.783 5.031-19.19 1.468-5.409 6.43-9.08 12.042-8.997 58.847 1.167 109.832 9.08 159.137 16.733 32.168 4.993 64.756 10.049 100.019 13.373.257.041.514.059.772.072 53.42 4.991 113.007 5.983 186.601-3.265-6.113 9.1-15.021 18.645-26.327 28.153-11.459 9.636-25.97 14.943-40.861 14.943h-22.823c-4.143 0-7.5 3.358-7.5 7.5s3.357 7.5 7.5 7.5h22.822c18.418 0 36.357-6.557 50.516-18.462 18.437-15.504 30.876-30.896 36.996-45.758 9.834-18.661 14.975-32.714 10.31-44.991zm-308.117-138.033c2.724-2.938 6.471-4.628 10.552-4.76 4.269-.139 8.317 1.402 11.417 4.339 7.2 6.821 15.516 14.626 23.346 21.805-10.511 2.229-19.994 8.387-28.123 13.668-4.265 2.771-8.293 5.388-12.171 7.351-1.685.853-3.768 1.781-6.167 2.753-10.163-18.189-9.79-33.362 1.146-45.156zm87.494 177.005c-33.404-3.283-64.447-8.099-95.102-12.857-21.527-3.341-43.374-6.729-66.074-9.598-1.012-27.909-7.559-55.693-18.26-78.367 11.26 1.42 25.682.611 43.169-2.439 25.137-4.384 49.496-12.353 60.568-17.958 4.598-2.328 9.158-5.291 13.569-8.155 17.562-11.411 31.478-20.428 50.44.977l-16.356 15.071c-3.046 2.807-3.24 7.552-.434 10.598 1.479 1.605 3.495 2.418 5.518 2.418 1.816 0 3.639-.656 5.08-1.984l16.488-15.193c5.157 4.98 10.611 9.572 16.293 13.813l-11.959 13.391c-2.759 3.089-2.491 7.831.598 10.59 1.431 1.278 3.215 1.906 4.993 1.906 2.063 0 4.115-.845 5.597-2.504l13.249-14.835c6.583 4.142 13.383 7.887 20.31 11.284l-7.508 12.492c-2.134 3.55-.985 8.158 2.565 10.292 1.209.727 2.541 1.073 3.857 1.073 2.546 0 5.028-1.296 6.436-3.637l8.401-13.978c28.248 11.856 57.556 18.626 82.039 23.371-16.459 17.466-45.618 22.705-88.653 16.003-16.608-2.586-33.259 4.897-42.425 19.065zm198.68-4.128c-71.455 9.765-129.736 9.779-181.788 5.632l8.1-12.518c5.955-9.205 16.757-14.071 27.522-12.392 23.335 3.634 42.628 3.984 58.983 1.065 21.681-3.868 38.034-13.55 48.726-28.772.815.147 1.622.294 2.419.438 13.024 2.355 24.272 4.388 29.881 6.492 7.904 2.964 12.51 6.412 14.078 10.54 2.577 6.78-2.018 17.981-7.921 29.515zm-254.774-59.775c-3.123-2.722-7.861-2.398-10.582.726-1.563 1.793-3.818 2.822-6.187 2.822s-4.624-1.028-6.186-2.822c-2.721-3.124-7.458-3.448-10.582-.727-3.123 2.721-3.448 7.459-.727 10.582 4.412 5.063 10.789 7.967 17.495 7.967s13.082-2.904 17.495-7.967c2.722-3.122 2.397-7.86-.726-10.581zm28.143-10.22c-4.143 0-7.5 3.358-7.5 7.5v8.63c0 4.142 3.357 7.5 7.5 7.5s7.5-3.358 7.5-7.5v-8.63c0-4.142-3.358-7.5-7.5-7.5z"/>
</svg>
