<?xml version="1.0" standalone="no"?>
<!DOCTYPE svg PUBLIC "-//W3C//DTD SVG 20010904//EN"
        "http://www.w3.org/TR/2001/REC-SVG-20010904/DTD/svg10.dtd">
<svg version="1.0" xmlns="http://www.w3.org/2000/svg"
     width="284.000000pt" height="275.000000pt" viewBox="0 0 284.000000 275.000000"
     preserveAspectRatio="xMidYMid meet">
    <g transform="translate(0.000000,275.000000) scale(0.100000,-0.100000)"
       fill="#353535" stroke="none">
        <path d="M1362 2696 c-170 -179 -279 -463 -301 -783 -5 -71 -6 -174 -3 -231
l5 -102 361 2 361 3 3 175 c3 192 -7 293 -42 433 -33 130 -78 239 -139 342
-54 90 -159 215 -181 215 -7 0 -36 -24 -64 -54z"/>
        <path d="M4 2195 c-13 -34 5 -239 29 -336 25 -94 76 -230 100 -263 11 -15 51
-16 445 -14 l432 3 -66 85 c-240 307 -570 512 -861 537 -63 5 -73 4 -79 -12z"/>
        <path d="M2675 2195 c-278 -61 -561 -253 -768 -520 l-69 -90 433 -3 c339 -2
434 1 441 10 18 29 69 160 94 244 21 72 27 116 31 232 l6 142 -54 -1 c-30 0
-81 -7 -114 -14z"/>
        <path d="M215 1453 c10 -16 29 -43 42 -60 l24 -33 1142 0 1142 0 38 54 c20 30
37 57 37 60 0 3 -550 6 -1221 6 l-1221 0 17 -27z"/>
        <path d="M370 1260 c0 -5 24 -34 54 -65 l54 -55 944 0 944 0 57 58 c31 32 57
61 57 65 0 4 -475 7 -1055 7 -664 0 -1055 -4 -1055 -10z"/>
        <path d="M623 1026 c131 -107 410 -216 554 -216 l54 0 -3 118 -3 117 -315 2
-315 2 28 -23z"/>
        <path d="M1240 1039 c0 -31 160 -229 185 -229 25 0 185 198 185 229 0 7 -62
11 -185 11 -123 0 -185 -4 -185 -11z"/>
        <path d="M1617 975 c-4 -41 -4 -95 0 -120 6 -44 7 -45 42 -45 62 0 213 36 302
72 93 38 213 105 256 143 l28 24 -311 1 -311 0 -6 -75z"/>
        <path d="M940 571 l0 -99 -29 14 c-74 37 -180 26 -257 -27 -130 -89 -139 -291
-18 -398 68 -60 172 -78 263 -46 22 8 41 10 41 5 0 -6 29 -10 65 -10 l65 0 0
330 0 330 -65 0 -65 0 0 -99z m-53 -217 c36 -28 59 -88 49 -129 -4 -14 -22
-43 -41 -63 -31 -34 -38 -37 -89 -37 -47 0 -59 4 -85 29 -59 57 -65 126 -15
186 46 54 120 60 181 14z"/>
        <path d="M1110 605 l0 -65 65 0 65 0 0 65 0 65 -65 0 -65 0 0 -65z"/>
        <path d="M1680 570 l0 -101 -31 16 c-114 59 -282 0 -338 -120 -27 -58 -28
-163 -2 -220 23 -52 74 -103 126 -126 50 -23 152 -25 203 -4 24 10 38 12 40 5
2 -5 30 -10 63 -10 l59 0 0 330 0 330 -60 0 -60 0 0 -100z m-85 -200 c49 -24
78 -69 77 -122 -2 -99 -114 -160 -199 -108 -92 56 -79 191 22 236 41 18 52 17
100 -6z"/>
        <path d="M170 495 c-105 -33 -170 -124 -170 -241 0 -114 54 -197 155 -240 44
-18 146 -18 190 0 19 8 35 11 35 5 0 -5 29 -9 65 -9 l65 0 0 245 0 245 -64 0
c-35 0 -66 -4 -68 -10 -2 -6 -19 -4 -43 5 -50 18 -107 18 -165 0z m135 -125
c72 -35 97 -119 55 -187 -69 -114 -240 -62 -240 74 0 48 35 97 85 119 41 18
52 17 100 -6z"/>
        <path d="M2017 496 c-117 -42 -186 -151 -174 -272 14 -132 118 -224 255 -224
34 0 78 7 97 14 19 8 35 11 35 5 0 -5 29 -9 65 -9 l65 0 0 245 0 245 -64 0
c-35 0 -66 -4 -68 -10 -2 -6 -22 -4 -52 5 -60 18 -109 18 -159 1z m151 -133
c32 -20 62 -72 62 -108 0 -69 -66 -135 -136 -135 -41 0 -95 37 -117 80 -58
113 82 233 191 163z"/>
        <path d="M2521 495 c-82 -26 -130 -97 -116 -173 14 -80 48 -103 179 -126 117
-20 136 -36 94 -76 -32 -29 -92 -27 -123 5 -14 13 -25 29 -25 35 0 6 -28 10
-70 10 -78 0 -80 -2 -51 -66 36 -79 102 -109 227 -102 91 4 144 26 176 70 44
63 30 165 -29 203 -14 10 -73 29 -130 43 -59 14 -107 31 -110 39 -9 23 18 43
57 43 52 0 70 -8 81 -36 8 -22 14 -24 74 -24 45 0 65 4 65 13 -1 28 -40 95
-67 115 -57 40 -153 51 -232 27z"/>
        <path d="M1120 255 l0 -245 60 0 60 0 0 245 0 245 -60 0 -60 0 0 -245z"/>
    </g>
</svg>
