<svg id="svg" version="1.1" xmlns="http://www.w3.org/2000/svg" width="400" height="246.25" viewBox="0, 0, 400,246.25">
    <g id="svgg">
        <path id="path0"
              d="M193.034 9.833 C 127.052 18.173,99.363 98.871,146.382 145.796 C 194.173 193.490,275.717 164.309,282.516 97.079 C 287.635 46.455,243.528 3.450,193.034 9.833 M209.420 21.570 C 263.500 26.914,289.774 90.487,255.288 132.553 C 224.404 170.226,164.471 163.613,142.305 120.086 C 118.110 72.576,156.426 16.333,209.420 21.570 M202.750 40.172 C 202.607 40.413,192.462 71.543,191.731 73.984 L 191.520 74.688 173.234 74.687 C 161.511 74.687,154.985 74.797,155.052 74.992 C 155.109 75.159,161.555 79.946,169.375 85.629 C 177.195 91.312,183.759 96.132,183.960 96.340 C 184.241 96.631,183.032 100.694,178.733 113.906 C 175.656 123.359,173.136 131.144,173.132 131.205 C 173.109 131.569,175.403 129.963,188.444 120.481 C 197.827 113.658,203.008 110.077,203.239 110.252 C 208.206 114.027,232.279 131.262,232.407 131.135 C 232.505 131.036,230.106 123.317,227.074 113.981 C 224.043 104.645,221.563 96.872,221.564 96.707 C 221.564 96.541,228.167 91.625,236.236 85.781 C 244.305 79.938,250.914 75.052,250.922 74.924 C 250.931 74.797,242.683 74.656,232.595 74.612 L 214.253 74.531 208.759 57.656 C 202.403 38.130,202.975 39.794,202.750 40.172 M30.537 195.341 C 27.966 195.946,25.537 198.105,24.568 200.643 C 23.755 202.772,23.935 230.575,24.771 232.105 C 27.277 236.689,27.946 236.868,42.578 236.872 L 54.688 236.875 54.688 232.813 L 54.688 228.750 43.906 228.750 L 33.125 228.750 33.125 216.094 L 33.125 203.438 43.906 203.438 L 54.688 203.438 54.688 199.219 L 54.688 195.000 43.203 195.031 C 36.887 195.049,31.187 195.188,30.537 195.341 M74.002 195.428 C 73.195 195.650,72.281 196.024,71.971 196.259 C 70.304 197.520,69.221 198.758,68.559 200.156 L 67.819 201.719 67.817 215.781 C 67.816 232.756,67.917 233.240,72.018 235.775 L 73.545 236.719 85.469 236.719 L 97.393 236.719 98.920 235.775 C 103.020 233.240,103.122 232.756,103.120 215.781 L 103.119 201.719 102.390 200.156 C 101.582 198.424,99.600 196.465,97.856 195.673 C 96.330 194.980,76.370 194.775,74.002 195.428 M116.250 215.922 L 116.250 236.875 120.781 236.875 L 125.313 236.875 125.313 220.156 L 125.313 203.438 132.500 203.438 L 139.688 203.438 139.688 220.156 L 139.688 236.875 144.219 236.875 L 148.750 236.875 148.747 219.297 L 148.744 201.719 148.003 200.156 C 145.739 195.380,144.985 195.175,129.297 195.062 L 116.250 194.968 116.250 215.922 M158.829 195.391 C 158.909 195.605,161.830 205.027,165.321 216.328 L 171.668 236.875 178.747 236.875 L 185.826 236.875 192.449 216.328 C 196.091 205.027,199.069 195.605,199.067 195.391 C 199.064 195.094,197.838 195.001,193.984 195.002 L 188.906 195.005 183.932 211.643 C 181.196 220.794,178.875 228.446,178.775 228.647 C 178.675 228.848,176.424 221.360,173.772 212.007 L 168.951 195.000 163.817 195.000 C 159.841 195.000,158.716 195.088,158.829 195.391 M215.781 195.293 C 213.244 195.914,211.257 197.519,209.956 200.000 L 209.219 201.406 209.219 215.938 C 209.219 232.257,209.182 231.973,211.631 234.423 C 213.937 236.729,213.809 236.708,226.797 236.808 L 238.438 236.897 238.438 232.823 L 238.438 228.750 228.281 228.750 L 218.125 228.750 218.125 224.688 L 218.125 220.625 228.281 220.625 L 238.438 220.625 238.438 216.563 L 238.438 212.500 228.281 212.500 L 218.125 212.500 218.125 207.969 L 218.125 203.438 228.281 203.438 L 238.438 203.438 238.438 199.219 L 238.438 195.000 227.578 195.032 C 221.605 195.050,216.297 195.167,215.781 195.293 M253.750 215.922 L 253.750 236.875 258.281 236.875 L 262.813 236.875 262.813 228.741 L 262.813 220.606 266.761 220.694 L 270.709 220.781 274.219 228.750 L 277.729 236.719 282.932 236.804 L 288.135 236.890 284.098 228.820 L 280.060 220.750 281.522 220.231 C 286.083 218.611,287.181 216.231,287.181 207.969 C 287.181 200.949,286.893 199.753,284.660 197.521 C 282.293 195.154,282.389 195.167,267.266 195.063 L 253.750 194.969 253.750 215.922 M307.126 195.437 C 301.958 196.829,300.824 199.330,300.990 208.966 L 301.094 214.943 302.344 216.759 C 303.309 218.162,304.015 218.790,305.445 219.522 L 307.297 220.469 315.211 220.571 L 323.125 220.672 323.125 224.711 L 323.125 228.750 311.563 228.750 L 300.000 228.750 300.000 232.825 L 300.000 236.901 313.203 236.810 L 326.406 236.719 327.868 235.860 C 331.553 233.694,332.273 231.687,332.133 223.985 C 332.019 217.658,331.800 216.848,329.625 214.673 C 327.470 212.518,326.680 212.355,317.891 212.246 L 310.000 212.148 310.000 207.793 L 310.000 203.438 320.000 203.438 L 330.000 203.438 330.000 199.219 L 330.000 195.000 319.297 195.021 C 311.712 195.036,308.166 195.157,307.126 195.437 M353.594 195.291 C 351.810 195.722,350.291 196.647,349.048 198.059 C 346.872 200.532,346.832 200.882,346.938 216.772 L 347.031 230.781 347.953 232.445 C 350.271 236.630,351.217 236.875,365.039 236.875 L 376.250 236.875 376.250 232.813 L 376.250 228.750 366.094 228.750 L 355.938 228.750 355.938 224.688 L 355.938 220.625 366.094 220.625 L 376.250 220.625 376.250 216.563 L 376.250 212.500 366.094 212.500 L 355.938 212.500 355.938 207.969 L 355.938 203.438 366.094 203.438 L 376.250 203.438 376.250 199.219 L 376.250 195.000 365.391 195.032 C 359.418 195.050,354.109 195.166,353.594 195.291 M386.391 197.940 C 383.325 199.275,382.602 203.492,385.024 205.913 C 388.201 209.090,393.438 206.809,393.438 202.249 C 393.438 198.730,389.752 196.476,386.391 197.940 M391.172 199.828 C 394.417 203.343,389.463 208.588,386.087 205.212 C 384.728 203.853,384.424 202.309,385.202 200.717 C 386.413 198.238,389.306 197.807,391.172 199.828 M386.563 202.306 C 386.563 205.104,386.606 205.313,387.188 205.313 C 387.708 205.313,387.813 205.104,387.813 204.063 C 387.813 203.375,387.927 202.813,388.067 202.813 C 388.208 202.813,388.639 203.375,389.025 204.063 C 389.467 204.848,389.952 205.313,390.332 205.313 C 391.090 205.313,391.089 205.079,390.327 203.924 C 389.727 203.013,389.727 203.000,390.329 202.578 C 390.970 202.129,391.135 200.795,390.645 200.022 C 390.469 199.744,389.644 199.523,388.462 199.437 L 386.563 199.300 386.563 202.306 M389.647 200.793 C 389.994 201.140,389.286 201.875,388.604 201.875 C 387.959 201.875,387.813 201.724,387.813 201.060 C 387.813 200.312,388.995 200.140,389.647 200.793 M94.063 216.094 L 94.063 228.750 85.469 228.750 L 76.875 228.750 76.875 216.094 L 76.875 203.438 85.469 203.438 L 94.063 203.438 94.063 216.094 M278.125 207.969 L 278.125 212.500 270.469 212.500 L 262.813 212.500 262.813 207.969 L 262.813 203.438 270.469 203.438 L 278.125 203.438 278.125 207.969 "
              stroke="none" fill="#353535" fill-rule="evenodd">
        </path>
    </g>
</svg>
