<svg id="svg" xmlns="http://www.w3.org/2000/svg" width="400" height="400" viewBox="0, 0, 400,400">
    <g id="svgg">
        <path id="path0"
              d="M272.000 36.142 C 249.560 44.396,225.980 53.034,219.600 55.337 L 208.000 59.525 208.000 83.362 C 208.000 106.011,208.549 109.035,212.080 105.813 C 212.916 105.050,243.120 88.752,279.200 69.594 C 315.280 50.436,345.376 34.248,346.080 33.621 C 347.171 32.648,315.864 20.437,313.600 20.952 C 313.160 21.052,294.440 27.888,272.000 36.142 M74.000 28.578 C 65.860 31.779,59.200 34.769,59.200 35.222 C 59.200 35.675,70.900 42.262,85.200 49.860 C 144.031 81.118,193.717 107.200,194.435 107.200 C 194.856 107.200,195.200 96.537,195.200 83.505 L 195.200 59.811 144.976 41.105 C 88.097 19.921,93.559 20.885,74.000 28.578 M332.000 59.187 C 322.320 64.265,290.417 80.631,261.105 95.556 L 207.810 122.692 234.370 143.057 C 248.978 154.259,261.552 163.193,262.312 162.912 C 263.601 162.434,337.600 96.182,337.600 95.505 C 337.600 95.334,340.467 85.163,343.971 72.902 C 347.475 60.640,350.175 50.461,349.971 50.282 C 349.767 50.102,341.680 54.109,332.000 59.187 M52.800 52.381 C 52.800 53.031,55.427 63.090,58.638 74.736 L 64.477 95.909 101.101 128.829 C 121.244 146.934,138.597 162.070,139.662 162.463 C 141.244 163.047,184.092 131.458,191.749 124.063 C 193.524 122.349,181.780 115.824,124.309 86.594 C 53.996 50.833,52.800 50.260,52.800 52.381 M206.400 257.346 L 206.400 379.412 216.100 371.792 C 221.435 367.600,226.142 363.617,226.560 362.941 C 226.978 362.265,233.442 321.186,240.925 271.656 L 254.529 181.600 242.065 169.807 C 235.209 163.321,224.380 152.899,218.000 146.647 L 206.400 135.280 206.400 257.346 M172.822 159.746 L 149.644 181.879 163.194 272.385 L 176.745 362.890 186.772 371.142 L 196.800 379.393 196.800 258.497 C 196.800 192.003,196.620 137.603,196.400 137.607 C 196.180 137.611,185.570 147.573,172.822 159.746 "
              stroke="none" fill="#000000" fill-rule="evenodd"></path>
    </g>
</svg>
