<svg id="svg" xmlns="http://www.w3.org/2000/svg" width="400" height="400" viewBox="0, 0, 400,400">
    <g id="svgg">
        <path id="path0"
              d="M145.800 107.157 C 144.535 109.382,143.581 111.285,143.682 111.386 C 143.782 111.486,147.145 111.768,151.154 112.012 C 155.164 112.257,166.244 112.955,175.778 113.564 C 185.311 114.172,193.245 114.670,193.409 114.669 C 193.650 114.667,191.858 107.122,190.849 103.889 C 190.623 103.162,189.206 103.111,169.353 103.111 L 148.100 103.111 145.800 107.157 M222.000 107.192 C 220.778 109.446,219.124 112.379,218.326 113.711 C 217.527 115.043,216.927 116.174,216.992 116.224 C 217.058 116.274,224.492 116.841,233.513 117.485 C 242.534 118.128,249.991 118.732,250.085 118.826 C 250.804 119.545,249.027 121.320,247.381 121.527 C 245.365 121.780,227.471 122.943,218.505 123.403 L 212.788 123.696 211.353 125.959 C 208.951 129.749,202.115 141.820,202.285 141.972 C 202.495 142.160,229.865 144.012,232.444 144.013 C 235.261 144.014,235.913 144.499,234.990 145.907 C 234.217 147.088,233.668 147.171,222.444 147.803 C 220.000 147.941,210.700 148.544,201.778 149.143 C 181.477 150.507,167.843 151.391,157.556 152.009 C 144.868 152.772,118.556 154.626,118.459 154.764 C 118.411 154.832,117.337 156.689,116.073 158.889 L 113.775 162.889 116.554 163.191 C 118.083 163.357,125.033 163.815,132.000 164.209 C 138.967 164.602,155.067 165.606,167.778 166.438 C 180.489 167.271,192.989 168.070,195.556 168.214 C 207.375 168.878,220.597 169.782,220.751 169.937 C 221.785 170.970,219.663 172.398,216.721 172.649 C 212.929 172.971,181.071 174.907,168.920 175.552 C 164.171 175.805,160.221 176.075,160.143 176.153 C 160.065 176.231,160.576 178.379,161.278 180.925 C 161.980 183.472,162.911 186.956,163.348 188.667 C 163.784 190.378,164.287 191.946,164.466 192.151 C 164.645 192.357,172.363 192.998,181.618 193.575 C 208.879 195.278,207.365 195.050,205.402 197.157 C 204.648 197.966,203.051 198.139,185.735 199.282 C 175.370 199.966,166.811 200.602,166.715 200.696 C 166.619 200.790,167.319 203.922,168.270 207.656 L 170.000 214.444 204.889 214.514 C 224.078 214.552,242.478 214.417,245.778 214.214 C 274.739 212.436,298.871 193.247,297.201 173.324 C 296.631 166.527,290.908 160.114,284.309 158.876 C 281.957 158.435,282.260 157.984,285.667 156.862 C 313.671 147.639,326.431 116.613,306.309 106.669 C 299.435 103.272,300.924 103.384,260.444 103.231 L 224.222 103.094 222.000 107.192 M275.560 125.444 C 283.359 130.752,277.751 142.476,265.942 145.552 C 263.523 146.182,249.778 146.569,249.778 146.007 C 249.778 145.888,250.348 144.838,251.045 143.673 C 251.743 142.509,254.375 137.956,256.896 133.556 C 259.416 129.156,261.670 125.306,261.905 125.000 C 262.751 123.897,273.815 124.257,275.560 125.444 M177.333 126.014 C 169.389 126.570,156.589 127.373,148.889 127.797 C 132.220 128.715,133.657 128.279,130.805 133.285 C 128.503 137.325,128.501 137.333,129.637 137.333 C 130.263 137.333,139.301 137.927,149.721 138.653 C 171.788 140.190,196.945 141.778,199.234 141.778 L 200.828 141.778 199.519 137.000 C 198.800 134.372,197.781 130.572,197.256 128.556 L 196.301 124.889 194.039 124.946 C 192.795 124.977,185.278 125.457,177.333 126.014 M252.331 167.795 C 260.133 171.054,257.945 182.037,248.499 187.037 C 243.966 189.436,241.800 189.865,233.000 190.108 C 223.347 190.373,223.793 190.973,228.116 183.545 C 229.890 180.495,232.740 175.552,234.449 172.560 L 237.556 167.121 244.125 167.116 C 249.041 167.112,251.107 167.283,252.331 167.795 M138.889 177.593 C 129.111 178.405,117.224 179.328,112.473 179.645 L 103.835 180.222 101.420 184.354 C 100.091 186.627,99.078 188.548,99.169 188.624 C 99.496 188.899,148.912 191.642,149.496 191.418 C 149.988 191.229,158.667 176.818,158.667 176.190 C 158.667 175.943,159.453 175.887,138.889 177.593 M130.222 203.128 C 124.233 203.560,112.833 204.365,104.889 204.914 C 87.931 206.088,88.995 205.814,86.947 209.539 C 86.058 211.156,85.004 212.978,84.605 213.587 L 83.880 214.694 110.133 214.650 C 129.739 214.617,136.495 214.473,136.814 214.081 C 137.397 213.365,143.556 202.744,143.556 202.454 C 143.556 202.166,143.471 202.170,130.222 203.128 M151.556 252.889 L 151.556 272.000 154.444 272.000 L 157.333 272.000 157.333 270.444 C 157.333 268.766,157.777 268.483,158.688 269.581 C 163.465 275.338,175.063 273.327,179.358 265.998 C 187.204 252.610,172.051 235.886,160.108 244.753 C 157.973 246.338,157.778 245.902,157.778 239.529 L 157.778 233.778 154.667 233.778 L 151.556 233.778 151.556 252.889 M218.329 252.778 L 218.444 271.778 221.667 271.908 L 224.889 272.039 224.889 252.908 L 224.889 233.778 221.551 233.778 L 218.213 233.778 218.329 252.778 M79.556 242.904 C 68.583 245.936,65.013 260.488,73.255 268.584 C 80.111 275.318,92.241 273.574,96.491 265.242 L 97.351 263.556 93.802 263.556 C 90.769 263.556,90.188 263.678,89.801 264.401 C 87.530 268.645,78.723 267.466,76.180 262.578 C 75.055 260.415,74.907 260.444,86.945 260.444 L 98.334 260.444 98.133 256.778 C 97.588 246.787,88.922 240.315,79.556 242.904 M332.444 242.829 C 313.766 248.270,320.632 276.419,339.673 272.466 C 343.585 271.654,349.778 266.373,349.778 263.850 C 349.778 262.895,343.229 263.595,342.233 264.655 C 338.616 268.506,331.304 267.401,328.874 262.638 C 327.717 260.370,327.352 260.444,339.582 260.444 C 351.792 260.444,351.111 260.627,351.111 257.344 C 351.111 247.805,341.369 240.230,332.444 242.829 M51.192 243.319 C 50.381 243.684,49.131 244.400,48.414 244.910 L 47.111 245.838 47.111 244.697 C 47.111 243.580,47.044 243.556,44.000 243.556 L 40.889 243.556 40.889 257.778 L 40.889 272.000 44.222 272.000 L 47.556 272.000 47.566 263.444 C 47.582 251.018,48.401 248.965,53.515 248.540 C 58.684 248.112,60.000 251.253,60.000 264.022 L 60.000 272.000 63.146 272.000 L 66.292 272.000 66.146 261.222 L 66.000 250.444 64.620 248.000 C 62.070 243.486,55.731 241.276,51.192 243.319 M193.293 243.357 C 184.098 246.189,181.002 260.628,187.903 268.489 C 192.483 273.704,201.825 274.191,206.754 269.471 L 207.953 268.323 208.226 269.413 C 208.376 270.012,208.437 270.789,208.361 271.140 C 208.253 271.635,208.893 271.807,211.222 271.909 L 214.222 272.041 214.222 257.798 L 214.222 243.556 211.333 243.556 L 208.444 243.556 208.444 245.037 C 208.444 247.212,208.087 247.263,205.967 245.397 C 202.889 242.687,198.014 241.903,193.293 243.357 M236.447 243.442 C 227.257 246.684,224.484 260.944,231.552 268.612 C 236.174 273.626,243.975 274.237,249.501 270.018 L 251.505 268.489 251.641 270.134 L 251.778 271.778 254.556 271.910 L 257.333 272.042 257.333 257.799 L 257.333 243.556 254.444 243.556 L 251.556 243.556 251.556 245.421 L 251.556 247.285 250.111 245.890 C 246.911 242.799,241.179 241.772,236.447 243.442 M272.013 243.161 C 271.409 243.402,270.259 244.100,269.458 244.711 L 268.000 245.823 268.000 244.689 C 268.000 243.582,267.928 243.556,264.889 243.556 L 261.778 243.556 261.778 257.778 L 261.778 272.000 265.111 272.000 L 268.444 272.000 268.444 262.623 C 268.444 250.155,269.390 248.152,275.075 248.574 C 279.694 248.916,280.438 250.948,280.442 263.222 L 280.444 272.000 283.813 272.000 L 287.182 272.000 287.035 261.444 C 286.872 249.645,286.597 248.404,283.499 245.463 C 280.906 243.003,275.251 241.869,272.013 243.161 M300.589 243.306 C 294.010 245.363,289.714 251.930,290.367 258.929 C 291.762 273.862,311.916 278.122,318.656 264.909 L 319.574 263.111 315.838 263.111 C 312.349 263.111,312.054 263.184,311.378 264.217 C 307.163 270.649,296.738 265.906,296.738 257.556 C 296.738 249.387,306.443 245.032,311.174 251.077 C 312.269 252.475,312.296 252.482,315.903 252.353 L 319.531 252.222 318.552 250.299 C 315.499 244.296,307.448 241.162,300.589 243.306 M97.778 243.796 C 97.778 244.079,99.681 249.490,103.789 260.889 C 105.419 265.411,106.967 269.761,107.229 270.556 C 107.674 271.907,107.837 272.000,109.747 272.000 L 111.789 272.000 112.713 268.556 C 113.852 264.308,117.006 253.623,117.195 253.370 C 117.534 252.917,117.978 254.105,119.621 259.860 C 120.585 263.237,121.773 267.350,122.261 269.000 L 123.149 272.000 125.082 272.000 C 126.512 272.000,127.095 271.797,127.319 271.222 C 127.486 270.794,129.692 264.744,132.222 257.778 C 134.752 250.811,136.962 244.752,137.133 244.314 C 137.418 243.582,137.157 243.527,133.965 243.647 L 130.487 243.778 129.218 248.000 C 125.835 259.255,125.245 260.977,124.897 260.614 C 124.691 260.398,123.532 256.522,122.323 252.000 L 120.124 243.778 117.491 243.648 L 114.857 243.518 113.168 249.870 C 109.639 263.136,109.996 262.715,108.049 255.889 C 107.264 253.139,106.109 249.239,105.481 247.222 L 104.340 243.556 101.059 243.556 C 99.254 243.556,97.778 243.664,97.778 243.796 M85.875 248.464 C 88.723 249.255,92.621 253.747,91.721 255.203 C 91.127 256.164,75.556 255.592,75.556 254.608 C 75.556 250.683,81.380 247.216,85.875 248.464 M340.345 249.199 C 342.001 249.985,343.851 252.474,344.078 254.222 L 344.222 255.333 336.111 255.454 C 327.409 255.584,327.574 255.634,328.612 253.208 C 330.494 248.809,335.743 247.015,340.345 249.199 M169.638 248.917 C 175.639 251.185,177.073 260.774,172.043 265.007 C 166.233 269.896,157.778 265.545,157.778 257.666 C 157.778 251.054,163.711 246.678,169.638 248.917 M202.527 248.915 C 209.000 251.352,209.968 261.379,204.127 265.493 C 198.289 269.606,190.707 265.312,190.676 257.875 C 190.648 251.157,196.576 246.676,202.527 248.915 M246.628 249.314 C 254.606 253.384,252.344 266.105,243.492 266.948 C 237.615 267.507,232.614 261.466,234.154 255.667 C 235.764 249.606,241.487 246.691,246.628 249.314 M354.794 268.667 C 354.797 269.889,354.883 270.336,354.986 269.661 C 355.088 268.985,355.085 267.985,354.980 267.438 C 354.874 266.892,354.790 267.444,354.794 268.667 "
              stroke="none" fill="#fff" fill-rule="evenodd"></path>
    </g>
</svg>
