<svg width="220" height="216" viewBox="0 0 220 216" fill="none" xmlns="http://www.w3.org/2000/svg">
<rect x="37" y="33" width="6" height="6" stroke="#888888" stroke-width="2"/>
<path d="M107 36C107 37.6569 108.343 39 110 39C111.657 39 113 37.6569 113 36C113 34.3431 111.657 33 110 33C108.343 33 107 34.3431 107 36Z" stroke="#888888" stroke-width="2"/>
<path d="M176 32L184 40M184 32L176 40" stroke="#888888" stroke-width="2"/>
<path d="M34 111L38 105.667L42 111H34Z" stroke="#888888" stroke-width="2"/>
<path d="M108 108C108 109.105 108.895 110 110 110C111.105 110 112 109.105 112 108C112 106.895 111.105 106 110 106C108.895 106 108 106.895 108 108Z" stroke="#888888" stroke-width="2"/>
<path d="M178 111L182 105.667L186 111H178Z" stroke="#888888" stroke-width="2"/>
<path d="M38 176L46 184M46 176L38 184" stroke="#888888" stroke-width="2"/>
<path d="M110 180C110 181.105 110.895 182 112 182C113.105 182 114 181.105 114 180C114 178.895 113.105 178 112 178C110.895 178 110 178.895 110 180Z" stroke="#888888" stroke-width="2"/>
<path d="M180 181C179.448 181 179 180.552 179 180C179 179.448 179.448 179 180 179C180.552 179 181 179.448 181 180C181 180.552 180.552 181 180 181Z" stroke="#888888" stroke-width="2"/>
</svg>
