<?xml version="1.0" standalone="no"?>
<!DOCTYPE svg PUBLIC "-//W3C//DTD SVG 20010904//EN"
 "http://www.w3.org/TR/2001/REC-SVG-20010904/DTD/svg10.dtd">
<svg version="1.0" xmlns="http://www.w3.org/2000/svg"
 width="512.000000pt" height="512.000000pt" viewBox="0 0 512.000000 512.000000"
 preserveAspectRatio="xMidYMid meet">
<metadata>
Created by potrace 1.11, written by Peter Selinger 2001-2013
</metadata>
<g transform="translate(0.000000,512.000000) scale(0.100000,-0.100000)"
fill="#000000" stroke="none">
<path d="M2820 4429 c-95 -14 -123 -19 -131 -25 -5 -3 -18 -7 -29 -9 -43 -8
-145 -61 -198 -102 -31 -24 -53 -43 -49 -43 4 0 -6 -12 -21 -27 -29 -30 -68
-93 -56 -93 3 0 2 -6 -3 -12 -5 -7 -20 -40 -33 -73 -41 -105 -94 -176 -235
-321 -156 -159 -235 -245 -235 -254 0 -6 -6 -10 -12 -11 -7 0 -30 -21 -50 -45
-21 -25 -38 -44 -38 -42 0 2 -40 -35 -88 -82 -158 -153 -194 -182 -398 -317
-60 -40 -113 -76 -119 -80 -5 -5 -50 -33 -100 -63 -138 -83 -330 -210 -333
-221 -2 -5 -8 -9 -14 -9 -12 0 -120 -86 -174 -138 -8 -7 -14 -11 -14 -8 0 2
-26 -23 -58 -57 -31 -34 -59 -64 -63 -67 -3 -3 -29 -34 -57 -70 -29 -36 -57
-70 -62 -77 -6 -7 -10 -16 -10 -22 0 -5 -4 -11 -8 -13 -9 -3 -103 -157 -106
-173 -1 -5 -10 -24 -19 -41 -14 -28 -69 -165 -67 -171 0 -2 0 -4 -1 -5 0 -2
-2 -12 -4 -23 -2 -11 -11 -25 -19 -31 -14 -9 -16 -41 -16 -206 0 -178 2 -196
19 -215 11 -12 17 -24 14 -27 -4 -3 -2 -6 3 -6 6 0 16 -17 24 -37 36 -101 172
-230 321 -305 35 -17 69 -33 74 -34 6 -1 27 -9 47 -18 21 -9 38 -14 38 -11 0
3 17 -3 39 -14 21 -11 49 -22 62 -25 13 -2 45 -11 70 -20 25 -9 56 -18 70 -20
13 -3 25 -5 27 -7 1 -1 5 -2 10 -3 4 -1 36 -7 72 -15 36 -7 76 -15 90 -18 14
-3 36 -7 50 -9 14 -1 41 -5 60 -8 75 -14 181 -21 312 -21 76 0 138 -4 138 -8
0 -5 5 -5 11 -1 17 10 119 11 119 1 0 -4 5 -5 12 -1 7 4 53 9 102 10 50 2 105
5 121 8 17 2 53 7 80 10 28 3 64 9 80 12 17 3 48 8 70 9 22 2 41 4 43 5 1 1
10 3 20 4 14 2 91 16 112 21 3 1 25 5 50 10 51 10 44 9 90 20 19 4 42 9 50 10
8 1 35 8 60 15 25 8 49 13 54 11 4 -1 14 4 22 10 8 7 17 9 20 6 3 -3 21 1 40
9 19 8 37 14 41 14 5 0 26 6 48 12 22 6 45 12 50 14 6 1 37 10 70 20 33 10 63
17 68 16 4 -1 7 2 7 7 0 5 17 12 38 17 41 8 41 8 62 17 8 3 56 20 105 37 50
17 97 33 105 37 16 7 25 9 55 17 11 3 53 17 94 31 41 15 81 28 90 30 17 4 96
32 121 42 18 8 12 6 85 27 33 10 67 20 75 23 8 3 20 7 25 9 6 1 54 18 107 37
53 20 99 33 102 29 3 -3 6 0 6 6 0 7 6 12 13 12 7 0 42 12 78 26 35 14 69 26
74 28 9 1 30 9 100 36 11 4 31 12 45 18 14 6 90 38 170 72 80 34 168 74 195
90 28 16 68 39 89 51 22 12 46 28 54 35 7 8 17 14 21 14 21 0 186 177 186 200
0 3 10 16 23 30 l22 24 0 662 c0 516 -3 666 -12 676 -15 16 -19 29 -23 83 -2
22 -6 51 -9 65 -2 14 -7 48 -10 75 -3 28 -10 66 -15 85 -6 19 -14 51 -19 70
-23 86 -131 309 -154 318 -4 2 -8 8 -8 13 0 9 -28 45 -66 85 -12 13 -19 25
-16 28 3 3 0 6 -7 6 -14 0 -47 30 -34 30 4 0 -7 10 -24 21 -18 12 -33 25 -33
30 0 5 -6 9 -14 9 -8 0 -16 3 -18 8 -7 17 -138 90 -168 94 -3 0 -16 5 -30 10
-141 55 -301 45 -495 -32 -66 -26 -91 -34 -97 -32 -5 1 -8 -3 -8 -10 0 -6 -2
-9 -5 -6 -3 3 -36 -4 -73 -17 l-66 -22 -36 20 c-19 10 -51 32 -70 47 -51 40
-173 103 -260 135 -41 14 -76 26 -77 26 -2 -1 -4 -1 -5 0 -6 1 -42 8 -111 20
-81 13 -269 18 -337 8z m1833 -1116 c-7 -2 -19 -2 -25 0 -7 3 -2 5 12 5 14 0
19 -2 13 -5z m44 1 c-3 -3 -12 -4 -19 -1 -8 3 -5 6 6 6 11 1 17 -2 13 -5z
m-2500 -1006 c-3 -8 -6 -5 -6 6 -1 11 2 17 5 13 3 -3 4 -12 1 -19z m2610 -110
c-3 -7 -5 -2 -5 12 0 14 2 19 5 13 2 -7 2 -19 0 -25z m0 -120 c-3 -8 -6 -5 -6
6 -1 11 2 17 5 13 3 -3 4 -12 1 -19z m-57 -122 c0 -2 -8 -10 -17 -17 -16 -13
-17 -12 -4 4 13 16 21 21 21 13z m-61 -50 c-2 -2 -15 -9 -29 -15 -24 -11 -24
-11 -6 3 16 13 49 24 35 12z m-4209 -141 c14 -19 14 -19 -2 -6 -10 7 -18 18
-18 24 0 6 1 8 3 6 1 -2 9 -13 17 -24z m3770 -55 c-8 -5 -19 -10 -25 -10 -5 0
-3 5 5 10 8 5 20 10 25 10 6 0 3 -5 -5 -10z m-3689 -27 c13 -16 12 -17 -3 -4
-10 7 -18 15 -18 17 0 8 8 3 21 -13z m-110 -190 c13 -16 12 -17 -3 -4 -10 7
-18 15 -18 17 0 8 8 3 21 -13z m1256 1 c-3 -3 -12 -4 -19 -1 -8 3 -5 6 6 6 11
1 17 -2 13 -5z m-330 -10 c-3 -3 -12 -4 -19 -1 -8 3 -5 6 6 6 11 1 17 -2 13
-5z m-1073 -100 c3 -8 2 -12 -4 -9 -6 3 -10 10 -10 16 0 14 7 11 14 -7z m91
-124 c10 -11 16 -20 13 -20 -3 0 -13 9 -23 20 -10 11 -16 20 -13 20 3 0 13 -9
23 -20z"/>
</g>
</svg>
