<svg id="svg" xmlns="http://www.w3.org/2000/svg" width="400" height="137.14285714285714"
     viewBox="0, 0, 400,137.14285714285714">
    <g id="svgg">
        <path id="path0"
              d="M188.367 20.272 C 187.956 20.684,187.619 21.303,187.619 21.649 C 187.619 27.073,177.106 37.434,169.762 39.246 C 167.929 39.698,165.638 40.297,164.671 40.577 C 163.705 40.857,162.205 40.953,161.338 40.790 C 151.615 38.961,148.216 37.308,142.997 31.872 L 139.807 28.550 131.689 28.680 L 123.571 28.810 123.447 48.175 C 123.337 65.311,123.409 67.627,124.076 68.294 C 124.917 69.134,271.932 69.469,273.249 68.633 C 273.904 68.219,274.204 30.071,273.561 29.031 C 273.399 28.768,270.162 28.571,266.011 28.571 L 258.745 28.571 256.158 31.469 C 252.603 35.450,248.081 38.374,243.987 39.338 C 242.187 39.761,239.932 40.326,238.975 40.591 C 238.019 40.857,236.519 40.937,235.642 40.769 C 234.765 40.602,233.432 40.361,232.679 40.235 C 223.770 38.739,215.095 31.790,211.876 23.571 C 210.168 19.209,211.129 19.524,199.500 19.524 C 190.695 19.524,189.002 19.638,188.367 20.272 M10.571 42.000 C 9.743 42.828,9.743 128.600,10.571 129.429 C 11.403 130.260,193.835 130.260,194.667 129.429 C 195.491 128.604,195.491 79.015,194.667 78.190 C 193.818 77.342,126.031 77.366,125.362 78.214 C 125.103 78.542,124.762 80.417,124.603 82.381 C 123.544 95.447,110.956 106.115,100.049 103.191 C 92.924 101.281,89.395 98.567,85.555 92.044 C 83.047 87.784,82.857 85.760,82.857 63.279 C 82.857 47.808,82.713 42.427,82.286 42.000 C 81.459 41.173,11.398 41.173,10.571 42.000 M316.762 42.000 C 316.335 42.427,316.189 47.927,316.185 63.786 C 316.180 86.993,316.136 87.423,313.339 91.969 C 312.550 93.251,311.905 94.459,311.905 94.653 C 311.905 95.478,305.907 100.655,303.948 101.522 C 291.478 107.038,273.841 94.734,274.464 80.952 C 274.517 79.774,274.366 78.542,274.127 78.214 C 273.508 77.365,205.229 77.342,204.381 78.190 C 203.492 79.080,203.563 128.727,204.455 129.467 C 204.929 129.860,229.457 129.971,296.955 129.882 L 388.810 129.762 388.931 86.242 C 389.020 54.483,388.908 42.548,388.516 42.076 C 387.772 41.180,317.656 41.106,316.762 42.000 "
              stroke="none" fill="#fff" fill-rule="evenodd"></path>
    </g>
</svg>
