<?xml version="1.0" standalone="no"?>
<!DOCTYPE svg PUBLIC "-//W3C//DTD SVG 20010904//EN"
        "http://www.w3.org/TR/2001/REC-SVG-20010904/DTD/svg10.dtd">
<svg version="1.0" xmlns="http://www.w3.org/2000/svg"
     width="500.000000pt" height="186.000000pt" viewBox="0 0 500.000000 186.000000"
     preserveAspectRatio="xMidYMid meet">
    <metadata>
        Created by potrace 1.15, written by Peter Selinger 2001-2017
    </metadata>
    <g transform="translate(0.000000,186.000000) scale(0.100000,-0.100000)"
       fill="#444" stroke="none">
        <path d="M5 1829 c4 -12 8 -27 10 -33 1 -6 4 -18 7 -26 14 -40 41 -137 44
-155 1 -11 3 -20 4 -20 1 0 3 -7 5 -15 2 -8 10 -37 19 -64 8 -27 13 -53 10
-57 -2 -4 0 -9 5 -11 6 -1 11 -14 13 -28 2 -14 6 -29 9 -35 6 -10 22 -80 23
-100 1 -5 5 -13 9 -16 4 -3 9 -17 9 -30 1 -13 5 -28 9 -34 7 -10 23 -70 24
-90 0 -5 4 -15 7 -21 4 -6 12 -28 17 -50 24 -96 71 -263 81 -288 5 -15 8 -32
4 -37 -3 -5 0 -9 5 -9 6 0 11 -9 11 -21 0 -11 13 -62 29 -112 16 -51 41 -137
56 -192 15 -55 34 -122 43 -150 9 -27 16 -57 17 -65 1 -8 5 -22 7 -30 3 -8 12
-37 20 -65 l14 -50 241 -3 241 -2 10 32 c6 18 13 50 17 71 3 20 10 37 15 37 5
0 7 6 4 13 -2 7 5 39 16 71 11 33 20 70 20 83 0 12 5 23 11 23 5 0 8 4 5 9 -3
5 2 33 10 62 9 30 18 63 20 75 2 12 13 53 25 90 12 37 23 80 26 94 2 14 13 57
25 95 11 39 22 77 23 85 2 8 4 15 5 15 1 0 3 11 6 24 5 27 32 128 41 151 3 8
7 24 9 35 2 11 13 52 24 90 12 39 23 77 25 85 2 8 4 15 5 15 1 0 3 11 6 25 2
14 14 63 26 110 l23 85 1482 3 1481 2 59 62 c32 34 74 78 93 98 19 20 49 52
65 71 17 19 47 53 69 77 l38 42 -1841 0 c-1834 0 -1841 0 -1841 -20 0 -11 -5
-20 -11 -20 -6 0 -9 -6 -6 -14 3 -8 -2 -41 -12 -73 -10 -32 -16 -64 -13 -71 2
-6 -1 -12 -6 -12 -6 0 -8 -9 -5 -20 3 -11 1 -20 -5 -20 -5 0 -9 -6 -8 -12 1
-17 -20 -111 -56 -243 -17 -60 -32 -119 -33 -130 -2 -11 -4 -22 -5 -25 -1 -3
-2 -8 -1 -12 0 -3 -6 -28 -13 -55 -8 -26 -17 -67 -21 -90 -4 -24 -11 -43 -16
-43 -6 0 -8 -4 -5 -9 3 -5 -2 -39 -11 -76 -20 -81 -27 -71 -49 60 -1 6 -3 15
-4 20 -1 6 -3 15 -4 20 -1 6 -5 17 -8 25 -6 15 -29 121 -33 150 -1 8 -5 22 -9
30 -3 8 -8 29 -10 45 -2 17 -11 59 -21 95 -9 36 -18 76 -20 90 -2 14 -4 25 -5
25 -1 0 -3 9 -4 20 -2 11 -11 48 -20 83 -9 34 -14 67 -11 72 3 6 1 10 -5 10
-7 0 -10 7 -7 15 4 8 2 17 -4 20 -5 4 -8 12 -7 18 2 11 -1 25 -23 110 l-10 37
-260 0 -260 0 6 -21z"/>
        <path d="M4077 1384 c-2 -2 -27 -6 -55 -9 -28 -3 -63 -10 -77 -15 -14 -5 -25
-7 -25 -4 0 4 -6 1 -13 -5 -8 -6 -17 -8 -20 -4 -4 3 -7 1 -7 -5 0 -7 -7 -12
-16 -12 -40 0 -158 -103 -189 -165 -14 -28 -15 -24 -15 83 l0 112 -195 0 -195
0 0 -362 -1 -363 -24 30 c-14 17 -77 107 -140 200 -119 177 -202 299 -287 423
l-50 72 -194 0 -194 0 -1 -462 c0 -266 -4 -454 -9 -443 -13 31 -142 369 -144
380 -2 6 -6 17 -9 25 -17 38 -100 259 -112 295 -7 22 -20 56 -27 75 -8 19 -23
56 -32 83 l-18 47 -226 0 -227 0 -16 -43 c-9 -23 -39 -103 -67 -177 -28 -74
-56 -148 -63 -165 -7 -16 -13 -34 -14 -40 -3 -9 -28 -77 -153 -405 -13 -36
-35 -94 -49 -130 -14 -36 -32 -85 -41 -110 -8 -25 -20 -48 -26 -52 -6 -4 -8
-8 -4 -8 7 0 -41 -141 -61 -178 -6 -11 -11 -23 -11 -27 0 -3 95 -4 211 -3
l212 3 25 75 c13 41 27 82 30 90 3 8 4 19 3 23 -1 4 5 15 13 23 22 21 448 21
466 -1 6 -8 9 -18 6 -24 -3 -5 -3 -11 2 -13 4 -1 15 -30 24 -63 9 -34 22 -73
27 -88 l11 -27 335 0 335 0 2 366 3 366 26 -38 c53 -81 246 -365 357 -527
l115 -167 193 0 193 0 3 95 3 94 40 -48 c22 -27 60 -59 85 -72 25 -13 47 -27
48 -32 2 -4 8 -5 13 -1 5 3 9 0 9 -6 0 -6 6 -10 13 -9 6 2 32 -3 57 -10 67
-19 111 -23 260 -23 158 1 196 5 270 29 87 29 153 68 205 121 49 50 105 143
105 175 0 9 4 17 9 17 5 0 7 9 4 20 -3 11 -1 20 4 20 6 0 10 31 10 70 0 39 -3
70 -8 70 -4 0 -10 18 -14 39 -4 22 -19 59 -34 83 -15 24 -30 51 -34 61 -3 9
-17 22 -29 27 -13 6 -48 28 -78 49 -30 22 -56 38 -58 36 -2 -2 -29 7 -59 21
-30 13 -59 21 -64 18 -5 -3 -9 0 -9 6 0 7 -7 10 -15 6 -8 -3 -15 -1 -15 5 0 6
-4 8 -9 5 -5 -3 -28 1 -52 9 -24 9 -55 16 -69 17 -14 1 -30 6 -37 11 -7 5 -17
6 -23 2 -5 -3 -10 -1 -10 5 0 7 -6 10 -14 7 -30 -12 -112 25 -135 59 -21 30
-22 37 -11 64 26 62 129 90 221 58 51 -17 97 -69 105 -118 l7 -42 86 7 c47 4
131 8 186 9 55 1 105 5 111 9 12 7 12 49 0 77 -3 8 -12 34 -20 58 -19 54 -63
117 -112 162 -22 19 -40 34 -41 33 -7 -6 -63 21 -63 30 0 6 -3 7 -7 4 -3 -4
-12 -2 -20 4 -7 6 -13 9 -13 6 0 -3 -24 1 -52 8 -29 7 -60 13 -68 14 -58 5
-259 8 -263 5z m-2238 -514 c1 -8 10 -40 21 -69 11 -30 17 -58 14 -62 -3 -5
-1 -9 5 -9 6 0 13 -17 17 -37 4 -21 15 -62 25 -92 11 -30 19 -56 19 -58 0 -1
-66 -3 -147 -2 -82 0 -142 3 -135 6 6 2 10 8 7 13 -3 4 2 27 11 51 8 24 17 53
20 63 2 11 12 47 23 80 10 34 32 103 47 155 l28 94 22 -59 c13 -33 23 -66 23
-74z m1907 -130 c52 -48 166 -114 177 -103 4 3 7 1 7 -6 0 -7 5 -9 10 -6 6 3
10 1 10 -5 0 -7 6 -10 13 -7 6 2 28 -2 47 -9 19 -8 45 -15 57 -17 12 -2 25 -6
29 -9 3 -4 12 -4 20 -1 8 3 14 0 14 -7 0 -7 7 -10 16 -6 9 3 21 3 27 -1 7 -4
17 -8 22 -9 46 -8 127 -39 132 -50 3 -8 10 -14 17 -14 19 0 43 -52 41 -92 -4
-82 -61 -122 -175 -122 -130 -1 -211 62 -226 177 -4 23 -7 43 -9 45 -1 1 -60
-2 -130 -8 -70 -5 -141 -10 -156 -10 l-29 0 0 183 c0 182 0 182 19 152 10 -16
40 -50 67 -75z"/>
        <path d="M4823 309 c-40 -25 -67 -80 -58 -119 3 -16 21 -44 38 -63 30 -31 37
-34 84 -32 29 1 57 8 65 16 52 53 61 109 28 169 -11 19 -19 31 -20 27 0 -5
-10 -1 -22 7 -31 22 -77 20 -115 -5z m108 -19 c30 -17 47 -60 38 -100 -14 -63
-68 -86 -129 -55 -58 30 -67 90 -21 136 31 31 75 38 112 19z"/>
    </g>
</svg>
