<svg height='300px' width='300px' fill="#000000" xmlns="http://www.w3.org/2000/svg" version="1.1" x="0px" y="0px"
     viewBox="0 0 64 64" enable-background="new 0 0 64 64" xml:space="preserve"><g><g><path d="M11,44h25c0.294,0,7.251-0.023,12.371-2.071c6.121-2.448,8.399-6.264,8.493-6.425C56.953,35.351,57,35.177,57,35    c0-1.383-0.627-4-3-4c-0.407,0-0.979,0.063-1.769,0.148c-1.361,0.148-3.226,0.352-5.356,0.352c-4.137,0-7.629-0.797-10.379-2.368    c-3.15-1.8-4.516-4.077-5.613-5.906C29.888,21.567,28.948,20,27,20c-1.05,0-2.546,0.606-2.916,2.216    c-0.729,0.178-2.061,0.437-3.656,0.437c-2.254,0-4.244-0.508-5.914-1.51c-0.25-0.15-0.553-0.184-0.83-0.092    c-0.841,0.279-3.728,2.235-5.654,15.658C7.782,37.251,7,39.102,7,41C7,42.038,7.836,44,11,44z M47.629,40.071    C42.871,41.975,36.068,42,36,42H17.618l0.276-0.553c0.247-0.494,0.047-1.095-0.447-1.342c-0.496-0.247-1.095-0.046-1.342,0.447    L15.382,42h-1.764l0.276-0.553c0.247-0.494,0.047-1.095-0.447-1.342c-0.496-0.247-1.095-0.046-1.342,0.447L11.382,42H11    c-1.84,0-1.989-0.857-2-1c0-1.151,0.389-2.324,0.654-2.993c2.444,0.039,11.248,0.291,17.071,1.955    c1.576,0.45,3.612,0.655,5.886,0.655c7.144,0,16.614-2.026,21.492-4.829C52.999,36.976,50.947,38.744,47.629,40.071z     M10.86,32.083c1.273,0.294,4.954,1.381,6.728,4.337c-3.137-0.285-5.924-0.376-7.427-0.406    C10.386,34.553,10.621,33.24,10.86,32.083z M14.098,23.201c1.848,0.964,3.974,1.453,6.331,1.452c1.448,0,2.694-0.188,3.571-0.37    V26c0,0.552,0.448,1,1,1s1-0.448,1-1v-3c0-0.805,0.55-0.988,1-1c0.745,0,1.187,0.619,2.168,2.255    c0.491,0.819,1.072,1.768,1.841,2.745H30c-0.552,0-1,0.448-1,1s0.448,1,1,1h2.898c0.383,0.339,0.794,0.674,1.252,1H33    c-0.552,0-1,0.448-1,1s0.448,1,1,1h4.9c2.584,0.996,5.591,1.5,8.975,1.5c2.24,0,4.166-0.21,5.573-0.363    C53.121,33.063,53.702,33,54,33c0.177,0,0.321,0.072,0.441,0.185c-0.021,0.014-0.046,0.018-0.066,0.034    c-4.865,3.893-20.57,6.686-27.1,4.819c-2.224-0.635-4.817-1.073-7.339-1.374c-0.004-0.012-0.002-0.024-0.007-0.037    c-1.842-4.604-6.9-6.11-8.625-6.499C12.429,25.551,13.566,23.802,14.098,23.201z"></path></g></g></svg>
