<svg xmlns="http://www.w3.org/2000/svg" width="300" height="300" x="0" y="0" fill="#000" viewBox="0 0 512 512">
    <path d="M447.71,345.09c-3.07-27.51-12.8-54.53-27.4-76.08-5.69-8.4-10.48-15.18-14.71-21.17-18.38-26-24.57-34.78-41.89-87.89-7.29-22.34-15.51-39-25.45-51.38.95-.86,1.84-1.7,2.63-2.49h0c10.81-10.81,28.66-36.3,26.82-85.65A20.14,20.14,0,0,0,348.4,1.12c-49.34-1.84-74.84,16-85.65,26.81A77.84,77.84,0,0,0,251.11,43.1,207.9,207.9,0,0,0,234.92,6.16a10,10,0,1,0-17.5,9.68c14.83,26.82,18.94,47.29,20,57.91a107.7,107.7,0,0,0-48.67,20.13c-17.34,13-29.83,33.36-40.5,66.07-17.32,53.11-23.51,61.88-41.89,87.89-4.23,6-9,12.77-14.71,21.17-14.6,21.55-24.33,48.57-27.4,76.08-3.45,31,1.68,60.44,14.85,85.27C98.65,467.15,144.94,511,254.62,511h2.76c109.68,0,156-43.85,175.48-80.64C446,405.53,451.16,376,447.71,345.09ZM257.5,85.29a10.45,10.45,0,0,0,.33-2C260.32,69,265.7,53.28,276.9,42.08c18.16-18.17,48.25-21,65-21,2.19,0,4.15.05,5.83.12.53,14.43-.44,50.22-21,70.76h0c-20.54,20.55-56.33,21.52-70.83,20.91A146.69,146.69,0,0,1,257.5,85.29ZM415.19,421c-24.29,45.8-78.86,70-157.81,70h-2.76c-79,0-133.52-24.21-157.81-70C71.49,373.25,85,314.55,108.25,280.22c5.58-8.23,10.31-14.93,14.49-20.84,18.61-26.34,26.31-37.25,44.57-93.23,9.3-28.54,19.63-45.9,33.47-56.26a87.18,87.18,0,0,1,35.48-15.64,176.57,176.57,0,0,0-.33,19.33,20.16,20.16,0,0,0,19.31,19.32q3.57.14,7,.13c26.94,0,46.2-6,59.52-13.07,8.79,10.51,16.19,25.42,23,46.19,18.26,56,26,66.89,44.57,93.23,4.18,5.91,8.91,12.61,14.49,20.84C427,314.55,440.51,373.25,415.19,421Z"/>
    <path d="M372.4,295.26a10.05,10.05,0,0,0-7.85-1.83l-101.27,19H248.72l-101.27-19a10,10,0,0,0-11.8,8.85,138.58,138.58,0,0,0,2.59,39.38c8.15,36.22,29.75,46,46.44,47.89a87.54,87.54,0,0,0,9.56.54c15.56,0,28.77-4.6,39.38-13.72A65.62,65.62,0,0,0,251,351.68h10a65.62,65.62,0,0,0,17.37,24.69c10.61,9.12,23.82,13.72,39.38,13.72a87.54,87.54,0,0,0,9.56-.54c16.69-1.86,38.3-11.67,46.44-47.89a138.58,138.58,0,0,0,2.59-39.38A10,10,0,0,0,372.4,295.26Z"/>
    <path d="M289.5,393.12a10,10,0,0,0-9.52,6.95h0l0-.15c-.5,1.38-5.39,13.53-24,13.53s-23.53-12.15-24-13.53l.05.15h0a10,10,0,0,0-19.52,3.05,9.89,9.89,0,0,0,.48,3.05h0c.35,1.12,9.13,27.28,43,27.28s42.67-26.16,43-27.28h0a9.89,9.89,0,0,0,.48-3.05A10,10,0,0,0,289.5,393.12Z"/>
</svg>