<svg id="_x31__x2C_5" enable-background="new 0 0 24 24" height="512" viewBox="0 0 24 24" width="512"
     fill="#444"
     xmlns="http://www.w3.org/2000/svg">
    <g>
        <path d="m12.25 17h-.5c-.965 0-1.75-.785-1.75-1.75v-3.75c0-.692.458-1.5 1.75-1.5h.5c1.292 0 1.75.808 1.75 1.5v3.75c0 .965-.785 1.75-1.75 1.75zm-.5-5.5c-.184 0-.276.033-.296.045l.046 3.705c0 .138.112.25.25.25h.5c.138 0 .25-.112.25-.25v-3.736c-.021.008-.108-.014-.25-.014z"/>
    </g>
    <g>
        <path d="m7.25 14h-1.5c-.965 0-1.75-.785-1.75-1.75v-1.5c0-.414.336-.75.75-.75s.75.336.75.75v1.5c0 .138.112.25.25.25h.75v-1.75c0-.414.336-.75.75-.75s.75.336.75.75v2.5c0 .414-.336.75-.75.75z"/>
    </g>
    <g>
        <path d="m7.25 17c-.414 0-.75-.336-.75-.75v-2.75c0-.414.336-.75.75-.75s.75.336.75.75v2.75c0 .414-.336.75-.75.75z"/>
    </g>
    <g>
        <path d="m19.25 14h-1.5c-.965 0-1.75-.785-1.75-1.75v-1.5c0-.414.336-.75.75-.75s.75.336.75.75v1.5c0 .138.112.25.25.25h.75v-1.75c0-.414.336-.75.75-.75s.75.336.75.75v2.5c0 .414-.336.75-.75.75z"/>
    </g>
    <g>
        <path d="m19.25 17c-.414 0-.75-.336-.75-.75v-2.75c0-.414.336-.75.75-.75s.75.336.75.75v2.75c0 .414-.336.75-.75.75z"/>
    </g>
    <g>
        <path d="m21.25 23h-18.5c-1.517 0-2.75-1.233-2.75-2.75v-16.5c0-1.517 1.233-2.75 2.75-2.75h18.5c1.517 0 2.75 1.233 2.75 2.75v16.5c0 1.517-1.233 2.75-2.75 2.75zm-18.5-20.5c-.689 0-1.25.561-1.25 1.25v16.5c0 .689.561 1.25 1.25 1.25h18.5c.689 0 1.25-.561 1.25-1.25v-16.5c0-.689-.561-1.25-1.25-1.25z"/>
    </g>
    <g>
        <path d="m23.25 6h-22.5c-.414 0-.75-.336-.75-.75s.336-.75.75-.75h22.5c.414 0 .75.336.75.75s-.336.75-.75.75z"/>
    </g>
</svg>
