<svg height='300px' width='300px' fill="#000000" xmlns="http://www.w3.org/2000/svg" version="1.1" x="0px" y="0px"
     viewBox="0 0 100 100" enable-background="new 0 0 100 100" xml:space="preserve"><path d="M50,18.1c-8.1,0-14.6,6.6-14.6,14.6S41.9,47.3,50,47.3c8.1,0,14.6-6.6,14.6-14.6S58.1,18.1,50,18.1z M58.9,31.1l-4.1,3.4  l1.2,5.1c0.2,0.7-0.4,1.4-1,1.4c-0.2,0-0.4-0.1-0.6-0.2L49.9,38l-4.4,2.8c-0.2,0.1-0.4,0.2-0.6,0.2c-0.7,0-1.2-0.6-1-1.4l1.2-5.1  l-4.1-3.4c-0.8-0.6-0.3-1.9,0.6-1.9l5.2-0.4l2-4.9c0.2-0.5,0.6-0.7,1-0.7c0.4,0,0.8,0.2,1,0.7l2,4.9l5.2,0.4  C59.2,29.3,59.7,30.5,58.9,31.1z M79.2,28.6c-1.3-1.2-1.8-3.1-1.1-4.7l0.6-1.5c1-2.3-0.3-4.9-2.7-5.6l-1.6-0.4c-1.7-0.5-2.9-2-3-3.8  L71.4,11c-0.1-2.2-2-3.9-4.1-3.9c-0.2,0-0.5,0-0.7,0.1L65,7.4c-0.2,0-0.5,0.1-0.7,0.1c-1.5,0-2.9-0.8-3.6-2.2l-0.8-1.4  c-0.8-1.4-2.2-2.2-3.6-2.2c-0.8,0-1.7,0.2-2.4,0.8l-1.3,0.9c-0.7,0.5-1.6,0.8-2.4,0.8c-0.9,0-1.7-0.3-2.4-0.8l-1.3-1  c-0.7-0.5-1.6-0.8-2.4-0.8c-1.5,0-2.9,0.8-3.6,2.1l-0.8,1.4c-0.7,1.3-2.1,2.1-3.6,2.1c-0.2,0-0.5,0-0.7-0.1L33.5,7  c-0.2,0-0.5-0.1-0.7-0.1c-2.2,0-4,1.7-4.1,3.9l-0.1,1.6c-0.1,1.8-1.3,3.3-3,3.8L24,16.7c-2.4,0.7-3.7,3.3-2.7,5.6l0.6,1.5  c0.7,1.6,0.2,3.5-1.1,4.7l-1.2,1.1c-1.9,1.6-1.9,4.6,0,6.2l1.2,1.1c1.3,1.2,1.8,3.1,1.1,4.7L21.2,43c-1,2.3,0.3,4.9,2.7,5.6l1.6,0.4  c1.7,0.5,2.9,2,3,3.8l0.1,1.6c0.1,2.2,2,3.9,4.1,3.9c0.2,0,0.5,0,0.7-0.1l1.6-0.3c0.2,0,0.5-0.1,0.7-0.1c1.5,0,2.9,0.8,3.6,2.2  l0.8,1.4c0.8,1.4,2.2,2.2,3.6,2.2c0.8,0,1.7-0.2,2.4-0.8l1.3-0.9c0.7-0.5,1.6-0.8,2.4-0.8c0.9,0,1.7,0.3,2.4,0.8l1.3,1  c0.7,0.5,1.6,0.8,2.4,0.8c1.5,0,2.9-0.8,3.6-2.1l0.8-1.4c0.7-1.3,2.1-2.1,3.6-2.1c0.2,0,0.5,0,0.7,0.1l1.6,0.3  c0.2,0,0.5,0.1,0.7,0.1c2.2,0,4-1.7,4.1-3.9l0.1-1.6c0.1-1.8,1.3-3.3,3-3.8l1.6-0.4c2.4-0.7,3.7-3.3,2.7-5.6l-0.6-1.5  c-0.7-1.6-0.2-3.5,1.1-4.7l1.2-1.1c1.9-1.6,1.9-4.6,0-6.2L79.2,28.6z M50,53c-11.2,0-20.2-9.1-20.2-20.2c0-11.2,9.1-20.2,20.2-20.2  c11.2,0,20.2,9.1,20.2,20.2C70.2,43.9,61.2,53,50,53z M56.1,70.1c1.3,0,2.6-0.3,3.8-0.8v20.3c0,0.6-0.3,1.2-0.8,1.6l-8.5,6.9  c-0.4,0.3-0.9,0.3-1.3,0l-8.5-6.9c-0.5-0.4-0.8-1-0.8-1.6V69.4c1.2,0.4,2.4,0.7,3.7,0.7c2.2,0,4.2-0.7,6-1.9l0.1-0.1l0.1,0.1  C51.8,69.5,53.9,70.1,56.1,70.1z"></path></svg>
