<svg xmlns="http://www.w3.org/2000/svg" height="511pt" version="1.1" viewBox="-58 0 511 511.99886" width="511pt">
    <g id="surface1">
        <path d="M 250.867188 4.09375 C 244.941406 -0.769531 236.566406 -1.355469 230.019531 2.636719 C 223.46875 6.628906 220.152344 14.347656 221.765625 21.84375 C 225.484375 39.152344 234.136719 83.339844 234.136719 119.761719 C 234.136719 140.699219 226.414062 160.203125 212.945312 173.269531 C 201.214844 184.65625 186.078125 190.40625 169.226562 189.898438 C 151.554688 189.371094 135.027344 181.945312 122.683594 168.988281 C 110.332031 156.027344 103.535156 139.023438 103.535156 121.101562 C 103.535156 113.402344 98.636719 106.539062 91.351562 104.03125 C 84.078125 101.523438 76.003906 103.910156 71.269531 109.964844 C 48.648438 138.886719 31.078125 170.949219 19.046875 205.273438 C 6.738281 240.382812 0.5 277.121094 0.5 314.457031 C 0.5 366.726562 21.183594 416.199219 58.742188 453.753906 C 96.300781 491.3125 145.769531 512 198.039062 512 C 250.308594 512 299.777344 491.316406 337.335938 453.753906 C 374.894531 416.199219 395.578125 366.726562 395.578125 314.457031 C 395.582031 192.765625 342.835938 79.644531 250.867188 4.09375 Z M 316.109375 432.527344 C 284.222656 464.414062 242.289062 481.976562 198.039062 481.976562 C 153.792969 481.976562 111.859375 464.414062 79.972656 432.527344 C 48.085938 400.640625 30.523438 358.707031 30.523438 314.457031 C 30.523438 256.175781 46.964844 200.484375 78.328125 151.789062 C 82.867188 165.820312 90.53125 178.765625 100.949219 189.699219 C 118.777344 208.410156 142.707031 219.140625 168.328125 219.90625 C 193.140625 220.652344 216.417969 211.742188 233.855469 194.816406 C 253.117188 176.125 264.160156 148.769531 264.160156 119.761719 C 264.160156 96.886719 261.070312 71.515625 257.714844 50.703125 C 287.386719 80.199219 311.515625 114.371094 329.664062 152.652344 C 353.484375 202.898438 365.558594 257.335938 365.558594 314.457031 C 365.558594 358.707031 347.996094 400.640625 316.109375 432.527344 Z M 316.109375 432.527344 "
              style=" stroke:none;fill-rule:nonzero;fill:rgb(0%,0%,0%);fill-opacity:1;"/>
        <path d="M 295.15625 213.246094 C 288.53125 212.019531 281.824219 214.554688 277.664062 219.863281 C 259.207031 243.421875 225.6875 260.980469 185.699219 268.035156 L 185.539062 268.066406 C 163.121094 272.269531 144.226562 282.3125 130.90625 297.117188 C 117.242188 312.300781 110.019531 331.761719 110.019531 353.398438 C 110.019531 376.425781 119.078125 397.957031 135.53125 414.027344 C 152.011719 430.121094 174.207031 438.988281 198.039062 438.988281 C 266.707031 438.988281 322.570312 384.214844 322.570312 316.890625 C 322.570312 285.269531 318.046875 254.578125 309.125 225.667969 C 307.136719 219.230469 301.785156 214.46875 295.15625 213.246094 Z M 198.039062 408.964844 C 165.515625 408.964844 140.039062 384.554688 140.039062 353.398438 C 140.039062 324.457031 159.09375 303.59375 191.003906 297.585938 C 228.867188 290.894531 262.242188 275.660156 285.808594 254.75 C 290.285156 274.75 292.546875 295.570312 292.546875 316.890625 C 292.546875 367.660156 250.152344 408.964844 198.039062 408.964844 Z M 198.039062 408.964844 "
              style=" stroke:none;fill-rule:nonzero;fill:rgb(0%,0%,0%);fill-opacity:1;"/>
    </g>
</svg>
