<?xml version="1.0" encoding="iso-8859-1"?>
<!-- Generator: Adobe Illustrator 19.0.0, SVG Export Plug-In . SVG Version: 6.00 Build 0)  -->
<svg version="1.1" id="Capa_1" xmlns="http://www.w3.org/2000/svg" x="0px" y="0px"
     viewBox="0 0 480.268 480.268" style="enable-background:new 0 0 480.268 480.268;" xml:space="preserve">
<path style="fill:#BD3633;" d="M198.634,361.225l-36.776,88.792c50.768,18.984,105.784,18.984,156.544,0l-36.776-88.792
	C254.602,370.529,225.666,370.529,198.634,361.225z M216.13,448.129h-16v-16h16V448.129z M248.13,448.129h-16v-16h16V448.129z
	 M280.13,448.129h-16v-16h16V448.129z"/>
    <path style="fill:#F2EAEC;" d="M299.474,362.481l30.664,74.032c46.72-21.496,84.88-59.664,106.368-106.384l-74.024-30.664
	C349.186,326.77,326.77,349.185,299.474,362.481z"/>
    <path style="fill:#BD3633;" d="M399.554,182.753l-38.104,15.784l0,0l-0.216,0.088c9.296,27.024,9.304,55.976,0,83l0.216,0.088l0,0
	l38.104,15.784l50.464,20.904c18.992-50.776,18.992-105.784,0-156.552L399.554,182.753z"/>
    <g>
	<path style="fill:#F2EAEC;" d="M180.786,117.777l-30.664-74.024c-46.72,21.488-84.88,59.656-106.368,106.376l74.024,30.664
		C131.082,153.49,153.49,131.074,180.786,117.777z"/>
        <path style="fill:#F2EAEC;" d="M362.482,180.794l74.024-30.664c-21.488-46.72-59.648-84.888-106.368-106.376l-30.664,74.024
		C326.77,131.074,349.186,153.49,362.482,180.794z"/>
        <path style="fill:#F2EAEC;" d="M117.778,299.465l-74.016,30.664c21.488,46.72,59.648,84.888,106.368,106.384l30.664-74.032
		C153.49,349.185,131.082,326.77,117.778,299.465z"/>
</g>
    <g>
	<path style="fill:#BD3633;" d="M118.818,281.721C118.818,281.721,118.826,281.721,118.818,281.721l0.216-0.088
		c-9.304-27.024-9.304-55.976,0-83l-0.216-0.088l0,0l-38.104-15.784L30.25,161.857c-18.992,50.776-18.992,105.784,0,156.552
		l50.464-20.904L118.818,281.721z"/>
        <path style="fill:#BD3633;" d="M240.13,112.058c13.992,0,27.984,2.328,41.504,6.976l36.776-88.792
		c-50.768-18.984-105.768-18.992-156.544,0l36.776,88.792C212.146,114.385,226.138,112.058,240.13,112.058z"/>
</g>
    <g>
	<path style="fill:#1C2121;" d="M461.866,148.29c-1.688-4.08-6.384-6.008-10.456-4.328l-0.168,0.072
		c-23.112-50.608-64.4-91.904-115.008-115.016l0.064-0.16c1.688-4.08-0.248-8.76-4.328-10.456
		c-59.216-24.528-124.456-24.536-183.688,0c-1.96,0.816-3.512,2.368-4.328,4.328s-0.816,4.168,0,6.128l0.064,0.16
		C93.426,52.13,52.13,93.425,29.026,144.025l-0.168-0.072c-1.968-0.816-4.16-0.816-6.128,0c-1.96,0.816-3.512,2.368-4.328,4.328
		c-24.536,59.232-24.536,124.464,0,183.688c1.272,3.08,4.256,4.944,7.392,4.944c1.024,0,2.064-0.2,3.064-0.616l0.168-0.072
		c23.104,50.608,64.4,91.904,115,115.024l-0.064,0.16c-0.816,1.96-0.816,4.168,0,6.128s2.368,3.512,4.328,4.328
		c29.616,12.264,60.728,18.4,91.84,18.4s62.224-6.136,91.84-18.4c4.08-1.688,6.016-6.368,4.328-10.456l-0.064-0.16
		c50.608-23.12,91.896-64.416,115.008-115.016l0.168,0.072c0.984,0.408,2.024,0.608,3.064,0.608s2.08-0.2,3.064-0.608
		c1.96-0.816,3.512-2.368,4.328-4.328C486.402,272.745,486.402,207.514,461.866,148.29z M282.994,343.609
		c-27.64,11.448-58.08,11.448-85.72,0c-3.928-1.624-8.4,0.168-10.224,3.984c-23.472-11.648-42.728-30.904-54.376-54.384
		c3.808-1.824,5.608-6.272,3.976-10.216c-11.448-27.64-11.448-58.08,0-85.72c1.632-3.944-0.176-8.4-3.976-10.216
		c11.648-23.464,30.896-42.72,54.36-54.376c1.352,2.848,4.176,4.584,7.176,4.584c1.024,0,2.064-0.2,3.064-0.616
		c27.64-11.448,58.08-11.448,85.72,0c3.912,1.616,8.392-0.176,10.216-3.984c23.472,11.648,42.728,30.904,54.376,54.384
		c-3.808,1.824-5.608,6.272-3.976,10.216c11.448,27.64,11.448,58.08,0,85.72c-1.632,3.944,0.176,8.4,3.976,10.216
		c-11.648,23.472-30.904,42.728-54.376,54.384C291.394,343.777,286.93,341.985,282.994,343.609z M436.506,150.13l-74.024,30.664
		c-13.296-27.296-35.712-49.712-63.008-63.008l30.664-74.024C376.858,65.242,415.026,103.41,436.506,150.13z M318.41,30.25
		l-36.776,88.792c-13.512-4.656-27.504-6.976-41.504-6.976s-27.984,2.328-41.504,6.976L161.858,30.25
		C212.642,11.258,267.642,11.266,318.41,30.25z M150.122,43.754l30.664,74.024c-27.296,13.296-49.712,35.712-63.008,63.008
		L43.762,150.13C65.242,103.41,103.41,65.242,150.122,43.754z M30.25,161.85l50.464,20.904l38.104,15.784l0,0l0.216,0.088
		c-9.304,27.024-9.304,55.976,0,83l-0.216,0.088l0,0l-38.104,15.784L30.25,318.401C11.258,267.633,11.258,212.626,30.25,161.85z
		 M43.762,330.129l74.024-30.664c13.296,27.296,35.712,49.712,63.008,63.008l-30.664,74.032
		C103.41,415.017,65.242,376.849,43.762,330.129z M161.858,450.009l36.776-88.792c27.032,9.304,55.968,9.304,83,0l36.776,88.792
		C267.642,468.993,212.626,468.993,161.858,450.009z M330.138,436.513l-30.664-74.032c27.296-13.296,49.712-35.712,63.008-63.008
		l74.024,30.664C415.026,376.849,376.858,415.017,330.138,436.513z M450.018,318.409l-50.464-20.904l-38.104-15.784l0,0
		l-0.216-0.088c9.304-27.024,9.296-55.976,0-83l0.216-0.088l0,0l38.104-15.784l50.464-20.904
		C469.01,212.626,469.01,267.633,450.018,318.409z"/>
        <rect x="200.13" y="432.129" style="fill:#1C2121;" width="16" height="16"/>
        <rect x="232.13" y="432.129" style="fill:#1C2121;" width="16" height="16"/>
        <rect x="264.13" y="432.129" style="fill:#1C2121;" width="16" height="16"/>
</g>
    <g>
</g>
    <g>
</g>
    <g>
</g>
    <g>
</g>
    <g>
</g>
    <g>
</g>
    <g>
</g>
    <g>
</g>
    <g>
</g>
    <g>
</g>
    <g>
</g>
    <g>
</g>
    <g>
</g>
    <g>
</g>
    <g>
</g>
</svg>
