<svg xmlns="http://www.w3.org/2000/svg" x="0px" y="0px"
     width="100" height="100"
     viewBox="0 0 172 172"
     style=" fill:#000000;">
    <g transform="translate(0.516,0.516) scale(0.994,0.994)">
        <g fill="none" fill-rule="nonzero" stroke="none" stroke-width="1" stroke-linecap="butt" stroke-linejoin="none"
           stroke-miterlimit="10" stroke-dasharray="" stroke-dashoffset="0" font-family="none" font-weight="none"
           font-size="none" style="mix-blend-mode: normal">
            <g fill="#000000" stroke="#000000" stroke-linejoin="round">
                <path d="M165.12,86c0,43.65603 -35.46397,79.12 -79.12,79.12c-43.65603,0 -79.12,-35.46397 -79.12,-79.12c0,-43.65603 35.46397,-79.12 79.12,-79.12c43.65603,0 79.12,35.46397 79.12,79.12zM13.76,86c0,39.93779 32.30221,72.24 72.24,72.24c39.93779,0 72.24,-32.30221 72.24,-72.24c0,-39.93779 -32.30221,-72.24 -72.24,-72.24c-39.93779,0 -72.24,32.30221 -72.24,72.24zM127.28,82.56v6.88h-82.56v-6.88z"></path>
            </g>
            <path d="M0,172v-172h172v172z" fill="none" stroke="none" stroke-linejoin="miter"></path>
            <g fill="#000000" stroke="none" stroke-linejoin="miter">
                <path d="M86,6.88c-43.65603,0 -79.12,35.46397 -79.12,79.12c0,43.65603 35.46397,79.12 79.12,79.12c43.65603,0 79.12,-35.46397 79.12,-79.12c0,-43.65603 -35.46397,-79.12 -79.12,-79.12zM86,13.76c39.93779,0 72.24,32.30221 72.24,72.24c0,39.93779 -32.30221,72.24 -72.24,72.24c-39.93779,0 -72.24,-32.30221 -72.24,-72.24c0,-39.93779 32.30221,-72.24 72.24,-72.24zM44.72,82.56v6.88h82.56v-6.88z"></path>
            </g>
            <path d="" fill="none" stroke="none" stroke-linejoin="miter"></path>
        </g>
    </g>
</svg>
