<svg xmlns="http://www.w3.org/2000/svg" width="300" height="300" x="0" y="0" fill="#4D4D4D" enable-background="new 0 0 100 100" version="1.1" viewBox="0 0 100 100" xml:space="preserve"><path d="M23.149,49.139c-5.409,0-9.808,4.4-9.808,9.808s4.399,9.808,9.808,9.808c5.407,0,9.807-4.4,9.807-9.808 S28.556,49.139,23.149,49.139z M23.149,65.646c-3.695,0-6.701-3.006-6.701-6.7s3.006-6.7,6.701-6.7c3.693,0,6.699,3.006,6.699,6.7 S26.842,65.646,23.149,65.646z"/><path d="M80.293,25.135c-0.58-0.24-1.248-0.108-1.693,0.335l-6.641,6.633c-3.059-2.404-6.461-4.307-10.162-5.673 c-0.805-0.297-1.697,0.114-1.994,0.918c-0.299,0.806,0.113,1.699,0.918,1.996c3.273,1.208,6.291,2.879,9.018,4.973l-8.971,8.96 c-0.445,0.444-0.576,1.112-0.338,1.692c0.24,0.581,0.807,0.988,1.436,0.988L79.684,46c0.002,0,0.002,0,0.002,0 c0.412,0,0.807-0.191,1.098-0.482s0.455-0.7,0.455-1.112l0.012-17.827C81.25,25.95,80.873,25.376,80.293,25.135z M78.133,42.835 l-12.516-0.009l12.523-12.507L78.133,42.835z"/><path d="M17.585,43.525c0.259,0.167,0.549,0.246,0.835,0.246c0.513,0,1.014-0.252,1.311-0.716c3.48-5.432,8.423-9.771,14.293-12.547 c0.776-0.367,1.107-1.293,0.74-2.069c-0.366-0.775-1.292-1.106-2.067-0.74c-6.399,3.025-11.787,7.756-15.582,13.681 C16.652,42.102,16.863,43.063,17.585,43.525z"/><path d="M49.184,26.381C48.856,26.241,49,26.101,48,25.963v-7.104c2,0.551,1.973,1.594,2.01,1.672 c0.362,0.771,1.398,1.107,2.176,0.751c0.779-0.357,0.94-1.28,0.581-2.06C52.706,19.088,52,16.303,48,15.584v-1.044 c0-0.858-0.642-1.553-1.499-1.553c-0.858,0-1.501,0.695-1.501,1.553v0.997c-3,0.539-5.572,2.827-5.572,5.932 c0,2.818,2.572,4.841,5.572,6.439v9.147c-2-0.539-3.581-2.24-4.092-3.049c-0.458-0.727-1.322-0.943-2.048-0.484 c-0.726,0.458-1.084,1.417-0.625,2.143C38.851,36.643,41,39.588,45,40.21v1.322c0,0.858,0.643,1.554,1.501,1.554 c0.857,0,1.499-0.695,1.499-1.554v-1.33c4-0.642,6.241-3.634,6.241-6.543C54.241,31.105,53.962,28.439,49.184,26.381z M45,24.321 c-1-1.04-2.466-1.994-2.466-2.852c0-1.372,1.466-2.367,2.466-2.759V24.321z M48,37.038v-7.671c3,1.372,3.012,2.667,3.012,4.292 C51.012,34.797,51,36.482,48,37.038z"/><path d="M93.986,47.428c-0.109-0.85-0.885-1.448-1.74-1.339l-2.732,0.357c-0.562,0.074-1.039,0.447-1.246,0.975l-2.625,6.718 L55.631,55.25c-0.434,0.018-0.842,0.215-1.125,0.545c-0.283,0.331-0.412,0.766-0.359,1.197l1.654,13.5 c0.09,0.73,0.678,1.299,1.41,1.359l22.57,1.898c0.49,0.547,1.182,1.262,2.137,2.249c1.186,1.224,1.332,1.95,1.232,2.188 c-0.189,0.444-1.289,0.896-2.182,0.896c-1.912,0-24.238,0.137-24.463,0.139c-0.859,0.006-1.551,0.541-1.545,1.398 C54.967,81.475,55.66,82,56.514,82h0.01c0.227,0,22.543,0.025,24.445,0.025c1.551,0,4.174-0.662,5.043-2.71 c0.488-1.155,0.562-3.019-1.861-5.52c-1.064-1.095-1.678-1.736-2.031-2.127l8.709-22.272l1.82-0.232 C93.5,49.053,94.1,48.279,93.986,47.428z M79.207,70.584L58.73,68.862l-1.295-10.569l26.879-0.996L79.207,70.584z"/><circle cx="59.805" cy="84.845" r="1.747"/><circle cx="83.668" cy="84.845" r="1.747"/><path d="M32.288,70H14.475C10.798,70,8,73.041,8,76.717v8.906C8,86.48,8.504,87,9.362,87h28.038C38.258,87,39,86.48,39,85.623 v-8.906C39,73.041,35.962,70,32.288,70z M36,84h-4v-5.387c0-0.857-0.642-1.553-1.5-1.553S29,77.756,29,78.613V84H18v-5.387 c0-0.857-0.643-1.553-1.501-1.553c-0.857,0-1.499,0.695-1.499,1.553V84h-4v-7.283C11,74.755,12.512,73,14.475,73h17.813 C34.25,73,36,74.755,36,76.717V84z"/></svg>