<svg height='300px' width='300px' fill="#000000" xmlns="http://www.w3.org/2000/svg" version="1.1" x="0px" y="0px"
     viewBox="0 0 100 100" enable-background="new 0 0 100 100" xml:space="preserve"><path d="M46.878,91.988C46.047,93.876,44.198,95,42.259,95c-0.679,0-1.369-0.138-2.03-0.429  c-7.706-3.394-14.653-8.155-20.649-14.151C13.584,74.424,8.823,67.477,5.429,59.771c-1.123-2.549,0.034-5.526,2.583-6.65  c2.549-1.122,5.527,0.034,6.649,2.583c2.888,6.558,6.943,12.473,12.052,17.582c5.109,5.109,11.024,9.164,17.582,12.052  C46.845,86.461,48.001,89.438,46.878,91.988z M73.98,77.214c-2.162,0.304-4.317,0.453-6.455,0.453  c-11.938-0.001-23.306-4.67-31.914-13.278C25.461,54.24,20.787,40.255,22.786,26.02c0.387-2.759-1.535-5.309-4.294-5.697  c-2.76-0.387-5.309,1.535-5.697,4.294c-1.168,8.315-0.418,16.92,2.168,24.887c2.713,8.358,7.26,15.766,13.513,22.019  c6.253,6.254,13.662,10.8,22.02,13.514c5.525,1.794,11.356,2.704,17.186,2.704c2.576,0,5.153-0.178,7.701-0.536  c2.759-0.387,4.681-2.938,4.293-5.697C79.289,78.749,76.737,76.826,73.98,77.214z M85.189,59.974  c-5.334,3.4-11.411,5.057-17.468,5.057c-8.488,0-16.933-3.258-23.214-9.538c-10.762-10.762-12.647-27.871-4.482-40.682  c1.497-2.349,0.807-5.467-1.543-6.965c-2.349-1.498-5.468-0.807-6.965,1.543c-5.153,8.085-7.444,17.817-6.452,27.403  c1.007,9.73,5.378,18.905,12.307,25.834c6.929,6.929,16.104,11.3,25.834,12.307c1.463,0.151,2.929,0.226,4.393,0.226  c8.125,0,16.16-2.312,23.011-6.678c2.349-1.497,3.04-4.616,1.543-6.965S87.539,58.477,85.189,59.974z M92.288,39.538  c-2.47-1.289-5.517-0.331-6.805,2.139c-0.944,1.809-2.161,3.465-3.619,4.922c-3.8,3.8-8.852,5.892-14.226,5.892c0,0-0.001,0-0.002,0  c-5.375,0-10.429-2.095-14.231-5.896c-7.847-7.847-7.849-20.614-0.004-28.459c1.458-1.458,3.114-2.675,4.923-3.619  c2.47-1.289,3.427-4.336,2.139-6.805c-1.289-2.47-4.336-3.427-6.805-2.139c-2.719,1.419-5.206,3.246-7.389,5.429  c-11.779,11.779-11.777,30.945,0.004,42.726c5.707,5.707,13.294,8.85,21.363,8.851c0.001,0,0.002,0,0.003,0  c8.069,0,15.655-3.142,21.36-8.847c2.184-2.184,4.01-4.67,5.429-7.39C95.715,43.873,94.758,40.826,92.288,39.538z M55.167,19.902  c3.329-3.329,7.755-5.162,12.463-5.162c4.709,0,9.137,1.834,12.467,5.164c6.873,6.874,6.874,18.057,0.002,24.93  c-3.328,3.329-7.755,5.162-12.463,5.162c0,0,0,0,0,0c-4.709,0-9.137-1.834-12.467-5.164C48.295,37.958,48.294,26.774,55.167,19.902z   M62.302,37.698c1.425,1.425,3.319,2.209,5.333,2.209c2.013,0,3.906-0.784,5.329-2.207c2.939-2.939,2.939-7.723-0.002-10.663  c-1.425-1.425-3.319-2.209-5.333-2.209c-2.013,0-3.906,0.784-5.33,2.207C59.361,29.974,59.362,34.758,62.302,37.698z"></path></svg>
