<?xml version="1.0" encoding="iso-8859-1"?>
<!-- Generator: Adobe Illustrator 19.0.0, SVG Export Plug-In . SVG Version: 6.00 Build 0)  -->
<svg version="1.1" id="Capa_1" xmlns="http://www.w3.org/2000/svg" x="0px" y="0px"
     viewBox="0 0 512 512" style="enable-background:new 0 0 512 512;" xml:space="preserve">
<path style="fill:#83CDAB;" d="M276.211,7.5h-40.42c-7.507,0-13.592,6.085-13.592,13.592v98.107
	c0,52.058-14.918,103.025-42.988,146.866l0,0c-16.687,26.064-25.556,56.364-25.556,87.312v124.719
	c0,14.582,11.821,26.404,26.403,26.404h151.885c14.582,0,26.404-11.821,26.404-26.404V353.378c0-30.948-8.869-61.248-25.556-87.312
	l0,0c-28.07-43.842-42.988-94.809-42.988-146.866V21.092C289.802,13.585,283.718,7.5,276.211,7.5z"/>
    <path style="opacity:0.12;enable-background:new    ;" d="M153.655,470.746v7.351c0,14.582,11.822,26.404,26.404,26.404h151.885
	c14.582,0,26.404-11.821,26.404-26.404v-7.351H153.655z"/>
    <path style="fill:#FFFFFF;" d="M321.794,397.092H190.206c-5.6,0-10.139,4.539-10.139,10.139v53.376
	c0,5.6,4.539,10.139,10.139,10.139h131.588c5.6,0,10.139-4.54,10.139-10.139v-53.376
	C331.934,401.631,327.395,397.092,321.794,397.092z"/>
    <path style="fill:#F4D06D;" d="M289.802,119.199V21.092c0-7.507-6.085-13.592-13.592-13.592h-40.42
	c-7.507,0-13.592,6.085-13.592,13.592v98.107c0,44.733-11.025,88.656-31.935,127.949l51.745,51.745
	c9.613,9.613,25.198,9.613,34.811,0l47.323-47.323C301.674,211.164,289.802,165.617,289.802,119.199z"/>
    <path style="fill:#394049;" d="M297.914,185.143l-30.749,30.75c-4.281,4.281-11.221,4.281-15.501,0L215.4,179.629
	c-2.273,9.992-5.102,19.849-8.486,29.52l42.5,42.5c5.523,5.523,14.478,5.523,20.001,0l37.481-37.481
	C303.362,204.666,300.369,194.975,297.914,185.143z"/>
    <path style="opacity:0.12;enable-background:new    ;" d="M332.791,266.066L332.791,266.066
	c-28.07-43.842-42.988-94.809-42.988-146.867V21.092c0-7.507-6.085-13.592-13.592-13.592h-26.165
	c7.507,0,13.592,6.085,13.592,13.592v12.637h-41.44v64.694h41.44v20.776c0,52.058,14.918,103.025,42.988,146.866l0,0
	c16.687,26.064,25.556,56.364,25.556,87.312v124.719c0,14.582-11.821,26.404-26.404,26.404h26.165
	c14.582,0,26.404-11.821,26.404-26.404V353.378C358.346,322.43,349.479,292.13,332.791,266.066z"/>
    <g>
	<path style="fill:#FFFFFF;" d="M190.663,372.318H178.89c-4.142,0-7.5-3.358-7.5-7.5s3.358-7.5,7.5-7.5h11.773
		c4.142,0,7.5,3.358,7.5,7.5S194.805,372.318,190.663,372.318z"/>
        <path style="fill:#FFFFFF;" d="M335.154,372.318h-11.772c-4.143,0-7.5-3.358-7.5-7.5s3.357-7.5,7.5-7.5h11.772
		c4.143,0,7.5,3.358,7.5,7.5S339.297,372.318,335.154,372.318z"/>
</g>
    <path style="fill:#F4D06D;" d="M291.966,83.552h-71.931c-3.903,0-7.067-3.164-7.067-7.067V51.714c0-3.903,3.164-7.067,7.067-7.067
	h71.931c3.903,0,7.067,3.164,7.067,7.067v24.771C299.034,80.388,295.87,83.552,291.966,83.552z"/>
    <path d="M339.107,262.022c-18.385-28.715-30.908-60.264-37.223-93.771c-0.768-4.07-4.693-6.749-8.759-5.981
	c-4.07,0.767-6.749,4.688-5.981,8.759c5.245,27.83,14.561,54.374,27.735,79.198l-43.363,43.363
	c-3.232,3.232-7.53,5.013-12.102,5.013c-4.572,0-8.87-1.78-12.103-5.013l-47.855-47.855c19.846-39.113,30.241-82.343,30.241-126.536
	V91.052h52.604v28.147c0,7.091,0.274,14.27,0.814,21.337c0.302,3.936,3.588,6.928,7.471,6.928c0.191,0,0.386-0.007,0.58-0.022
	c4.13-0.316,7.222-3.92,6.906-8.05c-0.512-6.688-0.771-13.482-0.771-20.193V90.026c5.397-2.135,9.23-7.393,9.23-13.541V51.713
	c0-6.148-3.833-11.407-9.23-13.541v-17.08C297.302,9.462,287.841,0,276.211,0h-40.42c-11.63,0-21.092,9.462-21.092,21.092v17.08
	c-5.397,2.135-9.23,7.394-9.23,13.541v24.771c0,6.148,3.833,11.406,9.23,13.541v29.173c0,43.554-10.669,86.12-30.998,124.328
	c-0.045,0.082-0.09,0.164-0.132,0.247c-3.308,6.201-6.861,12.292-10.675,18.248c-17.493,27.323-26.74,58.913-26.74,91.356v64.318
	c0,4.142,3.358,7.5,7.5,7.5s7.5-3.358,7.5-7.5v-64.318c0-29.571,8.428-58.364,24.373-83.268c2.24-3.499,4.389-7.046,6.465-10.627
	l44.714,44.714c6.065,6.066,14.13,9.406,22.709,9.406c8.578,0,16.643-3.34,22.709-9.406l40.42-40.42
	c1.283,2.124,2.588,4.238,3.93,6.334c15.944,24.903,24.372,53.697,24.372,83.268v124.718c0,10.423-8.479,18.904-18.903,18.904
	H180.059c-10.424,0-18.904-8.48-18.904-18.904V448.14c0-4.142-3.358-7.5-7.5-7.5s-7.5,3.358-7.5,7.5v29.956
	c0,18.695,15.209,33.904,33.904,33.904h151.885c18.694,0,33.903-15.209,33.903-33.904V353.378
	C365.846,320.935,356.601,289.344,339.107,262.022z M229.699,21.092c0-3.359,2.733-6.092,6.092-6.092h40.42
	c3.359,0,6.092,2.733,6.092,6.092v16.054h-52.604V21.092z M220.469,52.146h71.065v23.906h-71.065L220.469,52.146L220.469,52.146z
	 M172.568,407.23v53.376c0,9.726,7.913,17.639,17.639,17.639h131.588c9.726,0,17.639-7.913,17.639-17.639V407.23
	c0-9.726-7.913-17.639-17.639-17.639h-8.364c-4.143,0-7.5,3.358-7.5,7.5s3.357,7.5,7.5,7.5h8.364c1.455,0,2.639,1.184,2.639,2.639
	v53.376c0,1.455-1.184,2.639-2.639,2.639H190.206c-1.455,0-2.639-1.184-2.639-2.639V407.23c0-1.455,1.184-2.639,2.639-2.639h96.138
	c4.143,0,7.5-3.358,7.5-7.5s-3.357-7.5-7.5-7.5h-96.138C180.48,389.592,172.568,397.504,172.568,407.23z M202.724,433.918
	c0,4.142,3.358,7.5,7.5,7.5h91.555c4.143,0,7.5-3.358,7.5-7.5s-3.357-7.5-7.5-7.5h-91.555
	C206.081,426.418,202.724,429.776,202.724,433.918z M184.777,326.991c-8.507,0-15.429,6.921-15.429,15.429
	c0,4.142,3.358,7.5,7.5,7.5s7.5-3.358,7.5-7.5c0-0.236,0.192-0.429,0.429-0.429s0.429,0.192,0.429,0.429c0,4.142,3.358,7.5,7.5,7.5
	s7.5-3.358,7.5-7.5C200.206,333.913,193.284,326.991,184.777,326.991z M329.268,349.92c4.143,0,7.5-3.358,7.5-7.5v-5.288
	c0-4.142-3.357-7.5-7.5-7.5s-7.5,3.358-7.5,7.5v5.288C321.768,346.562,325.125,349.92,329.268,349.92z M257.023,363.384
	c2.883,2.04,6.4,3.239,10.193,3.239c9.756,0,17.693-7.937,17.693-17.693c0-4.142-3.357-7.5-7.5-7.5s-7.5,3.358-7.5,7.5
	c0,1.485-1.208,2.693-2.693,2.693s-2.693-1.208-2.693-2.693c0-4.142-3.357-7.5-7.5-7.5c-4.142,0-7.5,3.358-7.5,7.5
	c0,1.485-1.208,2.693-2.694,2.693c-1.485,0-2.693-1.208-2.693-2.693c0-4.142-3.358-7.5-7.5-7.5s-7.5,3.358-7.5,7.5
	c0,9.756,7.937,17.693,17.693,17.693C250.62,366.623,254.139,365.423,257.023,363.384z"/>
    <g>
</g>
    <g>
</g>
    <g>
</g>
    <g>
</g>
    <g>
</g>
    <g>
</g>
    <g>
</g>
    <g>
</g>
    <g>
</g>
    <g>
</g>
    <g>
</g>
    <g>
</g>
    <g>
</g>
    <g>
</g>
    <g>
</g>
</svg>
