<svg xmlns="http://www.w3.org/2000/svg" x="0px" y="0px"
     width="64" height="64"
     viewBox="0 0 64 64"
     style=" fill:#000000;">
    <path d="M 13 0 C 9.140625 0 6 3.140625 6 7 L 6 57 C 6 60.859375 9.140625 64 13 64 L 35 64 C 38.859375 64 42 60.859375 42 57 L 42 46.328125 C 43.652344 44.800781 44.429688 43.023438 44.765625 42 L 59 42 C 60.652344 42 62 40.652344 62 39 L 62 17 C 62 15.347656 60.652344 14 59 14 L 42 14 L 42 7 C 42 3.140625 38.859375 0 35 0 Z M 13 2 L 35 2 C 37.757813 2 40 4.242188 40 7 L 40 8 L 8 8 L 8 7 C 8 4.242188 10.242188 2 13 2 Z M 19 4 C 18.445313 4 18 4.445313 18 5 C 18 5.554688 18.445313 6 19 6 L 21 6 C 21.554688 6 22 5.554688 22 5 C 22 4.445313 21.554688 4 21 4 Z M 25 4 C 24.445313 4 24 4.445313 24 5 C 24 5.554688 24.445313 6 25 6 L 29 6 C 29.554688 6 30 5.554688 30 5 C 30 4.445313 29.554688 4 29 4 Z M 8 10 L 40 10 L 40 14 L 27 14 C 25.347656 14 24 15.347656 24 17 L 24 39 C 24 40.652344 25.347656 42 27 42 L 36.214844 42 C 36.3125 42.84375 36.269531 44.636719 35.070313 47.628906 C 34.9375 47.960938 34.992188 48.335938 35.214844 48.617188 C 35.40625 48.859375 35.695313 49 36 49 C 36.046875 49 36.09375 48.996094 36.140625 48.988281 C 37.675781 48.769531 38.945313 48.324219 40 47.753906 L 40 52 L 8 52 Z M 27 16 L 59 16 C 59.550781 16 60 16.449219 60 17 L 60 39 C 60 39.550781 59.550781 40 59 40 L 44 40 C 43.515625 40 43.101563 40.351563 43.015625 40.828125 C 42.980469 41.023438 42.199219 45.164063 37.550781 46.628906 C 38.808594 42.589844 38.003906 40.769531 37.894531 40.550781 C 37.722656 40.214844 37.378906 40 37 40 L 27 40 C 26.449219 40 26 39.550781 26 39 L 26 17 C 26 16.449219 26.449219 16 27 16 Z M 33 24 C 32.445313 24 32 24.445313 32 25 L 32 26.265625 L 30.902344 25.636719 C 30.421875 25.359375 29.8125 25.519531 29.535156 26 C 29.257813 26.480469 29.425781 27.089844 29.902344 27.363281 L 31 28 L 29.902344 28.636719 C 29.425781 28.910156 29.257813 29.519531 29.535156 30 C 29.722656 30.320313 30.054688 30.5 30.402344 30.5 C 30.574219 30.5 30.746094 30.457031 30.902344 30.363281 L 32 29.734375 L 32 31 C 32 31.554688 32.445313 32 33 32 C 33.554688 32 34 31.554688 34 31 L 34 29.734375 L 35.097656 30.363281 C 35.253906 30.457031 35.425781 30.5 35.597656 30.5 C 35.945313 30.5 36.28125 30.320313 36.464844 30 C 36.742188 29.519531 36.574219 28.910156 36.097656 28.636719 L 35 28 L 36.097656 27.363281 C 36.574219 27.089844 36.742188 26.480469 36.464844 26 C 36.1875 25.519531 35.574219 25.359375 35.097656 25.636719 L 34 26.265625 L 34 25 C 34 24.445313 33.554688 24 33 24 Z M 43 24 C 42.445313 24 42 24.445313 42 25 L 42 26.265625 L 40.902344 25.636719 C 40.421875 25.359375 39.8125 25.519531 39.535156 26 C 39.257813 26.480469 39.425781 27.089844 39.902344 27.363281 L 41 28 L 39.902344 28.636719 C 39.425781 28.910156 39.257813 29.519531 39.535156 30 C 39.722656 30.320313 40.054688 30.5 40.402344 30.5 C 40.574219 30.5 40.746094 30.457031 40.902344 30.363281 L 42 29.734375 L 42 31 C 42 31.554688 42.445313 32 43 32 C 43.554688 32 44 31.554688 44 31 L 44 29.734375 L 45.097656 30.363281 C 45.253906 30.457031 45.425781 30.5 45.597656 30.5 C 45.945313 30.5 46.28125 30.320313 46.464844 30 C 46.742188 29.519531 46.574219 28.910156 46.097656 28.636719 L 45 28 L 46.097656 27.363281 C 46.574219 27.089844 46.742188 26.480469 46.464844 26 C 46.1875 25.519531 45.574219 25.359375 45.097656 25.636719 L 44 26.265625 L 44 25 C 44 24.445313 43.554688 24 43 24 Z M 53 24 C 52.445313 24 52 24.445313 52 25 L 52 26.265625 L 50.902344 25.636719 C 50.421875 25.359375 49.8125 25.519531 49.535156 26 C 49.257813 26.480469 49.425781 27.089844 49.902344 27.363281 L 51 28 L 49.902344 28.636719 C 49.425781 28.910156 49.257813 29.519531 49.535156 30 C 49.722656 30.320313 50.054688 30.5 50.402344 30.5 C 50.574219 30.5 50.746094 30.457031 50.902344 30.363281 L 52 29.734375 L 52 31 C 52 31.554688 52.445313 32 53 32 C 53.554688 32 54 31.554688 54 31 L 54 29.734375 L 55.097656 30.363281 C 55.253906 30.457031 55.425781 30.5 55.597656 30.5 C 55.945313 30.5 56.28125 30.320313 56.464844 30 C 56.742188 29.519531 56.574219 28.910156 56.097656 28.636719 L 55 28 L 56.097656 27.363281 C 56.574219 27.089844 56.742188 26.480469 56.464844 26 C 56.1875 25.519531 55.574219 25.359375 55.097656 25.636719 L 54 26.265625 L 54 25 C 54 24.445313 53.554688 24 53 24 Z M 12 44 C 11.445313 44 11 44.445313 11 45 L 11 47 C 11 47.554688 11.445313 48 12 48 C 12.554688 48 13 47.554688 13 47 L 13 45 C 13 44.445313 12.554688 44 12 44 Z M 17 44 C 16.445313 44 16 44.445313 16 45 L 16 47 C 16 47.554688 16.445313 48 17 48 C 17.554688 48 18 47.554688 18 47 L 18 45 C 18 44.445313 17.554688 44 17 44 Z M 22 44 C 21.445313 44 21 44.445313 21 45 L 21 47 C 21 47.554688 21.445313 48 22 48 C 22.554688 48 23 47.554688 23 47 L 23 45 C 23 44.445313 22.554688 44 22 44 Z M 27 44 C 26.445313 44 26 44.445313 26 45 L 26 47 C 26 47.554688 26.445313 48 27 48 C 27.554688 48 28 47.554688 28 47 L 28 45 C 28 44.445313 27.554688 44 27 44 Z M 32 44 C 31.445313 44 31 44.445313 31 45 L 31 47 C 31 47.554688 31.445313 48 32 48 C 32.554688 48 33 47.554688 33 47 L 33 45 C 33 44.445313 32.554688 44 32 44 Z M 8 54 L 40 54 L 40 57 C 40 59.757813 37.757813 62 35 62 L 13 62 C 10.242188 62 8 59.757813 8 57 Z M 24 56 C 22.894531 56 22 56.894531 22 58 C 22 59.105469 22.894531 60 24 60 C 25.105469 60 26 59.105469 26 58 C 26 56.894531 25.105469 56 24 56 Z">
    </path>
</svg>
