<svg height="512pt" viewBox="0 0 512.00225 512" width="512pt" xmlns="http://www.w3.org/2000/svg">
    <path d="m140.472656 405.445312c.507813 1.78125.765625 3.625.765625 5.476563v80.984375c0 11.042969-8.953125 19.996094-19.996093 19.996094-11.046876 0-19.996094-8.953125-19.996094-19.996094v-78.191406l-23.445313-82.296875c-.910156-3.195313-1.011719-6.566407-.289062-9.8125l8.210937-36.992188c2.394532-10.78125 13.074219-17.582031 23.855469-15.1875s17.578125 13.074219 15.1875 23.855469l-7.117187 32.050781zm-99.480468-345.457031c0-33.078125 26.910156-59.988281 59.988281-59.988281s59.988281 26.910156 59.988281 59.988281-26.910156 59.988281-59.988281 59.988281-59.988281-26.910156-59.988281-59.988281zm39.992187 0c0 11.027344 8.972656 19.996094 19.996094 19.996094 11.027343 0 19.996093-8.96875 19.996093-19.996094 0-11.023437-8.96875-19.996093-19.996093-19.996093-11.023438 0-19.996094 8.972656-19.996094 19.996093zm430.324219 426.894531c2.777344 10.6875-3.636719 21.601563-14.324219 24.378907-1.6875.4375-3.378906.644531-5.042969.644531-8.890625 0-17-5.96875-19.339844-14.972656l-19.996093-76.984375c-.847657-3.257813-.855469-6.679688-.03125-9.941407l16.71875-65.929687c3.457031-16.851563 3.609375-33.96875.453125-50.882813l-21.167969-96.355468c-.042969-.195313-.082031-.390625-.121094-.582032-1.777343-9.4375-10.042969-16.289062-19.648437-16.289062h-1.265625c-8.746094 0-16.667969 4.824219-20.679688 12.59375l-66.894531 129.554688c-.050781.101562-.117188.191406-.171875.292968-7.832031 17.386719-25.316406 29.523438-45.589844 29.523438h-75.984375c-20.25 0-37.710937-12.109375-45.5625-29.457032-.03125-.0625-.074218-.117187-.105468-.179687l-68.796876-129.945313c-4.042968-7.640624-11.921874-12.382812-20.566406-12.382812-9.601562 0-17.867187 6.851562-19.648437 16.289062-.035157.195313-.078125.390626-.117188.582032l-21.171875 96.359375c-3.15625 16.914062-3 34.027343.457032 50.878906l16.714843 65.929687c.828125 3.265626.816407 6.683594-.03125 9.941407l-19.996093 76.984375c-2.335938 9.003906-10.449219 14.976562-19.339844 14.976562-1.664063 0-3.351563-.210937-5.039063-.648437-10.691406-2.773438-17.105469-13.691407-14.328125-24.378907l18.707032-72.019531-15.566407-61.386719c-.066406-.277343-.132812-.554687-.191406-.835937-4.632813-22.234375-4.84375-44.824219-.632813-67.140625.035157-.195312.074219-.390625.117188-.585938l21.179688-96.394531c5.46875-28.148437 30.183593-48.546875 58.886718-48.546875 23.496094 0 44.917969 12.898438 55.914063 33.664063l29.128906 55.019531v-2.699219c0-27.5625 22.421875-49.988281 49.988281-49.988281h75.984375c27.566407 0 49.992188 22.425781 49.992188 49.988281v.800781l27.128906-52.542968c10.90625-21.121094 32.445313-34.242188 56.214844-34.242188h1.265625c28.707031 0 53.421875 20.398438 58.890625 48.550782l21.179687 96.390624c.039063.195313.082032.390626.117188.585938 4.210937 22.316406 3.996094 44.90625-.636719 67.140625-.054687.28125-.121094.558594-.191406.835937l-15.5625 61.386719zm-207.101563-184.941406v-75.984375c0-5.511719-4.488281-9.996093-10-9.996093h-75.984375c-5.515625 0-10 4.484374-10 9.996093v75.984375c0 5.515625 4.484375 10 10 10h75.984375c5.511719 0 10-4.484375 10-10zm122.691407-17.046875c-2.238282-10.8125-12.816407-17.765625-23.632813-15.53125-10.816406 2.238281-17.769531 12.820313-15.53125 23.632813l6.667969 32.234375-22.472656 80.304687c-.488282 1.753906-.738282 3.566406-.738282 5.386719v80.984375c0 11.046875 8.953125 19.996094 19.996094 19.996094s19.996094-8.949219 19.996094-19.996094v-78.238281l23.042968-82.339844c.859376-3.074219.972657-6.3125.324219-9.441406zm-73.964844-224.90625c0-33.078125 26.910156-59.988281 59.988281-59.988281s59.988281 26.910156 59.988281 59.988281-26.910156 59.988281-59.988281 59.988281-59.988281-26.910156-59.988281-59.988281zm39.992187 0c0 11.027344 8.96875 19.996094 19.996094 19.996094s19.996094-8.96875 19.996094-19.996094c0-11.023437-8.96875-19.996093-19.996094-19.996093s-19.996094 8.972656-19.996094 19.996093zm0 0"/>
</svg>
