<svg height='300px' width='300px' fill="#000000" xmlns="http://www.w3.org/2000/svg" version="1.1" x="0px" y="0px"
     viewBox="0 0 100 100" enable-background="new 0 0 100 100" xml:space="preserve"><path d="M54.764,7.762c2.634-3.717,7.805-4.586,11.523-1.948c3.729,2.637,4.026,7.185,1.387,10.903   c-2.641,3.709-7.224,5.222-10.944,2.576C53.004,16.648,52.117,11.484,54.764,7.762z"></path>
    <path d="M87.469,24.559c-0.053-2.042-2.439-4.322-4.895-3.823c-0.94,0.189-2.08,0.64-2.729,1.593l-3.614,5.22l-3.565,5.215   c0,0-5.055-4.905-6.631-6.182c-1.577-1.276-3.144-2.311-5.138-3.483c-1.995-1.172-7.158-2.432-9.37-2.148l-1.434,0.208l-14.11,2.042   c-2.466,0.477-3.758,2.195-4.263,3.09l-6.136,10.831c-0.575,1.077-1.01,2.119-0.799,3.223c0.386,2.046,2.43,3.604,4.584,3.232   c1.158-0.199,2.505-0.965,3.403-2.307l5.355-8.706l6.206-0.902l-7.382,16.756c-4.106,7.22,2.212,11.79,4.461,14.037l0.788,0.682   l11.645,10.086l-8.278,14.119c-0.446,0.588-0.596,1.482-0.596,2.228c0,2.823,2.234,5.05,4.906,5.05c2.08,0,3.712-1.187,4.604-2.827   l2.147-3.76l7.004-12.27c2.35-4.697-1.032-8.666-1.032-8.666L50.711,55.209l3.174-5.478l7.418-12.713l9.618,5.652   c0,0,3.771,2.719,6.581-1.405l3.357-4.896l5.395-7.969c0.013-0.018,0.021-0.033,0.03-0.051   C87.391,26.642,87.492,25.576,87.469,24.559z"></path>
    <path d="M40.174,65.165l-0.787-0.685c-1.06-1.057-3.012-2.637-4.361-4.761c-0.054-0.084-10.111,16.748-10.111,16.748L13.73,88.416   c-0.565,0.478-0.908,1.315-1.072,2.043c-0.622,2.754,1.067,5.419,3.672,6.006c2.029,0.458,3.882-0.34,5.115-1.743l2.922-3.196   L33.901,81.1c2.471-3.019,7.292-9.772,9.61-13.046L40.174,65.165z"></path></svg>
